<svg width="32" height="32" fill="none" xmlns="http://www.w3.org/2000/svg"><g clip-path="url(#clip0_22_142)" fill="#473E37"><path d="M26.933 14.618v2.063c2.02 1.009 3.193 2.258 3.193 3.497 0 2.84-5.713 5.07-11.366 5.54a.936.936 0 10.154 1.868C23.834 27.181 32 25.058 32 20.178c0-2.666-2.608-4.5-5.067-5.56zm-16.57 7.917a.938.938 0 00-1.583.457l-.414 1.897c-6.205-1.67-9.184-5.262-3.288-8.208v-2.063c-7.737 3.337-6.522 9.606 2.887 12.104l-.372 1.706a.938.938 0 001.263 1.07l4.686-1.875a.938.938 0 00.32-1.527l-3.498-3.56zm6.054-19.98a.937.937 0 00-.93.004L7.888 6.945l8.115 4.685 8.118-4.708-7.705-4.367z"/><path d="M6.952 17.34a.937.937 0 00.469.812l7.647 4.415v-9.313L6.952 8.568v8.772zm18.107 0V8.545l-8.116 4.708v9.314l7.647-4.415a.937.937 0 00.469-.812z"/></g><defs><clipPath id="clip0_22_142"><path fill="#fff" d="M0 0h32v32H0z"/></clipPath></defs></svg>