<svg width="80" height="80" fill="none" xmlns="http://www.w3.org/2000/svg"><path d="M33.75 19.014v17.237h2.5V19.014a6.217 6.217 0 00-1.05-3.466l-5.708-8.565-.015-.018-.52-.78a1.25 1.25 0 01-.207-.687v-.514a1.234 1.234 0 012.234-.726l8.3 11.413A3.73 3.73 0 0140 17.877v15.462h2.5V17.877a6.203 6.203 0 00-1.195-3.675l-8.3-11.414a3.747 3.747 0 00-3.021-1.538 3.725 3.725 0 00-3.689 3.285c-.01-.003-.018-.008-.028-.01L17.11 1.47a4.246 4.246 0 00-1.352-.22h-.228a4.285 4.285 0 00-4.28 4.282c0 1.69.998 3.225 2.541 3.911l8.127 3.613a3.722 3.722 0 011.596 1.345l3.356 5.033a3.73 3.73 0 01.63 2.08v3.108l-1.596-2.395A4.992 4.992 0 0021.744 20H9.375a6.256 6.256 0 00-6.249 6.33 2.504 2.504 0 00-1.876 2.42v12.652c0 .897.199 1.802.575 2.62l6.312 13.676a15.505 15.505 0 001.97 3.188l.794.992a13.05 13.05 0 012.849 8.123h2.5a15.55 15.55 0 00-3.398-9.684l-.793-.993a12.98 12.98 0 01-1.651-2.673L4.095 42.974a3.796 3.796 0 01-.345-1.572V28.75c2.758 0 5 2.243 5 5v5c0 1.174.56 2.297 1.5 3l2.499 1.874a6.918 6.918 0 004.126 1.377 6.884 6.884 0 006.875-6.875v-5a6.884 6.884 0 00-6.875-6.875H5.625a3.755 3.755 0 013.75-3.75h12.369c.837 0 1.615.416 2.08 1.113l3.255 4.884c.276.414.421.894.421 1.387v6.366H30V21.514a6.217 6.217 0 00-1.05-3.466l-3.356-5.034a6.24 6.24 0 00-2.663-2.243l-8.125-3.613a1.781 1.781 0 01.725-3.408h.228c.191 0 .382.03.562.09l9.156 3.053a3.762 3.762 0 011.93 1.471l4.053 6.079 1.66 2.49c.413.619.63 1.337.63 2.081zM16.875 28.75a4.38 4.38 0 014.375 4.376v5a4.38 4.38 0 01-4.375 4.375 4.41 4.41 0 01-2.626-.875l-2.5-1.875a1.257 1.257 0 01-.499-1v-5a7.475 7.475 0 00-1.914-5h7.539zm18.068 33.138a15.42 15.42 0 00-1.193 5.962V70h2.5v-2.15c0-1.726.337-3.41 1-5l3.511-8.426-2.307-.962-3.511 8.426z" fill="#473E37"/><path d="M38.75 78.75h-27.5v-10h27.5v10zm18.75-12.5c-11.718 0-21.25-9.532-21.25-21.25 0-11.717 9.532-21.25 21.25-21.25S78.75 33.283 78.75 45c0 11.718-9.532 21.25-21.25 21.25zm0-36.25c-8.271 0-15 6.73-15 15 0 8.272 6.729 15 15 15s15-6.728 15-15c0-8.27-6.729-15-15-15z" fill="#DDB06F"/><path d="M65.366 36.617L52.5 49.483l-2.866-2.866-1.768 1.767 4.634 4.634 14.634-14.634-1.768-1.767z" fill="#473E37"/><path d="M57.5 58.75c-7.581 0-13.75-6.168-13.75-13.75 0-3.243 1.156-6.393 3.255-8.872l-1.906-1.616A16.252 16.252 0 0041.25 45c0 8.96 7.29 16.25 16.25 16.25a16.25 16.25 0 0010.489-3.85l-1.617-1.906A13.747 13.747 0 0157.5 58.75zm0-30a16.252 16.252 0 00-10.489 3.85l1.616 1.905A13.747 13.747 0 0157.5 31.25c7.581 0 13.75 6.17 13.75 13.75 0 3.244-1.156 6.394-3.255 8.873l1.906 1.616a16.252 16.252 0 003.849-10.488c0-8.96-7.29-16.25-16.25-16.25z" fill="#473E37"/></svg>