<svg width="80" height="80" fill="none" xmlns="http://www.w3.org/2000/svg"><path d="M74.98 31.767l-.995 2.292a3.754 3.754 0 012.265 3.442v35a3.755 3.755 0 01-3.75 3.75H50a3.755 3.755 0 01-3.75-3.75v-35c0-1.494.889-2.844 2.265-3.442l-.995-2.292a6.25 6.25 0 00-3.77 5.734v35c0 1.412.489 2.702 1.282 3.75H41.25v-12.5h-2.5v12.5h-2.5v-10h-2.5v10h-2.5v-20h-2.5v20h-2.5v-25h-2.5v25h-2.5v-15h-2.5v15h-2.5v-12.5h-2.5v12.5h-5v-40h13.233l6.616 6.617c.562.56 1.34.883 2.134.883a3.021 3.021 0 003.017-3.018v-4.482h3.75a3.755 3.755 0 003.75-3.75v-6.25h5v-2.5h-5V17.5a3.755 3.755 0 00-3.75-3.75h-3.75v2.5h3.75c.689 0 1.25.56 1.25 1.25v15c0 .69-.561 1.25-1.25 1.25h-6.25v6.982c0 .421-.584.664-.884.366l-7.349-7.348H5c-.689 0-1.25-.56-1.25-1.25v-15c0-.69.561-1.25 1.25-1.25h3.75v-2.5H5a3.755 3.755 0 00-3.75 3.75v15A3.755 3.755 0 005 36.25h1.25v42.5H72.5a6.257 6.257 0 006.25-6.25v-35a6.25 6.25 0 00-3.77-5.734z" fill="#473E37"/><path d="M51.25 73.75h20c1.379 0 2.5-1.12 2.5-2.5v-20c0-1.378-1.121-2.5-2.5-2.5h-20a2.503 2.503 0 00-2.5 2.5v20c0 1.38 1.121 2.5 2.5 2.5zm0-7.5h5v5h-5v-5zm12.5-7.5v5h-5v-5h5zm-5-2.5v-5h5v5h-5zm5 15h-5v-5h5v5zm-7.5-7.5h-5v-5h5v5zm10 7.5v-12.5h5.001l.001 12.5H66.25zm5-15h-5v-5h5v5zm-15-5v5h-5v-5h5zM73.75 35h-2.5v8.75h-20V35h-2.5v11.25h25V35zm-62.5 11.25h2.5v2.5h-2.5v-2.5zm5 0h15v2.5h-15v-2.5z" fill="#473E37"/><path d="M77.5 20.274l-3.02-.754 1.601-2.67-6.684-6.682-2.667 1.601-.754-3.019h-9.452l-.754 3.02-2.668-1.6-6.683 6.682 1.601 2.67-3.02.752v9.453l3.02.753-1.601 2.67 6.684 6.683 2.667-1.601.754 3.019h9.452l.754-3.02 2.667 1.6 6.684-6.682-1.601-2.67 3.02-.752v-9.453zM61.25 32.501a7.5 7.5 0 110-15 7.5 7.5 0 010 15z" fill="#DDB06F"/><path d="M61.25 33.75c-4.825 0-8.75-3.926-8.75-8.75 0-4.823 3.925-8.75 8.75-8.75S70 20.177 70 25c0 4.824-3.925 8.75-8.75 8.75zm0-15A6.257 6.257 0 0055 25a6.257 6.257 0 006.25 6.25A6.257 6.257 0 0067.5 25a6.257 6.257 0 00-6.25-6.25z" fill="#473E37"/><path d="M21.25 28.75C13.669 28.75 7.5 22.582 7.5 15c0-7.58 6.169-13.75 13.75-13.75S35 7.42 35 15c0 7.582-6.169 13.75-13.75 13.75z" fill="#DDB06F"/><path d="M22.5 13.75H20c-.689 0-1.25-.56-1.25-1.25v-1.25h3.75c.689 0 1.25.56 1.25 1.25h2.5a3.755 3.755 0 00-3.75-3.75v-2.5H20v2.5h-3.75v3.75A3.755 3.755 0 0020 16.25h2.5c.689 0 1.25.56 1.25 1.25v1.25H20c-.689 0-1.25-.56-1.25-1.25h-2.5A3.755 3.755 0 0020 21.25v2.5h2.5v-2.5h3.75V17.5a3.755 3.755 0 00-3.75-3.75zm-11.25 27.5h2.5v2.5h-2.5v-2.5zm5 0h10v2.5h-10v-2.5z" fill="#473E37"/></svg>