<svg width="80" height="80" fill="none" xmlns="http://www.w3.org/2000/svg"><g clip-path="url(#clip0_51_2197)"><path d="M5.161 55.484h18.065v5.162H5.16v-5.162zM30.968 5.162v16.774H5.16V32.26h18.065v16.774h28.387V5.162H30.968z" fill="#DDB06F"/><path d="M12.903 51.614c-4.27 0-7.742-3.473-7.742-7.742 0-4.27 3.472-7.742 7.742-7.742s7.742 3.472 7.742 7.742-3.472 7.742-7.742 7.742z" fill="#DDB06F"/><path d="M80 39.317a5.72 5.72 0 00-1.69-4.08 5.747 5.747 0 00-4.09-1.688h-.162a5.6 5.6 0 00-3.993 1.654l-13.29 13.293V0H13.658L0 13.66V80h56.774V65.05l16.774-16.773.3.299c.63.63.99 1.502.99 2.392 0 .89-.36 1.762-.99 2.392l-9.332 9.332a4.375 4.375 0 00-1.29 3.115c0 1.177.458 2.284 1.29 3.115l1.668 1.668 1.825-1.824-1.668-1.669a1.815 1.815 0 01-.535-1.29c0-.488.19-.944.535-1.29l9.331-9.332a6.003 6.003 0 001.747-4.217c0-1.57-.636-3.106-1.747-4.217l-.3-.299 2.914-2.913C79.391 42.434 80 40.966 80 39.317zM12.903 4.406v8.498H4.405l8.498-8.498zm41.29 73.014H2.581V15.484h12.903V2.581h38.71v48.497L41.43 63.842l-2.404 8.417H37.15a.362.362 0 01-.324-.2l-2.086-4.174 1.115-1.785a10.286 10.286 0 001.563-5.454 3.876 3.876 0 00-3.87-3.871 3.876 3.876 0 00-3.872 3.87v.457a10.342 10.342 0 001.087 4.602l1.02 2.04-2.716 4.346a.362.362 0 01-.307.169h-1.664a.362.362 0 01-.351-.275l-.666-2.66a2.937 2.937 0 00-2.854-2.227 2.937 2.937 0 00-2.854 2.229l-.666 2.66a.361.361 0 01-.351.273h-3.871v2.58h3.87a2.937 2.937 0 002.855-2.228l.666-2.66c.08-.322.622-.322.703 0l.666 2.66a2.935 2.935 0 002.853 2.228h1.664a2.923 2.923 0 002.496-1.381l1.88-3.008 1.382 2.764a2.929 2.929 0 002.632 1.625h3.03l9.527-2.72 4.486-4.487v9.788zM43.22 66.98l3.35 3.35-4.69 1.34 1.34-4.69zm-9.55-2.25l-.282.45-.315-.63a7.746 7.746 0 01-.814-3.448v-.456a1.291 1.291 0 012.58 0 7.695 7.695 0 01-1.17 4.085zm15.363 4.414l-4.627-4.627 22.69-22.693 4.629 4.628-22.692 22.692zm27.43-27.43l-2.914 2.914-4.628-4.629 2.971-2.972a3.038 3.038 0 012.167-.898h.163c.858 0 1.663.332 2.267.936.6.6.931 1.4.931 2.34a3.247 3.247 0 01-.957 2.31z" fill="#473E37"/><path d="M10.322 72.259h2.581v2.58h-2.58v-2.58zm38.71-67.097h2.58v2.58h-2.58v-2.58zm-18.064 0h15.484v2.58H30.968v-2.58zm18.064 5.161h2.58v2.58h-2.58v-2.58zm-18.064 0h15.484v2.58H30.968v-2.58zm18.064 5.161h2.58v2.581h-2.58v-2.58zm-18.064 0h15.484v2.581H30.968v-2.58zM5.16 20.646h46.452v2.58H5.16v-2.58zm0 5.161h46.452v2.58H5.16v-2.58zm0 5.161h46.452v2.581H5.16v-2.58zm18.065 6.452h2.58V40h-2.58v-2.58zm5.161 0h23.226V40H28.387v-2.58zm-5.161 5.161h28.387v2.58H23.226v-2.58zm0 5.161h28.387v2.581H23.226v-2.58zM5.16 54.194h18.065v2.58H5.16v-2.58zm0 5.161h18.065v2.581H5.16v-2.58z" fill="#473E37"/></g><defs><clipPath id="clip0_51_2197"><path fill="#fff" d="M0 0h80v80H0z"/></clipPath></defs></svg>