<svg width="80" height="80" fill="none" xmlns="http://www.w3.org/2000/svg"><g clip-path="url(#clip0_51_2221)"><path d="M41.29 22.535c0 7.126-5.776 12.903-12.903 12.903-7.126 0-12.903-5.777-12.903-12.903 0-7.127 5.777-12.904 12.903-12.904 7.127 0 12.903 5.777 12.903 12.904zm-6.45 32.258H21.935V44.47H34.84v10.323zM19.355 74.147H9.032a3.876 3.876 0 01-3.87-3.87v-2.581a3.876 3.876 0 013.87-3.871h10.323a3.876 3.876 0 013.87 3.87v2.582a3.876 3.876 0 01-3.87 3.87zm36.129-27.096h20.645a2.58 2.58 0 012.58 2.58v2.581H55.485v-5.161z" fill="#DDB06F"/><path d="M28.387 26.405c-.71 0-1.29-.577-1.29-1.29h-2.58c0 1.68 1.081 3.1 2.58 3.633v2.819h2.58v-2.581h2.581v-3.871a3.876 3.876 0 00-3.87-3.87 1.292 1.292 0 01-1.291-1.291v-1.29h1.29c.71 0 1.29.578 1.29 1.29h2.581c0-1.68-1.082-3.1-2.58-3.634v-2.818h-2.581v2.58h-2.58v3.872a3.876 3.876 0 003.87 3.87c.71 0 1.29.579 1.29 1.29v1.291h-1.29zm6.452-5.161h2.58v2.58h-2.58v-2.58zm-15.484 0h2.58v2.58h-2.58v-2.58z" fill="#473E37"/><path d="M76.129 45.76H56.774V32.857H44.658a17.818 17.818 0 015.256-9.38l1.007-.943-1.007-.941a17.825 17.825 0 01-5.64-13.612l.027-.828-1.034-.516-.327.01a17.844 17.844 0 01-13.61-5.64L28.387 0l-.942 1.007a17.854 17.854 0 01-13.612 5.641l-1.378-.045.046 1.377a17.831 17.831 0 01-5.64 13.611l-1.008.944 1.007.942a17.808 17.808 0 015.255 9.38H0V79.31h56.774v-5.162H76.13A3.876 3.876 0 0080 70.277V49.63a3.876 3.876 0 00-3.871-3.87zM54.193 35.438v7.741H30.248a17.773 17.773 0 0112.695-4.758l1.377.045-.045-1.376c-.018-.554.001-1.104.033-1.651h9.886v-.001zM15.081 9.228a20.412 20.412 0 0013.306-5.514 20.405 20.405 0 0013.309 5.512 20.41 20.41 0 005.51 13.307 20.429 20.429 0 00-5.513 13.307 20.407 20.407 0 00-13.306 5.513A20.405 20.405 0 0015.08 35.84a20.413 20.413 0 00-5.511-13.307A20.426 20.426 0 0015.08 9.228zm-2.617 26.21c.033.547.052 1.096.034 1.65l-.026.828 1.033.517.327-.012a17.807 17.807 0 0112.692 4.759H2.58v-7.742h9.883zm-9.883 41.29V45.76h51.613v30.968H2.58zm74.838-6.452c0 .713-.58 1.29-1.29 1.29H56.774V48.342H76.13c.71 0 1.29.578 1.29 1.29v20.645z" fill="#473E37"/><path d="M69.677 68.986c-.91 0-1.797-.245-2.58-.704a5.096 5.096 0 01-2.58.704 5.166 5.166 0 01-5.162-5.161 5.166 5.166 0 015.161-5.161c.91 0 1.798.245 2.58.704a5.096 5.096 0 012.581-.704 5.166 5.166 0 015.162 5.16 5.167 5.167 0 01-5.162 5.162z" fill="#DDB06F"/></g><defs><clipPath id="clip0_51_2221"><path fill="#fff" d="M0 0h80v80H0z"/></clipPath></defs></svg>