<svg width="40" height="40" fill="none" xmlns="http://www.w3.org/2000/svg"><g clip-path="url(#clip0_81_1922)"><path d="M19.998 35.847c8.771 0 15.882-7.11 15.882-15.882 0-8.772-7.11-15.882-15.882-15.882-8.772 0-15.883 7.11-15.883 15.882 0 8.772 7.111 15.882 15.883 15.882z" fill="#DDB06F"/><path d="M36.96 2.39l-.013-.014c-3.696-3.168-9.269-2.747-12.43.936L6.48 24.299c-2.286 2.655-1.983 6.667.659 8.953.006 0 .013.007.013.007a6.36 6.36 0 008.959-.679l11.1-12.911a1.106 1.106 0 00-.497-1.776 1.106 1.106 0 00-1.19.333l-11.1 12.911a4.14 4.14 0 01-5.836.442l-.007-.007a4.139 4.139 0 01-.435-5.83L26.17 4.754c2.378-2.753 6.554-3.07 9.308-.698.006 0 .006.007.013.007 2.596 2.193 3.149 6.515.692 9.288L18.159 34.346c-3.945 4.275-9.512 3.814-12.78.968 0-.007-.006-.013-.012-.013-3.953-3.558-4.045-9.045-.942-12.767L15.906 9.181a1.106 1.106 0 00-.496-1.775 1.11 1.11 0 00-1.19.333L2.738 21.09c-3.67 4.434-4.005 11.403 1.18 15.883.006.007.012.007.012.026 5.046 4.356 12.07 3.229 15.91-1.204l18.049-20.988V14.8c2.944-3.307 2.964-9.044-.929-12.41z" fill="#473E37"/></g><defs><clipPath id="clip0_81_1922"><path fill="#fff" d="M0 0h40v40H0z"/></clipPath></defs></svg>