<svg width="1882" height="602" fill="none" xmlns="http://www.w3.org/2000/svg"><g clip-path="url(#clip0_23_2505)"><path d="M1379.27 601.116V587.74h763.33v13.376h-763.33z" stroke="#E6D4CF" stroke-width="2"/><mask id="a" fill="#fff"><path d="M1387.6 445.607l308.7-163.163v73.435h261.57v19.277H1677.4v-59.437l-15.63 8.262v51.175h-28.24v30.98h374.5l-35.23 23.866 17.27 11.704 35.46-24.096 10.97 7.344-65.57 44.29h69.77v94.089h-638.87v15.375h718.2v-15.375h-63.7v-94.089h69.54l-33.6-22.719-31.74-21.571 10.5-7.114 35.47 24.096 17.27-11.704-35.47-24.096 22.87-15.605-27.3-18.588-27.54-18.588v-15.376l24.97 16.753 17.27-11.704-39.67-26.85 20.77-13.998-13.54-9.179-9.8-6.656v-9.179l-3.96-30.98h-7.94l-3.96 30.98v9.179l-23.57 15.835 20.77 13.998-21.7 14.687-26.37-17.899 22.87-15.605-27.3-18.589-27.54-18.588v-15.375l24.97 16.752 17.27-11.704-39.67-26.849 20.77-13.999-13.54-9.179-9.8-6.655v-9.179l-3.96-30.981h-7.94l-3.96 30.981v9.179l-23.57 15.834 20.77 13.999-39.67 26.849 17.27 11.704 24.96-16.752v15.375l-55.06 37.177 22.63 15.375-17.5 11.933h-164.5v-94.318l-85.87 45.438-11.66-8.032-27.54-18.588v-15.375l24.97 16.752 17.27-11.704-39.67-26.849 20.77-13.999-13.54-9.179-9.8-6.655v-9.18l-3.5-30.98h-7.93l-3.97 30.98v9.18l-23.56 15.834 20.76 13.999-39.66 26.849 17.26 11.704 24.97-16.752v15.375l-55.07 37.176 22.64 15.376-35.47 24.096 12.6 8.491-158.67 83.991 15.17 27.308zm611.33-102.808l17.27 11.703 14-9.409 10.27-7.114v15.376l-23.57 16.064-23.33-15.605-31.74-21.572 10.5-7.114 26.6 17.671z"/></mask><path d="M1387.6 445.607l308.7-163.163v73.435h261.57v19.277H1677.4v-59.437l-15.63 8.262v51.175h-28.24v30.98h374.5l-35.23 23.866 17.27 11.704 35.46-24.096 10.97 7.344-65.57 44.29h69.77v94.089h-638.87v15.375h718.2v-15.375h-63.7v-94.089h69.54l-33.6-22.719-31.74-21.571 10.5-7.114 35.47 24.096 17.27-11.704-35.47-24.096 22.87-15.605-27.3-18.588-27.54-18.588v-15.376l24.97 16.753 17.27-11.704-39.67-26.85 20.77-13.998-13.54-9.179-9.8-6.656v-9.179l-3.96-30.98h-7.94l-3.96 30.98v9.179l-23.57 15.835 20.77 13.998-21.7 14.687-26.37-17.899 22.87-15.605-27.3-18.589-27.54-18.588v-15.375l24.97 16.752 17.27-11.704-39.67-26.849 20.77-13.999-13.54-9.179-9.8-6.655v-9.179l-3.96-30.981h-7.94l-3.96 30.981v9.179l-23.57 15.834 20.77 13.999-39.67 26.849 17.27 11.704 24.96-16.752v15.375l-55.06 37.177 22.63 15.375-17.5 11.933h-164.5v-94.318l-85.87 45.438-11.66-8.032-27.54-18.588v-15.375l24.97 16.752 17.27-11.704-39.67-26.849 20.77-13.999-13.54-9.179-9.8-6.655v-9.18l-3.5-30.98h-7.93l-3.97 30.98v9.18l-23.56 15.834 20.76 13.999-39.66 26.849 17.26 11.704 24.97-16.752v15.375l-55.07 37.176 22.64 15.376-35.47 24.096 12.6 8.491-158.67 83.991 15.17 27.308zm611.33-102.808l17.27 11.703 14-9.409 10.27-7.114v15.376l-23.57 16.064-23.33-15.605-31.74-21.572 10.5-7.114 26.6 17.671z" stroke="#E6D4CF" stroke-width="4" mask="url(#a)"/><path d="M1493.47 413.986v12.427h47.26v-37.574l13.64-7.205v44.779h47.5v-69.702l13.63-7.204v76.906h60.9v114.742h46.33V426.413h183.97v114.742h19.73V426.413h29.5v87.122l2 .021c.21-9.604 3.83-18.089 9.67-24.781v20.629l1.9.444c4.15-8.381 10.77-14.704 18.64-18.469l-9.49 21.989 1.6 1.13c7.09-6.571 15.9-10.314 25.02-10.898l-21.04 20.696 1.1 1.629c.53-.228 1.03-.453 1.52-.673 1.52-.683 2.92-1.311 4.46-1.817 9.59-3.074 19.36-2.394 27.75 1.174l-45.4 14.594.31 1.952h50.8v13.375h-598.14v-13.375h37.34V429.46l29.5-15.474zm1 102.22h-1v24.949h47.26v-24.949h-46.26zm106.16 24.949h1v-24.949h-47.26v24.949h46.26zm257.67-16.376v-1h-29.53v17.376h29.53v-16.376zm-44.17 16.376h1v-17.376h-22.76v17.376h21.76zm58.04-1v1h20.66v-17.376h-20.66v16.376zm19.66-29.981h1v-70.386h-100.46v70.386h99.46zm-229.3-69.156v-1h-47.26v101.366h47.26V441.018zm-60.9 0v-1h-47.26v62.813h47.26v-61.813zm-60.9 0v-1h-47.26v62.813h47.26v-61.813z" stroke="#E6D4CF" stroke-width="2"/></g><path d="M101.156 60.375h0L91.425 82.93l-.46-.197v.002c-1.328 3.103-2.728 5.73-4.071 7.533-.673.902-1.315 1.576-1.909 2.001-.587.421-1.078.565-1.483.514-.337-.078-.672-.382-.927-1.067-.257-.689-.39-1.667-.37-2.865.04-2.39.69-5.529 2.004-8.681 3.333-7.708 6.833-15.253 10.5-22.8 1.568-3.084 3.374-5.622 5.016-7.258.823-.82 1.586-1.394 2.237-1.704.66-.314 1.121-.32 1.424-.172.295.145.555.502.683 1.204.126.694.103 1.632-.08 2.763-.366 2.257-1.347 5.164-2.833 8.172zm281.373-27.472h-.001l-.004.007c-4.341 7.066-8.519 14.137-12.364 21.375-1.576 2.939-3.221 5.443-4.745 7.102-.764.831-1.476 1.428-2.112 1.768-.636.34-1.142.396-1.547.254l-.01-.003-.011-.004c-.3-.09-.598-.4-.785-1.102-.184-.692-.225-1.66-.093-2.838.263-2.35 1.199-5.41 2.843-8.483l.001-.002c3.997-7.539 8.329-14.753 12.666-21.812 1.812-2.918 3.862-5.253 5.666-6.71.904-.73 1.726-1.221 2.407-1.465.694-.248 1.147-.207 1.415-.04.266.167.493.55.563 1.277.068.714-.029 1.659-.303 2.78-.548 2.234-1.774 5.058-3.586 7.896z" stroke="#E5D4CF"/><path d="M169.856 77.203c-.443-.536-.691-.996-.746-1.435-.062-.487.124-.85.304-1.123.843-1.984 1.932-4.002 3.093-6.062.319-.566.643-1.134.969-1.707.875-1.535 1.765-3.097 2.612-4.706l.004-.007h0c1.162-2.123 2.317-4.397 3.306-6.99l.001-.003c.49-1.448.813-2.4 1.139-4.967.152-2.297-.617-4.126-2.023-5.672-1.693-1.503-4.009-1.968-6.363-1.35l-.007.002c-.691.17-1.266.317-1.681.589l-.026.017-.028.014-.008.004c-.161.079-.339.166-.498.233-.096.041-.23.095-.37.123l-.405.266-.026.017-.028.013c-.308.152-.622.345-.96.552l-.01.007a13.22 13.22 0 01-1.004.577 72.905 72.905 0 00-6.771 5.04l-.001.002a186.288 186.288 0 00-11.983 10.809l-.008.008h0l-.003.003c-3.836 3.61-7.677 7.227-11.519 10.679l-.007.005h0l-2.836 2.463-.012.01-.012.01-1.493 1.142-1.159.978-.768-.609.156-.306c.64-1.63 1.569-3.27 2.476-4.871.298-.525.594-1.047.876-1.563.339-.666.687-1.326 1.036-1.986.87-1.645 1.739-3.288 2.445-5.025.498-1.307.993-2.605 1.487-4.064l.158-.618.163-.966.003-.02.005-.02c.15-.59.152-1.025.152-1.683 0-1.091-.157-2.322-.457-3.236l-.439-.72-.123-.121-.149-.147v-.164l-.185-.182-.058-.057-.037-.073a2.518 2.518 0 00-.51-.67c-.104-.103-.214-.202-.336-.312l-.005-.004c-.107-.096-.222-.2-.34-.314-1.116-.62-2.316-1.036-3.475-.893l-.03.004h-.031c-.512 0-.933.003-1.346.139l-.156-.475.156.475-1.502.493-.037.012-.038.006c-.78.128-1.685.593-2.165.84l-.198.1-.013.007-.013.006c-1.12.472-2.085 1.103-3.091 1.763l-.668.437c-1.749 1.142-3.329 2.175-4.782 3.46l-.015.014-.016.012c-3.43 2.572-6.38 5.304-9.182 7.9l-.123.114c-5.659 5.241-10.487 10.32-14.317 14.581-3.83 4.343-6.735 8.02-8.554 10.704-.912 1.346-1.538 2.424-1.874 3.203-.17.392-.251.678-.272.867a.968.968 0 00-.003.028.923.923 0 00.019-.005c.187-.06.458-.192.824-.413.724-.44 1.72-1.172 2.98-2.175 2.513-2.004 6.008-5.033 10.35-8.813 1.234-1.074 2.524-2.217 3.875-3.413 3.382-2.996 7.138-6.323 11.316-9.73 2.849-2.474 6.03-4.944 9.207-7.248l.009-.007h.001l.007-.005c1.664-1.146 3.344-2.304 5.028-3.298l.019-.011c.821-.485 1.684-.994 2.555-1.337l.014-.006.014-.004.304-.1.124-.244.436.2-.208.455c.159-.347.366-.154.31.157l.136.07-.134.261c-.095.516-.268 1.02-.45 1.496-.067.177-.135.347-.2.514-.127.321-.249.63-.357.946l-.009.027-.011.025-.006.011c-.995 2.122-2.004 4.274-3.349 6.428a93.62 93.62 0 01-1.09 2.057c-.851 1.571-1.693 3.125-2.383 4.936l-.006.016-.007.016c-.818 1.77-1.623 4.488-1.623 6.359v.02l-.001.019c-.153 1.959.602 3.636 1.71 5.045.63.613 1.534 1.186 2.227 1.322.834.165 1.719.3 2.584.016l.018-.006.018-.005c1.906-.469 4.177-1.735 6.32-3.357l1.83-1.473.004-.004h0l1.659-1.305 2.988-2.614.003-.003c3.999-3.608 7.832-7.216 11.67-10.828l.006-.006c3.833-3.608 7.682-7.231 11.534-10.363m4.489 20.77l-4.172-20.383m4.172 20.383v.019l.018.001.105.123.142-.123h.256m-.521-.022l.521.022m-5.01-20.79l.002-.002.315.388m-.317-.387s0 0 0 0l.317.387m-.317-.387a70.917 70.917 0 016.05-4.465c.276-.181.55-.316.795-.436l.01-.005c.253-.125.476-.235.697-.38l.026-.017.028-.014.146-.072m-7.435 5.776a70.507 70.507 0 016.007-4.434c.251-.164.501-.287.751-.41.169-.084.338-.167.507-.263 0 0 0 0 0 0 .023-.087.039-.154.05-.204a.537.537 0 01.024-.29l.004-.01a.6.6 0 01.052-.108c.004-.006.017-.028.04-.057m0 0l.187-.092.004.006m-.191.086a.506.506 0 01.854.093.559.559 0 01.054.24v.003c0 .127-.04.318-.11.586a29.36 29.36 0 01-.414 1.392l-.003.01h0c-.682 2.013-1.701 4.015-2.87 6.152m-.253 17.704l.2.408 1.001-.493.013-.006.012-.007 1.156-.65c.683-.337 1.526-.835 2.346-1.319l.011-.007c1.681-.992 3.198-1.987 4.718-3.15 5.857-4.282 11.042-8.727 15.381-12.504l.004-.003c1.805-1.603 3.448-3.083 4.928-4.416 2.019-1.818 3.733-3.363 5.14-4.57 1.219-1.045 2.184-1.817 2.898-2.286.359-.236.63-.377.821-.444l.007-.002c-.028.192-.108.473-.26.85-.318.789-.905 1.894-1.774 3.268-1.734 2.742-4.552 6.497-8.459 10.832h0c-3.828 4.259-8.642 9.322-14.778 14.22a53.29 53.29 0 00-2.013 1.483l-.431.327c-.812.614-1.631 1.219-2.53 1.781h0l-.008.006c-.316.207-.606.407-.884.598-.645.446-1.225.846-1.9 1.178l-.028.013-.025.017a6.302 6.302 0 01-.698.38l-.01.005c-.231.114-.489.24-.75.408l-.787.31-.095.037-.073.072c-.076.075-.309.21-.806.373l-.017.006-.017.007c-1.973.809-3.868 1.259-5.563.956-1.718-.308-3.252-1.224-4.167-2.724l-.006-.01-.007-.01c-.896-1.324-1.078-3.137-.756-5.21l.324-1.435c.066-.191.159-.41.251-.627l.04-.094a8.41 8.41 0 00.142-.352 2.19 2.19 0 00.053-.162.986.986 0 00.027-.13m7.369 3.076l-7.864-3.161m11.339-22.342l.026.036c-.021.02-.083.081-.178.122a.507.507 0 01-.049.018l-.21.103-.062.04c-.076.273-.188.65-.353 1.167-.667 1.97-1.668 3.941-2.836 6.076m3.662-7.562c.05-.046.075-.089.079-.095v-.001a.407.407 0 00.057-.259.488.488 0 00-.413-.44.49.49 0 00-.265.032m.542.763l-.542-.763m.542.763a.47.47 0 01-.126.084l-.199-.404-.001-.001s0 0 0 0c.004-.056-.008-.056-.019-.04l-.007.013-.324-.329a.41.41 0 01.13-.084l.003-.002h.001m-2.68 8.562l.002-.003-.442-.234m.44.237l-.002.003-.438-.24m.44.237c-.805 1.522-1.666 3.026-2.541 4.554-1.516 2.645-3.072 5.361-4.443 8.368m6.544-13.159c-.789 1.492-1.643 2.984-2.516 4.508-1.528 2.669-3.112 5.434-4.493 8.465m0 0l.474.16a6.729 6.729 0 00-.009.026m-.465-.186c-.062.184-.147.39-.239.61-.153.372-.324.784-.429 1.197m.668-1.807l.455.208.01-.022m0 0c-.067.194-.158.413-.247.629l-.089.215c-.118.291-.228.58-.302.862m-.495-.085h.5c0 .03-.002.059-.005.085m-.495-.085l.485.123.01-.038m-78.044 18.69h.002-.002zm.141.095a.014.014 0 01.002.005l-.002-.005z" stroke="#E5D4CF"/><path d="M203.183 69.154l.024.12-.412.135.585.576.351-.356-.351.356h.001l.001.001.002.002.004.005.014.012a.623.623 0 00.043.037.71.71 0 00.085.057h.001c.023.014.124.07.262.07a.509.509 0 00.368-.156l.17-.055c.167-.02.335-.087.449-.136a9.79 9.79 0 00.499-.234l.008-.003c1.372-.676 2.901-1.68 4.248-2.674h0l.003-.003c5.71-4.297 10.908-9.58 16.08-14.998 4.253-4.431 8.242-8.355 11.41-10.984 1.587-1.317 2.947-2.29 4.017-2.843.536-.276.972-.433 1.311-.486.337-.052.522.005.626.083h0l.006.004c.058.041.149.151.166.468.017.316-.045.757-.211 1.328-.331 1.138-1.033 2.663-2.078 4.464-2.084 3.595-5.48 8.204-9.797 12.861-5.338 5.58-10.654 10.974-17.126 15.873h0l-.008.006c-1.644 1.295-3.272 2.415-5.38 3.376-.224.075-.45.18-.657.275l-.139.064c-.263.12-.521.227-.809.298a26.88 26.88 0 01-2.28.482c-1.779.157-3.605-.018-4.949-1.032l-1.98-1.948c-.277-.273-.498-.629-.697-1.02-.099-.194-.189-.39-.278-.586l-.016-.036a14.68 14.68 0 00-.232-.494c-.47-1.404-.63-2.814-.63-4.077 0-2.536.642-4.603 1.306-6.563 2.47-6.48 6.091-11.018 9.063-14.105 1.481-1.457 2.82-2.49 3.872-3.076.528-.294.961-.463 1.288-.526.337-.065.473-.003.516.03.039.03.124.136.135.47.011.326-.054.775-.205 1.35-.301 1.147-.912 2.675-1.743 4.475-.461.998-1.004 2.106-1.587 3.297-1.503 3.07-3.275 6.686-4.604 10.373l-.004.012-.004.012c-.503 1.65-.856 3.187-.856 4.415 0 .375.048.657.093.88l.026.124zm219.488-29.211h0l.005-.004.873-.827c4.079-3.864 7.752-7.344 10.661-9.786 1.559-1.31 2.877-2.303 3.907-2.896.516-.297.934-.479 1.258-.558.329-.08.482-.036.547.005l.022.013.023.012c.045.022.146.1.193.407.047.305.023.75-.106 1.336-.256 1.164-.898 2.755-1.966 4.616-2.149 3.578-5.625 8.301-10.257 12.698-2.839 2.629-5.659 5.24-8.809 7.688-3.162 2.457-6.293 4.724-10.405 6.505l-.011.005-.011.005c-.948.467-2.07.785-3.403 1.113l-.008.002-.008.002c-.516.145-1.336.226-2.241.187-.903-.04-1.846-.197-2.613-.5l-.008-.002-.007-.003c-1.693-.606-2.945-1.82-3.903-3.386-.761-1.506-.933-2.863-1.096-4.145a2.954 2.954 0 01-.011-.092c-.134-2.148.307-3.943.755-5.765.078-.32.157-.642.234-.967.488-1.922 1.306-3.856 2.136-5.654 2.811-5.94 6.364-10.57 9.407-13.524 1.524-1.48 2.905-2.524 3.987-3.105.543-.292.986-.454 1.318-.507.34-.055.476.014.523.055.061.054.144.185.151.513.007.324-.064.766-.223 1.334-.316 1.132-.947 2.64-1.801 4.464-.778 1.66-1.728 3.561-2.774 5.65l-.302.605c-1.162 2.323-2.426 4.86-3.679 7.532a28.681 28.681 0 00-1.908 4.759c-.463 1.576-.732 3.113-.646 4.347a3.692 3.692 0 00.101.79.498.498 0 00.456.676h.807l-.036-.106a7.34 7.34 0 001.891-.599c2.888-1.338 5.928-3.502 8.762-5.635l.007-.005.007-.006c2.85-2.31 5.529-4.782 8.196-7.241l.005-.006zm-19.548 13.59h.001-.001z" stroke="#E5D4CF"/><path d="M233.601 69.818h.526l.325.33h0l-.001.001h0l-.001.002-.002.001.004-.003a.27.27 0 01.028-.021s0 0 0 0h.071l.105-.052c.133-.065.23-.097.352-.137l.003-.001c.127-.042.277-.091.472-.187 2.217-1.007 4.753-2.674 6.945-4.499 3.751-3.035 7.278-5.73 10.048-7.499 1.388-.887 2.563-1.526 3.467-1.864.454-.17.812-.253 1.081-.266.267-.013.388.046.443.093.083.075.165.214.187.485.023.275-.02.648-.153 1.118-.265.94-.857 2.165-1.772 3.58-1.824 2.824-4.873 6.315-8.925 9.653-2.504 1.971-4.969 3.91-8.251 5.524-.295.145-.756.298-1.27.467l-.112.036-.083.082a.994.994 0 01-.175.152.252.252 0 01-.142.033h-.069l-.066.019-1.154.324c-1.48.323-2.856.455-4.045.017l-.029-.011-.031-.008c-2.593-.6-4.473-3.022-4.789-5.806-.164-1.62-.16-2.39-.004-3.312l.007-.041v-.042c0-.93.157-1.705.324-2.528.328-1.613.821-3.233 1.319-4.702.995-2.94 2.158-5.882 3.323-8.667 2.07-4.724 4.506-8.58 6.659-11.123 1.08-1.274 2.072-2.2 2.895-2.743.413-.272.763-.435 1.045-.507.281-.072.458-.045.569.01.102.05.214.159.304.404.092.251.146.61.146 1.087 0 .953-.217 2.26-.63 3.846-.824 3.163-2.397 7.322-4.394 11.744l-.001.002c-1.17 2.632-2.347 5.444-3.19 8.099l-.005.014-.003.014-1.002 3.941-.011.046c-.158.621-.338 1.328-.338 1.884v1.01zM65.549 11.85l-.014.005-.013.005c-5.874 2.643-11.745 6.11-17.112 10.072-10.722 7.913-20.44 17.804-27.98 28.688-3.858 5.448-7.052 11.234-9.239 17.36-2.185 5.956-3.042 12.274-1.865 17.96.009.388.108.757.21 1.082.042.13.083.25.121.363.07.206.134.393.185.594l.005.02c.164.645.342 1.347.7 2.054.095.185.186.368.277.551.538 1.08 1.055 2.118 1.947 3.147 1.701 2.338 3.93 4.373 6.368 5.403 5 2.204 11.316 1.675 17.375-.313C46.609 95.53 55.677 89.244 63.683 83.5h0l.01-.007c7.863-5.927 14.386-11.853 19.894-16.946 4.552-4.14 8.224-7.778 11.042-10.57.596-.59 1.154-1.144 1.674-1.655 1.494-1.47 2.662-2.589 3.526-3.298.434-.357.768-.59 1.012-.715a1.38 1.38 0 01.116-.054c-.001.022-.002.047-.005.075-.021.258-.116.648-.309 1.177-.385 1.05-1.113 2.535-2.201 4.38-2.173 3.686-5.742 8.753-10.733 14.565l-.002.002a158.091 158.091 0 01-19.128 18.987c-7.828 6.393-17.115 13.242-29.039 17.317-3.651 1.144-7.435 2.112-11.535 2.275-3.948-.001-8.207-.65-12.126-2.416-.288-.141-.6-.281-.897-.413a34.978 34.978 0 01-.584-.264c-.466-.22-.886-.447-1.26-.741l-.005-.005-.007-.005-2.641-1.949c-1.5-1.476-2.958-2.916-4.09-4.507l-.007-.01-.008-.01c-.94-1.19-1.77-2.708-2.604-4.236l-.517-.944c-.48-.945-.802-1.895-1.137-2.882-.336-.992-.655-1.94-.814-2.879l-.003-.013-.003-.014C-.504 79.828.969 72.049 3.454 65.2l.001-.003c2.486-7.012 5.967-13.376 10.117-19.257l.002-.004C21.718 34.161 31.858 23.854 43.5 15.181l.003-.003c5.814-4.413 11.952-8.168 18.916-11.105C65.89 2.608 69.525 1.471 73.485.822 75.429.502 77.379.5 79.54.5l3.301.487h.004c.536.076 1.043.228 1.577.41l.421.146c.394.139.81.285 1.243.408 3.436 1.454 6.66 3.693 8.583 6.849.982 1.61 1.784 3.356 2.103 5.242.325 1.918.324 3.83.002 5.573l-.002.01-.001.01c-.485 3.335-2.102 6.215-3.758 8.659-1.648 2.433-3.458 4.537-5.427 6.313h0l-.008.008C79.792 41.95 71.67 46.359 64.678 49.8c-7.069 3.273-12.964 5.355-17.123 6.475-2.084.561-3.717.877-4.838.983-.565.054-.972.052-1.233.013a1.456 1.456 0 01-.07-.012c.014-.02.033-.043.054-.068.17-.198.47-.456.925-.78.902-.646 2.294-1.475 4.122-2.524.753-.432 1.577-.9 2.467-1.404 3.416-1.937 7.8-4.424 12.838-7.555h0l.005-.003c6.174-3.941 13.731-8.897 20.12-15.68h0l.004-.005c1.511-1.652 3.034-3.482 4.244-5.363 1.205-1.872 2.123-3.828 2.39-5.733.174-.952.177-1.798-.007-2.612-.184-.816-.55-1.572-1.075-2.347-1.065-1.571-2.655-2.784-4.584-3.474h0l-.013-.005a4.482 4.482 0 01-.4-.157 9.289 9.289 0 00-.35-.143 3.027 3.027 0 00-1.012-.216 9.3 9.3 0 00-.99-.16l-.013-.002a8.021 8.021 0 01-.942-.153l-.06-.015h-.08c-1.481 0-2.855 0-4.4.335-3.058.339-6.103 1.504-9.075 2.641l-.033.013zM41.343 57.374l-.001.004v-.004z" stroke="#E5D4CF"/><path d="M85.822 24.926h0l.004-.005c2.687-3.8 4.091-7.183 4.097-9.961.068-1.099-.06-2.125-.164-2.964-.025-.203-.05-.396-.069-.575-.052-.48-.07-.852-.03-1.143.038-.278.124-.43.247-.531l.017-.014.016-.016c.02-.02.136-.097.43-.065.28.03.664.16 1.115.455.941.617 2.192 1.693 2.979 3.705l.006.015.007.015c.95 2.028 1.276 4.704.634 7.39-.65 2.714-1.95 5.284-3.597 7.714-4.122 5.84-9.404 10.07-14.737 14.005-5.308 3.918-11.12 7.188-16.95 10.138h0c-4.803 2.445-9.472 3.988-13.008 4.656-1.771.334-3.233.444-4.273.35-.522-.048-.908-.144-1.168-.267-.258-.123-.343-.247-.371-.337L41 57.475l-.006-.016c-.042-.108-.05-.272.06-.535.113-.266.333-.591.679-.972.69-.76 1.8-1.652 3.249-2.64 2.892-1.972 7.04-4.26 11.623-6.555l.002-.002c5.52-2.798 11.051-5.931 16.086-9.565 5.02-3.623 9.744-7.601 13.128-12.264zM307.845 57.04l.003-.003c5.777-4.873 10.85-9.693 14.925-13.565.878-.834 1.709-1.625 2.492-2.362 2.214-2.086 4.021-3.736 5.374-4.773.68-.52 1.216-.864 1.614-1.035.349-.15.462-.115.478-.109l.033.029.041.024c-.001 0 .106.092.076.56-.03.461-.187 1.118-.494 1.956-.612 1.667-1.775 3.943-3.484 6.593-3.415 5.296-8.972 12.031-16.524 18.32l-.003.002c-2.326 1.962-4.641 3.751-7.282 5.376-1.335.821-2.63 1.617-4.412 2.254l-.004.002c-2.626.969-5.441 1.234-7.411.041l-.007-.004-.007-.004c-2.145-1.206-3.241-3.473-3.084-6.103l.001-.005c.135-2.675.491-3.763.897-5.009.081-.247.164-.501.247-.775.736-2.17 1.649-4.15 2.553-6.113.312-.676.622-1.35.925-2.03 1.019-1.883 1.944-3.864 2.838-5.78.281-.602.559-1.197.836-1.78l.003-.008.003-.007c.253-.58.505-1.201.755-1.815l.001-.003c.249-.612.495-1.217.74-1.782l.16-.315.68-1.337-1.346.662-.334.164c-.195.096-.341.193-.465.274l-.006.003a3.199 3.199 0 01-.363.216l-.028.014-.026.017c-.273.179-.54.398-.783.597l-.011.009a8.72 8.72 0 01-.708.543l-.006.005-.007.004a24.81 24.81 0 00-3.225 2.671 1202.604 1202.604 0 00-4.706 4.21c-5.026 4.513-9.624 8.64-13.442 11.522l-.002.001c-2.572 1.96-4.753 3.334-6.361 4.115-.807.392-1.445.623-1.902.71a1.518 1.518 0 01-.484.033.358.358 0 01-.064-.014c-.025-.077-.042-.264.091-.654.153-.45.462-1.04.934-1.778.94-1.47 2.466-3.419 4.467-5.798 4-4.757 9.487-11.137 16.799-17.68l1.747-1.473 1.752-1.478.014-.012.014-.014c.463-.455 1.085-.918 1.749-1.407.192-.1.373-.235.518-.342l.016-.011c.175-.13.305-.224.424-.282l.028-.014.026-.017.5-.329.041-.026.036-.035a1.25 1.25 0 01.249-.167c.131-.074.285-.15.455-.234l.017-.008.016-.01c2.441-1.44 4.978-2.039 6.978-1.585 2.028.46 3.992 2.143 4.288 4.183l.005.034.01.033c.306 1.053.31 2.276-.005 3.515l-.25.985-.246.967c-.068.206-.136.483-.198.734a9.601 9.601 0 01-.171.633.91.91 0 01-.035.093l-.034.033-.038.085c-.283.626-.536 1.253-.781 1.858l-.144.356a26.59 26.59 0 01-.901 2.035l-.006.011-.005.012c-.764 1.72-1.597 3.433-2.412 5.108a304.22 304.22 0 00-1.254 2.6c-1.17 2.468-2.346 5.112-3.189 7.433l-.004.012-.004.013c-.432 1.417-.592 2.002-.645 2.237l-.586 1.155 1.198-.472a20.315 20.315 0 003.281-1.695c2.197-1.33 4.385-2.988 6.561-4.8zm-41.326 6.186l.002.002-.002-.002zm40.279-22.146l.002-.004-.002.004z" stroke="#E5D4CF"/><path d="M258.447 66.567l.009-.008.992-.814.009-.007.009-.008c.631-.57 1.285-1.144 1.947-1.726 1.414-1.243 2.87-2.521 4.239-3.869 4.179-3.947 8.189-8.058 12.191-12.16v-.001c3.314-3.342 6.741-6.021 9.509-7.615 1.389-.8 2.583-1.31 3.499-1.507.953-.206 1.405-.037 1.59.207l.005.006.005.006c.073.09.136.243.136.509.001.268-.063.617-.207 1.05-.288.865-.867 1.973-1.712 3.272-1.687 2.591-4.375 5.85-7.7 9.285-3.998 4.098-8.163 8.198-12.333 12.301-2.166 1.968-4.324 3.928-6.647 5.888l-.159.125c-1.006.795-3.596 2.844-5.727 3.743-1.153.487-2.209.764-3.062.624l-.04-.006h-.041c-.406 0-.829-.134-1.346-.304-.175-.057-.367-.18-.632-.354l-.025-.016c-.209-.137-.47-.309-.749-.417-1.233-1.035-1.849-2.626-2.006-4.467-.16-1.87.16-3.938.73-5.783h0l.003-.008a13.564 13.564 0 012.897-5.227l.005-.005.005-.006c1.135-1.356 2.247-2.205 3.142-2.617.448-.207.822-.294 1.104-.298.28-.004.438.072.526.159.238.234.353.671.251 1.557-.088.762-.317 1.714-.602 2.898l-.117.488a33.114 33.114 0 00-.847 4.667l-.024.239.171.168a.71.71 0 00.736.18.777.777 0 00.266-.149zm79.501-4.537l.008-.004.009-.005c3.387-1.833 6.767-4.494 9.474-7.49 1.175-1.24 2.241-2.495 3.015-3.702.75-1.169 1.263-2.346 1.288-3.45.329-.994.352-1.594.142-2.215-.179-.528-.561-1.323-1.38-1.746-1.443-1.048-3.374-1.382-4.531-1.545h0l-.008-.001c-.647-.08-1.139-.196-1.476-.335-.338-.14-.427-.264-.446-.308.001-.02.016-.127.241-.363.265-.278.715-.617 1.361-1.016 1.291-.633 3.492-1.55 6.647-.773l.011.003.012.002c1.567.308 3.442 1.234 4.689 3.074 1.247 1.841 1.574 4.333 1.255 6.375-.321 2.054-1.125 3.96-2.262 5.718a35.758 35.758 0 01-3.623 4.699h0l-.005.005c-3.132 3.57-6.924 6.652-11.378 9.087l-.009.005-.01.006c-2.115 1.281-4.549 2.239-7.471 2.558h-.003c-2.747.319-6.129-.162-8.849-1.893-1.449-.951-2.721-2.21-3.508-3.603a11.915 11.915 0 01-1.44-4.408c-.323-2.864.159-5.42.82-7.858 1.317-4.7 3.461-8.925 5.947-12.838 4.141-6.52 8.941-11.446 12.861-14.532 1.963-1.545 3.69-2.617 4.99-3.2.654-.294 1.174-.451 1.547-.495.186-.022.314-.013.394.006.038.01.061.02.074.027a.057.057 0 01.016.013l.01.012.011.012c.058.063.131.212.072.583-.057.366-.231.855-.531 1.474-.597 1.233-1.631 2.853-2.967 4.815a362.405 362.405 0 01-2.48 3.577c-2.306 3.298-5.022 7.184-7.668 11.446h0l-.004.006c-2.174 3.62-4.206 7.445-5.227 11.127-.513 1.851-.692 3.726-.514 5.123.09.71.275 1.274.569 1.757.294.48.677.852 1.119 1.2l.017.013.018.012c1.134.744 2.433.907 3.997.736 1.759-.173 3.492-.862 5.176-1.69z" stroke="#E5D4CF"/><path d="M351.428 45.133l-.057-.057-.073-.036c-.092-.045-.188-.099-.303-.163a19.444 19.444 0 00-.286-.157 5.2 5.2 0 00-.796-.358 21.181 21.181 0 00-1.178-.414l-.005-.002a20.178 20.178 0 01-1.14-.4l-.014-.006-.014-.004c-.757-.248-1.416-.48-1.927-.778-.502-.293-.801-.616-.919-1.021l-.003-.01-.003-.011c-.209-.617.156-1.888 2.236-2.833l.007-.003.007-.004c.911-.448 2.323-.766 3.926-.77 1.618.162 3.665.64 5.385 2.025h0l.008.006c2.19 1.693 3.301 4.645 3.144 7.127-.161 2.534-.965 4.597-1.941 6.358l-.004.008-.004.008c-.236.464-.514.895-.803 1.321l-.213.311a22.72 22.72 0 00-.621.94 24.67 24.67 0 00-.465.64c-.353.497-.701.987-1.141 1.42l-.012.012-.011.012c-1.153 1.297-2.473 2.596-3.808 3.91-2.099 1.905-4.679 3.174-6.595 3.65-1.041.155-1.881.147-2.502.004-.617-.143-.961-.405-1.123-.718-.374-.808-.101-1.95.886-3.447.966-1.466 2.513-3.113 4.337-4.828 1.193-1.008 2.212-2.178 3.203-3.315l.012-.014.011-.013.01-.013c.253-.333.465-.624.673-.91l.001-.002c.209-.288.414-.57.661-.894l.008-.011.008-.012.194-.281c.121-.174.256-.367.374-.547.18-.276.366-.588.475-.884.677-1.18 1.045-2.398 1.045-3.166 0-.435-.042-.766-.169-1.048-.123-.27-.307-.452-.46-.602l-.021-.02zm52.326-13.845h0l.011-.007c3.009-2.14 5.361-3.957 6.881-5.286.539-.472 1.011-.98 1.419-1.42.174-.187.336-.362.486-.516.543-.555.939-.845 1.34-.902l.044-.006.042-.014c.058-.018.174-.024.355.106.183.131.395.382.579.779.364.788.573 2.074.254 3.803-.633 3.27-3.521 6.943-7.288 9.36l-.004.003c-4.457 2.924-9.416 5.04-14.385 6.508h0-.004a274.75 274.75 0 01-3.684 1.09c-3.516 1.02-6.927 2.011-10.05 3.363-3.516 1.483-6.205 2.805-8.229 3.968-.2.114-.392.226-.578.333-.768.446-1.424.826-2.002 1.079-.736.322-1.172.355-1.456.215l-.032-.016-.033-.01c-.204-.068-.536-.407-.574-1.272-.037-.828.219-2.008 1.02-3.427l.006-.01.005-.01c1.432-2.819 4.825-5.705 8.915-7.315l.009-.003.01-.004c4.335-1.913 8.806-3.162 13.084-4.356.458-.128.914-.255 1.367-.383h0l.009-.003c4.369-1.322 8.757-3.147 12.483-5.647zm50.908 7.57v.082a5.35 5.35 0 01-.862 2.863c-1.197 2.182-3.061 4.513-4.919 6.34-2.024 1.993-4.236 3.673-6.471 4.692-2.22 1.173-4.542 1.568-6.067 1.005l-.014-.005-.014-.006c-.773-.338-1.416-.71-1.872-1.333-.454-.621-.675-1.427-.762-2.533m20.981-11.105L433.681 49.96v.002m20.981-11.105l4.37-1.434.007-.002.007-.003c.941-.34 1.868-.689 2.779-1.047.272.96.39 1.931.39 2.876 0 2.202-.64 4.253-1.606 5.997-1.809 3.236-3.78 5.662-6.255 8.098-2.478 2.439-5.105 4.536-8.381 6.148-1.64.807-3.258 1.442-5.36 1.76l-.023.004-.022.006c-1.897.466-4.296.313-6.378-.475-2.078-.787-4.002-2.204-5.448-4.098-1.425-2.03-1.91-4.224-2.073-6.14-.161-4 .812-7.37 1.968-10.46 2.149-5.202 4.793-9.434 7.283-13.028a65.731 65.731 0 018.106-8.953c2.567-2.282 4.831-3.9 6.521-4.84.849-.474 1.531-.764 2.021-.89.247-.063.418-.078.523-.068a.332.332 0 01.072.012l.003.004.018.017a.227.227 0 01.013.087c.003.101-.022.262-.101.495-.156.467-.481 1.1-.968 1.905-.853 1.411-2.14 3.251-3.693 5.47l-.648.927c-.409.585-.844 1.197-1.298 1.835-1.573 2.21-3.37 4.736-5.062 7.555-2.167 3.609-4.524 7.583-6.21 11.896m-1.536 7.451c-.176-2.085.524-4.961 1.536-7.451m-1.536 7.451v.002l1.536-7.453" stroke="#E5D4CF"/><mask id="b" fill="#fff"><path d="M474.396 31.365c-1.502 2.792-3.004 5.584-4.005 8.868-.501 1.642-1.001 3.284-1.168 5.42v1.641c0 .493.167 1.314.333 1.971.501 1.478 1.335 2.628 2.337 3.777 1.001.657 2.002 1.314 3.17 1.642.668.165 1.168.165 1.836.165.667 0 1.168 0 1.669-.165 1.835-.328 3.17-.82 4.672-1.313 2.67-1.15 4.839-2.628 7.009-4.106 4.171-2.956 8.009-6.24 11.681-9.689 9.845-9.196 14.684-19.378 12.682-20.527-1.836-1.15-9.178 6.076-18.356 14.615-3.338 3.285-7.009 6.24-10.68 8.868-1.835 1.314-3.671 2.463-5.507 3.285a45.38 45.38 0 01-2.336.82h-.167v-.82c0-.822.334-2.135.668-3.285.834-2.463 2.002-4.926 3.504-7.39 6.174-10.674 11.347-19.87 9.512-21.348-1.836-1.15-10.013 5.912-16.854 17.571z"/></mask><path d="M474.396 31.365l-.863-.506-.009.016-.009.017.881.473zm-5.173 14.287l-.997-.078-.003.04v.038h1zm.333 3.613l-.969.246.01.038.012.037.947-.32zm2.337 3.777l-.754.657.09.104.115.075.549-.836zm3.17 1.642l-.271.963.016.004.016.004.239-.97zm3.505 0l-.177-.984-.069.012-.066.022.312.95zm4.672-1.313l.312.95.042-.014.041-.018-.395-.918zm7.009-4.106l.563.827.007-.006.008-.005-.578-.816zm11.681-9.689l-.683-.73-.002.001.685.73zm12.682-20.527l-.531.847.016.01.017.01.498-.867zm-18.356 14.615l-.681-.732-.011.01-.01.01.702.712zm-16.187 12.152l.367.931.021-.008.021-.01-.409-.913zm-2.336.822v1h.16l.152-.05-.312-.95zm-.167 0h-1v1h1v-1zm.668-4.106l-.947-.32-.007.02-.007.021.961.28zm3.504-7.39l.854.52.006-.009.006-.01-.866-.5zm9.512-21.348l.627-.78-.046-.036-.051-.032-.53.848zm-17.735 17.098c-1.497 2.781-3.046 5.656-4.081 9.05l1.913.583c.968-3.176 2.422-5.885 3.929-8.686l-1.761-.947zm-4.081 9.05c-.5 1.641-1.032 3.377-1.208 5.632l1.994.156c.157-2.014.627-3.563 1.127-5.205l-1.913-.584zm-1.211 5.71v1.642h2v-1.641h-2zm0 1.642c0 .632.198 1.564.364 2.217l1.939-.492c-.168-.66-.303-1.371-.303-1.725h-2zm.386 2.292c.562 1.658 1.493 2.923 2.53 4.113l1.508-1.314c-.966-1.109-1.704-2.143-2.143-3.44l-1.895.64zm2.735 4.292c.98.643 2.107 1.392 3.448 1.769l.542-1.925c-.995-.28-1.87-.845-2.893-1.516l-1.097 1.672zm3.48 1.777c.798.197 1.409.194 2.075.194v-2c-.669 0-1.06-.004-1.597-.136l-.478 1.942zm2.075.194c.632 0 1.3.009 1.98-.214l-.623-1.9c-.321.105-.655.114-1.357.114v2zm1.845-.18c1.921-.344 3.337-.866 4.808-1.348l-.624-1.9c-1.533.502-2.787.966-4.537 1.279l.353 1.969zm4.891-1.38c2.771-1.193 5.015-2.725 7.177-4.197l-1.127-1.653c-2.176 1.483-4.271 2.907-6.841 4.013l.791 1.837zm7.192-4.208c4.22-2.99 8.094-6.307 11.787-9.776l-1.369-1.458c-3.649 3.428-7.451 6.68-11.575 9.602l1.157 1.632zm11.785-9.774c4.992-4.663 8.727-9.586 10.97-13.516 1.118-1.959 1.889-3.713 2.246-5.093.176-.683.269-1.34.213-1.912-.056-.569-.286-1.234-.931-1.604l-.996 1.734c-.145-.083-.088-.179-.064.066.024.24-.01.64-.159 1.216-.295 1.14-.973 2.721-2.046 4.601-2.138 3.747-5.745 8.513-10.598 13.046l1.365 1.462zm12.53-22.106c-.571-.357-1.218-.305-1.725-.171-.524.138-1.09.412-1.669.758-1.165.694-2.594 1.801-4.208 3.173-3.235 2.75-7.394 6.718-11.965 10.971l1.362 1.464c4.607-4.286 8.708-8.2 11.898-10.91 1.598-1.359 2.922-2.376 3.937-2.98.51-.304.892-.473 1.156-.543.281-.074.265.004.153-.067l1.061-1.695zm-19.588 14.75c-3.291 3.24-6.919 6.162-10.56 8.768l1.164 1.626c3.702-2.65 7.416-5.638 10.799-8.968l-1.403-1.425zm-10.56 8.768c-1.808 1.294-3.583 2.402-5.333 3.185l.817 1.825c1.921-.859 3.817-2.05 5.68-3.384l-1.164-1.626zm-5.291 3.167a44.61 44.61 0 01-2.282.801l.624 1.9a46.58 46.58 0 002.391-.84l-.733-1.861zm-1.97.752h-.167v2h.167v-2zm.833 1V46.6h-2v.008h2v-.792h-2v.792h2V46.6h-2v.038h2zm0-.822c0-.653.286-1.827.628-3.005l-1.921-.558c-.325 1.122-.707 2.575-.707 3.563h2zm.615-2.963c.808-2.386 1.943-4.783 3.411-7.19l-1.708-1.041c-1.536 2.52-2.737 5.05-3.597 7.59l1.894.64zm3.423-7.21c3.082-5.33 5.94-10.331 7.795-14.19.924-1.923 1.626-3.615 1.975-4.948.173-.663.276-1.299.246-1.86-.03-.559-.203-1.195-.743-1.63l-1.254 1.558c-.081-.066-.015-.091 0 .178.014.266-.034.674-.184 1.248-.299 1.14-.932 2.692-1.843 4.587-1.816 3.777-4.632 8.71-7.724 14.056l1.732 1.001zm9.176-22.697c-.571-.357-1.23-.307-1.749-.174-.544.14-1.135.42-1.743.787-1.225.738-2.695 1.936-4.289 3.504-3.197 3.147-7.005 7.898-10.466 13.796l1.725 1.012c3.381-5.761 7.083-10.37 10.143-13.382 1.535-1.51 2.88-2.591 3.919-3.218.524-.315.926-.49 1.208-.562.306-.078.303.003.191-.068l1.061-1.695z" fill="#E5D4CF" mask="url(#b)"/><path d="M536.011 43.81l.004-.002c10.136-4.666 18.674-10.43 24.506-14.366l.428-.29h0l.007-.004c3.176-2.221 5.747-4.016 7.628-5.155.943-.571 1.686-.96 2.23-1.159.273-.1.466-.139.592-.143a.391.391 0 01.093.006l.001.038c-.003.11-.039.292-.139.56-.199.529-.602 1.267-1.22 2.189-1.229 1.834-3.251 4.314-5.99 7.173-5.648 5.558-14.108 12.737-25.543 17.957-3.49 1.472-6.967 2.775-10.77 3.75-3.794.975-7.743 1.46-12.018 1.136-4.076-.32-8.617-1.923-11.851-5.094-.234-.287-.492-.578-.747-.868-.111-.125-.222-.25-.33-.375-.372-.426-.731-.86-1.048-1.327l-.984-1.453a22.44 22.44 0 00-.271-.51c-.227-.419-.403-.742-.51-1.164l-.009-.034-.012-.031c-.964-2.37-1.126-4.741-.803-6.965.655-4.35 2.292-8.059 4.428-11.293l.008-.012.007-.012c1.969-3.39 4.434-6.144 7.255-8.921 2.819-2.611 5.786-5.042 9.237-6.983 3.493-1.8 7.208-3.698 12.371-3.393a9 9 0 00.926.156l.063.008c.321.042.566.078.765.143l.018.006.018.005a7.73 7.73 0 011.722.614c1.139.641 2.229 1.418 2.999 2.478l.024.034.03.029c.455.448.729.864.867 1.409l.005.019.006.018c.047.137.103.281.157.419l.017.04c.05.128.098.25.143.373.102.282.157.498.157.65v.036l.006.036c.084.578.164 1.136.205 1.65.04.518.036.956-.034 1.299l-.01.049v.05c0 .436-.073.844-.173 1.258-.035.143-.076.297-.118.455a15.94 15.94 0 00-.194.791c-.978 3.194-2.603 5.758-4.244 7.858-3.436 4.184-7.529 6.607-11.009 8.402-3.546 1.622-6.539 2.425-8.649 2.705-1.06.14-1.876.145-2.419.067-.274-.04-.448-.096-.545-.147a.83.83 0 01-.034-.02.34.34 0 01.037-.09c.057-.104.171-.248.371-.436.398-.376 1.032-.832 1.888-1.397.559-.37 1.209-.782 1.932-1.24 1.45-.922 3.192-2.028 5.086-3.344l.014-.01.013-.01c2.669-2.134 5.893-4.8 8.275-8.316 1.184-1.665 2.22-3.687 2.578-5.58.17-.524.181-1.035.182-1.361.084-.283.086-.504.057-.704-.009-.062-.024-.136-.034-.186a.696.696 0 01-.023-.172.88.88 0 00-.074-.38.626.626 0 00-.093-.145v-.178l-.15-.147-.35.357.35-.357h0l-.001-.001-.002-.002-.004-.004-.013-.012a1.297 1.297 0 00-.16-.125 1.048 1.048 0 00-.288-.133 1.124 1.124 0 00-.695-.195c-1.01-.085-2.325.141-3.698.578a19.734 19.734 0 00-4.262 1.96c-2.694 1.657-5.396 3.65-7.765 5.98-2.36 2.323-4.554 4.98-6.245 7.643-1.688 2.658-3.065 5.686-3.412 8.416-.176 1.387-.004 2.625.367 3.536l.039.096.063.062a1.268 1.268 0 01.054.142l.003.008c.019.057.047.14.085.221.031.067.074.147.138.226.087.163.174.29.248.399l.003.005c.084.124.151.224.219.357.37.73.753 1.107 1.251 1.597l.012.01.008.01.009.007c1.918 1.716 4.526 2.91 7.642 3.082 6.131.501 12.896-1.509 19.096-4.313zm35.504-21.108s0 0 0 0h-.001.001zm-.019-.03l-.001-.004.001.004zm-58.259 15.266l.003.003-.003-.003zm-292.515 69.137h17.219v22.826h4.004v7.868h-3.171v-4.927H215.58v4.927h-3.172v-7.868h3.062l.149-.168c.649-.73 1.719-2.568 2.688-5.491.974-2.938 1.857-7.006 2.11-12.221l.305-4.946zm-.988 21.97l-.87.856h15.571V110.18h-10.474l-.036.461-.334 4.27c-.331 4.236-1.034 7.522-1.792 9.883-.379 1.18-.771 2.124-1.135 2.838-.368.722-.694 1.18-.93 1.413zm45.24-22.299c8.278 0 14.352 5.401 14.352 13.295 0 7.733-6.078 13.294-14.352 13.294-8.285 0-14.518-5.408-14.518-13.294 0-7.413 5.919-13.295 14.518-13.295zm0 23.648c3.287 0 5.964-1.109 7.821-2.958 1.855-1.848 2.858-4.402 2.858-7.231 0-6.059-4.765-10.189-10.679-10.189-6.075 0-10.846 4.125-10.846 10.189 0 5.729 4.932 10.189 10.846 10.189zm41.606-10.532l10.196-12.623h3.433v25.768h-3.338V111.9l-.888 1.093-9.863 12.131h-.196l-10.029-11.973-.883-1.054v20.91h-3.339v-25.768h3.605l10.529 12.629.391.468.382-.474zm45.786 6.209l-.134-.29h-14.156l-.134.29-3.203 6.936h-3.398l12.211-25.932h3.206l12.372 25.932h-3.56l-3.204-6.936zm-12.753-3.946l-.34.715h11.418l-.327-.709-4.839-10.51-.447-.97-.459.964-5.006 10.51zm-182.439 40.769h-.5v22.827h-3.339v-25.768h23.531v25.768h-3.339v-22.827h-16.353zm35.21 9.86v.008l.001.007c.175 5.874 4.922 10.174 10.845 10.174 3.287 0 5.964-1.109 7.821-2.958 1.855-1.847 2.859-4.401 2.859-7.231 0-6.058-4.766-10.189-10.68-10.189-6.075 0-10.846 4.126-10.846 10.189zm10.846-13.294c8.278 0 14.352 5.401 14.352 13.294 0 7.733-6.078 13.295-14.352 13.295-8.283 0-14.515-5.406-14.518-13.289.163-7.424 6.095-13.3 14.518-13.3zm29.674.329h17.219v22.826h4.004v8.032h-3.171v-4.926h-23.194v4.926h-3.172v-8.032h3.062l.149-.167c.649-.73 1.719-2.569 2.688-5.492.974-2.938 1.857-7.005 2.11-12.22l.305-4.947zm-1.035 22.023l-.612.803h15.36v-19.72h-10.474l-.036.461-.334 4.269c-.662 8.314-2.979 12.974-3.904 14.187zm54.818-9.706l11.874-12.317h4.407l-11.812 11.624-.35.344.337.356 12.719 13.444h-4.794l-12.381-13.451zm-1.521-12.317v25.768h-3.339v-25.768h3.339zm47.723 3.606v-.5h-10.966l-.044.451-.5 5.087v.002c-.834 7.953-2.244 12.431-4.034 14.84-.884 1.188-1.856 1.866-2.903 2.218-.93.313-1.948.378-3.062.28l.129-3.279c.475.009 1-.072 1.54-.342.755-.376 1.482-1.09 2.152-2.299 1.327-2.398 2.5-6.883 3.168-15.104h.001v-.01l.305-4.95h17.553v25.768h-3.339v-22.162zm21.028 11.166v11.159h-3.338v-25.932h3.505v11.167h6.77l.065-.424c.964-6.323 5.925-11.071 13.523-11.071 4.316 0 7.814 1.361 10.229 3.679 2.414 2.316 3.789 5.629 3.789 9.615 0 3.903-1.374 7.217-3.79 9.556-2.418 2.339-5.916 3.739-10.228 3.739-7.447 0-12.885-4.596-13.688-11.546l-.051-.442h-6.786v.5zm20.692 8.382c3.208 0 5.765-1.113 7.518-2.969 1.749-1.851 2.66-4.403 2.66-7.22 0-2.987-.999-5.542-2.794-7.352-1.795-1.81-4.348-2.837-7.384-2.837-2.956 0-5.507 1.029-7.32 2.835-1.814 1.807-2.859 4.361-2.859 7.354 0 5.856 4.225 10.189 10.179 10.189zm40.716-11.994v-11.16h3.338v25.932h-3.338v-11.593l-.775.508c-1.415.929-3.989 1.889-7.234 1.889-2.271 0-4.487-.521-6.122-1.766-1.613-1.229-2.723-3.208-2.723-6.274v-8.532h3.338v6.89c0 2.224.611 3.856 1.767 4.924 1.149 1.062 2.752 1.488 4.574 1.488 2.93 0 5.362-.847 6.949-1.888l.226-.148v-.27z" stroke="#E5D4CF"/><defs><clipPath id="clip0_23_2505"><path fill="#fff" transform="translate(1242 159)" d="M0 0h1008v443H0z"/></clipPath></defs></svg>