<svg width="24" height="25" fill="none" xmlns="http://www.w3.org/2000/svg"><g clip-path="url(#clip0_60_2606)" fill="#473E37"><path d="M12.032 19.5a2.992 2.992 0 002.122-.878l3.92-3.922-1.415-1.41-3.633 3.634L13 .5h-2l.026 16.408-3.62-3.62L5.992 14.7l3.92 3.919a2.992 2.992 0 002.12.881z"/><path d="M22 16.5v5a1 1 0 01-1 1H3a1 1 0 01-1-1v-5H0v5a3 3 0 003 3h18a3 3 0 003-3v-5h-2z"/></g><defs><clipPath id="clip0_60_2606"><path fill="#fff" transform="translate(0 .5)" d="M0 0h24v24H0z"/></clipPath></defs></svg>