<svg width="105" height="98" fill="none" xmlns="http://www.w3.org/2000/svg"><g clip-path="url(#clip0_2_932)" fill="#DDB06F"><path d="M10.889 60.341c.462.337.826.747 1.094 1.228a3.4 3.4 0 01.389 1.637c0 1.421-.535 2.48-1.58 3.203-1.045.722-2.601 1.084-4.643 1.084H-.073V52.37h6.1c1.848 0 3.258.337 4.23 1.035.972.699 1.458 1.71 1.458 3.059 0 .77-.218 1.444-.656 1.998-.437.578-1.02.963-1.774 1.156.607.192 1.142.41 1.604.722zm-7.34-1.83h2.236c.705 0 1.24-.12 1.628-.385.39-.265.584-.65.584-1.156 0-.481-.195-.843-.56-1.083-.388-.241-.923-.362-1.628-.362H3.573v2.986h-.024zm4.35 5.514c.414-.289.608-.674.608-1.204 0-1.083-.826-1.637-2.503-1.637H3.549v3.25h2.576c.778 0 1.385-.144 1.774-.409zM14.68 52.42h10.33v3.25h-6.66v2.72h4.692v3.035H18.35v2.865h7.243v3.25H14.68V52.42zm13.271 0h3.67v15.12h-3.67V52.42zm4.205 7.415l4.23-7.416h4.107l-4.4 7.224 5.348 7.898h-4.278l-5.007-7.706zm14.049-4.165h-4.302v-3.25h12.25v3.25H49.85v11.87h-3.67V55.67h.024zm12.323 11.124a6.795 6.795 0 01-2.674-2.745c-.632-1.18-.948-2.528-.948-4.045s.316-2.865.948-4.045c.632-1.18 1.507-2.12 2.674-2.77 1.166-.65 2.479-.986 4.01-.986 1.507 0 2.868.337 4.035.987 1.167.65 2.066 1.589 2.698 2.769.632 1.18.948 2.528.948 4.02 0 1.518-.316 2.89-.948 4.07-.632 1.18-1.531 2.12-2.698 2.77-1.167.65-2.503.986-4.035.986-1.531-.024-2.868-.36-4.01-1.01zm6.003-2.865a3.5 3.5 0 001.313-1.565c.316-.674.462-1.47.462-2.36 0-.915-.146-1.71-.462-2.408-.316-.674-.754-1.204-1.337-1.59a3.697 3.697 0 00-1.993-.553c-.754 0-1.41.193-1.969.554-.559.361-.996.89-1.312 1.59-.316.673-.462 1.492-.462 2.407s.146 1.71.462 2.384c.316.674.729 1.204 1.312 1.565.56.361 1.215.554 1.969.554.778-.024 1.458-.193 2.017-.578zm8.191-11.509h5.299c1.337 0 2.479.216 3.475.673.997.458 1.75 1.084 2.261 1.878.535.795.778 1.71.778 2.697 0 1.036-.243 1.975-.754 2.818-.51.818-1.24 1.468-2.236 1.95-.972.481-2.163.698-3.524.698h-.365l-.899-3.058h1.118c.85 0 1.507-.217 1.993-.626.486-.41.754-1.011.754-1.782 0-.626-.243-1.131-.705-1.493-.486-.36-1.167-.53-2.042-.53h-1.507v11.896h-3.67V52.419h.024zm12.907 8.21h3.33v1.541h-3.33V60.63zm5.809-8.21h3.67v15.12h-3.67V52.42zm4.204 7.415l4.23-7.416h4.107l-4.4 7.224 5.348 7.898h-4.278l-5.007-7.706zM41.295 88.826h.486c.17-.192.608-1.035.68-2.552l.05-.795h2.649v3.347h.583v1.3h-.608v-.722h-3.232v.722h-.608v-1.3zm1.191 0h2.018v-2.745h-1.386l-.049.626c-.097 1.252-.413 1.95-.583 2.12zm6.538-3.395c1.24 0 2.163.819 2.163 2.023 0 1.18-.923 2.022-2.163 2.022-1.24 0-2.187-.818-2.187-2.022 0-1.132.9-2.023 2.187-2.023zm0 3.467c.924 0 1.483-.626 1.483-1.42 0-.843-.656-1.42-1.483-1.42-.85 0-1.507.577-1.507 1.42 0 .794.681 1.42 1.507 1.42zm3.792-3.395h.656l1.556 1.878 1.507-1.878h.607v3.925h-.632v-2.962l-1.458 1.806h-.097l-1.483-1.782v2.938h-.632v-3.925h-.024zm7.608-.023h.559l1.871 3.948h-.68l-.486-1.06h-1.97l-.485 1.06h-.656l1.847-3.949zm-.462 2.31h1.434l-.705-1.54-.73 1.54zm-24.354 6.02h-2.285v3.347h-.632v-3.924h3.573v3.924h-.632V93.81h-.024zm4.423-.65c1.24 0 2.163.819 2.163 2.023 0 1.18-.923 2.022-2.163 2.022-1.24 0-2.187-.818-2.187-2.022.024-1.132.923-2.023 2.187-2.023zm0 3.444c.924 0 1.483-.626 1.483-1.421 0-.843-.656-1.42-1.483-1.42-.85 0-1.507.577-1.507 1.42.025.819.68 1.42 1.507 1.42zm3.039-.049h.486c.17-.192.607-1.035.68-2.552l.049-.795h2.65v3.347h.582v1.325h-.607v-.723h-3.233v.723h-.608v-1.325zm1.19 0h2.018V93.81h-1.386l-.048.626c-.097 1.228-.438 1.927-.584 2.12zm7.146-3.347h.632v3.925h-.632v-3.925zm1.483 1.83l1.969 2.095h-.9l-1.871-2.046 1.798-1.879h.851l-1.847 1.83zm5.955-1.228h-1.459l-.072.747c-.244 2.335-.827 2.697-1.605 2.6l.025-.626c.316.048.802-.12.996-2.528l.049-.795h2.698v3.925h-.632V93.81zm2.6-.602h.633v1.638h.85c.146-.963.9-1.686 2.042-1.686 1.288 0 2.114.819 2.114 2.023 0 1.18-.826 2.022-2.114 2.022-1.118 0-1.945-.698-2.066-1.757h-.85v1.71h-.633v-3.95h.024zm3.55 3.395c.898 0 1.409-.625 1.409-1.42 0-.843-.56-1.42-1.41-1.42-.826 0-1.41.577-1.41 1.42 0 .819.584 1.42 1.41 1.42zm6.489.554h-.632V95.52c-.219.144-.608.289-1.094.289-.68 0-1.361-.313-1.361-1.252v-1.325h.632v1.084c0 .626.34.867.85.867.414 0 .754-.12.973-.265v-1.71h.632v3.95zM23.747 82.012c.461-1.108.972-2.191 1.482-3.275.438-.89.584-1.733.292-1.878-.292-.144-.9.458-1.361 1.373a83.289 83.289 0 00-1.532 3.346c-.388.94-.388 1.879-.048 1.95.34.049.778-.601 1.167-1.516zm40.663-4.166a57.709 57.709 0 011.798-3.13c.535-.843.73-1.685.462-1.854-.267-.169-.948.361-1.483 1.228a58.256 58.256 0 00-1.847 3.203c-.486.914-.559 1.83-.243 1.926.34.12.851-.506 1.313-1.373z"/><path d="M35.17 80.832c.243-.578.632-1.18.972-1.83.17-.313.34-.65.486-1.035a3.13 3.13 0 00.17-.747 1.156 1.156 0 00-.315-.89c-.268-.242-.632-.314-.997-.217a.872.872 0 00-.267.096.411.411 0 01-.122.048l-.073.048c-.097.048-.194.12-.291.169-.365.24-.68.481-.997.746a27.29 27.29 0 00-1.75 1.59 95.872 95.872 0 01-1.677 1.564l-.413.362-.219.168-.17.145.024-.049c.122-.313.316-.626.486-.939.17-.337.365-.674.51-1.035.074-.192.147-.385.22-.602l.024-.096.024-.145c.024-.096.024-.168.024-.265 0-.168-.024-.36-.072-.505l-.073-.12-.025-.025v-.024l-.048-.048c-.049-.096-.122-.144-.195-.217-.17-.096-.364-.168-.559-.144-.073 0-.146 0-.219.024l-.218.072c-.146.024-.316.12-.365.145-.17.072-.316.168-.462.265-.291.192-.559.36-.802.578-.51.385-.948.794-1.36 1.18a32.843 32.843 0 00-2.091 2.142c-1.118 1.276-1.701 2.167-1.556 2.288.122.096.9-.578 2.163-1.686.633-.553 1.362-1.228 2.212-1.926a19.77 19.77 0 011.337-1.06c.243-.168.486-.337.73-.481.12-.072.242-.145.364-.193l.073-.024-.024.048c-.025.145-.098.29-.146.434-.146.313-.292.626-.486.939-.17.337-.365.65-.51 1.035-.122.265-.244.675-.244.963-.024.313.097.578.267.795a.819.819 0 00.365.217c.122.024.267.048.413 0 .292-.073.632-.265.948-.506l.267-.217.244-.192.437-.385c.583-.53 1.142-1.06 1.701-1.59.56-.53 1.119-1.06 1.678-1.517.291-.24.583-.457.874-.65.073-.048.146-.072.22-.12l.048-.024c-.024.024.049-.12-.073.265a5.752 5.752 0 01-.413.89c-.316.603-.705 1.204-1.021 1.903-.024.072-.073.168-.097.265 0 .024-.049.12-.073.192l-.049.217c-.048.313-.024.602.122.819.145.24.389.385.656.433.267.048.559-.024.85-.145a.395.395 0 00.147-.072l.121-.048c.073-.048.146-.072.219-.12.146-.073.267-.169.413-.265.267-.169.486-.361.73-.53.898-.722 1.603-1.469 2.162-2.095 1.143-1.276 1.653-2.215 1.532-2.311-.146-.097-.875.626-2.115 1.733a33.563 33.563 0 01-2.236 1.83 6.686 6.686 0 01-.68.458 5.88 5.88 0 01-.341.192l-.17.097-.146.072v-.024c-.146-.169-.121-.24-.073-.313z"/><path d="M43.24 77.413c-.754.794-1.507 1.565-2.334 2.191a4.252 4.252 0 01-.607.385.413.413 0 01-.122.048l-.073.025s.025.024 0-.025c0-.048-.024-.096-.024-.192 0-.169.049-.385.121-.626.268-.747.657-1.469.9-1.999s.364-.915.243-1.011c-.122-.096-.486.096-.924.53a6.152 6.152 0 00-1.337 2.094c-.097.29-.194.603-.194.988 0 .192.024.41.097.626.049.096.097.24.195.337l.291.289c.219.168.51.193.778.168.146-.024.243-.048.34-.072.097-.024.17-.072.243-.096.316-.145.56-.313.802-.506.948-.722 1.726-1.517 2.504-2.335 1.264-1.373 1.993-2.721 1.726-2.914-.292-.217-1.386.795-2.625 2.095zm28.705-1.758c-.39.361-.778.722-1.191 1.06-.414.313-.851.626-1.264.818-.195.096-.414.096-.34.096 0 0-.025-.072-.025-.144-.024-.337.146-.867.365-1.3.729-1.565 1.482-2.817 1.24-3.034-.244-.217-1.508.77-2.334 2.528a5.013 5.013 0 00-.316.843c-.073.313-.17.626-.146 1.011.024.193.049.41.17.65.146.241.34.434.608.53.243.096.583.096.753.048a2.5 2.5 0 00.51-.168c.608-.265 1.07-.602 1.532-.964.462-.36.875-.746 1.288-1.131a9.2 9.2 0 001.507-1.878c.316-.554.389-.963.243-1.036-.267-.168-1.312.843-2.6 2.071z"/><path d="M45.694 79.363c-.316.265-.68.506-.996.65-.049.024-.073.024-.122.048-.024 0-.048.025-.048.025v-.145c0-.072.024-.168.048-.265l.146-.578c.122-.385.292-.794.462-1.18.583-1.3.924-2.456.632-2.6-.292-.144-1.118.746-1.726 2.143-.17.41-.34.843-.486 1.276a5.867 5.867 0 00-.194.699c-.025.12-.049.24-.049.385a1.728 1.728 0 000 .505c.049.434.34.82.754.915.194.073.413.049.631 0l.17-.048c.05 0 .074-.024.098-.048.073-.024.146-.048.194-.072.486-.241.851-.53 1.216-.819 1.19-.987 1.798-2.07 1.555-2.287-.219-.193-1.19.505-2.285 1.396zm-29.968 4.912c-.875.29-1.775.361-2.48.048-.34-.144-.656-.433-.899-.77-.146-.169-.218-.337-.316-.53a1.347 1.347 0 01-.097-.289c-.024-.096-.073-.192-.073-.289-.17-.818-.049-1.733.268-2.6.316-.891.777-1.734 1.336-2.528a18.033 18.033 0 014.06-4.19 13.676 13.676 0 012.479-1.469c.437-.168.874-.337 1.312-.385.219-.048.413-.048.632-.048.097.024.194.024.292.048.097 0 .17.048.243.072.267.096.486.265.632.482a.83.83 0 01.145.674c-.073.53-.51 1.107-.948 1.589-.923.987-2.017 1.71-2.916 2.287-1.847 1.156-3.087 1.71-3.014 1.903.049.168 1.434-.097 3.5-1.06 1.02-.505 2.212-1.156 3.354-2.24a5.12 5.12 0 00.802-.938c.243-.361.486-.795.56-1.3a2.448 2.448 0 000-.843 2.273 2.273 0 00-.317-.795c-.291-.481-.777-.818-1.288-1.035-.17-.048-.316-.12-.486-.145l-.486-.072c-.316 0-.608 0-.9.048a7.084 7.084 0 00-1.628.482c-1.02.433-1.92.987-2.77 1.637a19.42 19.42 0 00-4.376 4.527 11.724 11.724 0 00-1.482 2.841c-.365 1.012-.584 2.167-.316 3.347.024.145.072.29.121.434a3.2 3.2 0 00.17.433c.146.265.292.554.462.77.17.241.389.458.608.675l.389.289c.121.096.267.144.413.216.583.265 1.215.362 1.798.362.608-.025 1.167-.169 1.702-.337 1.75-.602 3.11-1.614 4.253-2.553a23.174 23.174 0 002.795-2.793c1.459-1.71 2.09-2.986 1.92-3.082-.17-.096-1.02.94-2.624 2.408-.803.746-1.75 1.613-2.893 2.48-1.166.843-2.479 1.758-3.937 2.24z"/><path d="M22.872 73.464c-.487.674-1.167 1.252-1.896 1.782-.73.53-1.532.987-2.334 1.396-1.336.675-2.43 1.349-2.309 1.662.098.313 1.434.12 2.844-.602.85-.434 1.701-.915 2.48-1.493.777-.578 1.555-1.204 2.162-2.07.244-.362.438-.747.535-1.157a1.76 1.76 0 00-.097-1.131 1.183 1.183 0 00-.462-.578c-.146-.096-.267-.096-.316-.048-.146.12 0 .433-.024.818 0 .386-.195.867-.583 1.42zm32.35 4.696a7.935 7.935 0 01-.948.698 2.82 2.82 0 01-.462.24c.025-.048-.048.145.098-.337.121-.337.291-.722.462-1.083.17-.361.364-.747.534-1.132.098-.193.17-.41.268-.626.024-.024.048-.169.072-.24.025-.097.05-.193.073-.29a1.069 1.069 0 000-.553c-.048-.338-.364-.603-.68-.675-.316-.072-.705.024-1.07.241a.53.53 0 00-.121.072l-.073.048c-.049.025-.097.073-.146.097a2.603 2.603 0 00-.267.216l-.51.434c-1.07.963-1.872 1.902-2.455 2.6-.584.699-.9 1.156-.803 1.3.098.121.632-.12 1.386-.698.73-.553 1.653-1.42 2.65-2.311a3.44 3.44 0 01.461-.386c.073-.048.146-.12.219-.168.048-.024.073-.048.121-.072l.049-.024-.024.048c-.073.168-.146.361-.22.53-.17.36-.34.746-.534 1.107-.17.385-.364.77-.51 1.204-.073.24-.146.385-.17.867-.025.41.145.77.486.963.316.193.753.145 1.142 0 .267-.096.462-.217.656-.337.39-.24.73-.506 1.07-.795 2.212-1.854 3.257-3.973 2.965-4.141-.243-.217-1.677 1.469-3.719 3.202z"/><path d="M50.847 76.835c-.583.602-1.166 1.204-1.774 1.782-.292.289-.608.554-.9.819l-.145.12s-.024.024-.049 0c.025-.24.073-.482.122-.674.097-.41.17-.675.048-.795-.121-.12-.462 0-.802.41-.17.192-.34.457-.437.794-.17.554-.195 1.252.219 1.59.072.023.145.096.218.12.073.024.146.048.219.048.146.024.316-.024.486-.097.34-.144.754-.481.875-.577.34-.29.656-.578.972-.867.608-.602 1.216-1.204 1.799-1.806.972-1.011 1.58-1.927 1.385-2.167-.218-.29-1.264.313-2.236 1.3zm10.136.963a5.28 5.28 0 01-1.361 1.084c-.243.12-.487.216-.73.24-.218.025-.389 0-.534-.096a.519.519 0 01-.22-.385c-.023-.193 0-.458.074-.723.146-.53.437-1.083.753-1.613 1.07-1.733 2.212-3.034 1.969-3.299-.194-.24-1.799.747-3.014 2.673-.364.578-.68 1.204-.875 1.903-.097.36-.17.746-.121 1.18.024.216.097.457.218.674.122.216.316.409.535.553.413.265.924.337 1.337.29a2.675 2.675 0 001.118-.386 6.143 6.143 0 001.677-1.348c.195-.217.365-.434.535-.699a2.24 2.24 0 00.34-.867c.049-.313 0-.698-.194-.987a1.154 1.154 0 00-.73-.481 1.41 1.41 0 00-1.02.12c-.195.12-.292.217-.268.289.024.072.146.12.34.144.17.025.438.073.632.217a.362.362 0 01.17.217c.025.072.025.144-.024.289 0 .289-.267.65-.607 1.011z"/><path d="M61.566 76.522c.049.048.073.072.073.193a.995.995 0 01-.146.433c-.024.072-.097.169-.146.24-.073.097-.121.17-.194.266a4.352 4.352 0 01-.462.481c-.535.506-.924.987-.778 1.3.073.145.292.193.608.145.291-.072.68-.265.996-.554.195-.192.39-.385.56-.578.097-.096.17-.216.242-.313.073-.12.17-.24.243-.385.146-.265.268-.578.292-.963.025-.385-.146-.843-.486-1.108-.267-.216-.583-.289-.826-.313-.243 0-.462.048-.608.12-.316.145-.413.362-.364.506.048.169.242.241.461.313.122.048.219.072.34.12.073.025.146.073.195.097zm7.632-2.143c-.535.361-1.167.626-1.799.819-.68.192-1.41.385-2.114.698-.608.24-1.118.674-1.337 1.108-.243.433-.17.746-.024.794.145.072.364-.072.656-.24.291-.17.68-.362 1.19-.579.609-.264 1.289-.433 1.994-.65a7.956 7.956 0 002.115-.963c.558-.361.996-.915 1.093-1.42.097-.53-.121-.82-.267-.771-.17.024-.292.24-.51.433-.22.193-.56.458-.997.77zm3.597 1.324c-.17.458-.316.963-.291 1.565.024.29.097.626.316.94.218.288.51.505.826.626.316.12.68.144.972.072a2.61 2.61 0 00.802-.265c.486-.24.875-.554 1.24-.915a5.13 5.13 0 00.923-1.204 1.9 1.9 0 00.243-.915 1.53 1.53 0 00-.364-1.011c-.122-.145-.316-.265-.51-.362a1.321 1.321 0 00-.608-.072.881.881 0 00-.268.048.731.731 0 00-.243.097.987.987 0 00-.218.12.426.426 0 00-.122.096.309.309 0 01-.097.073l-.073.072c-.024.048-.049.048-.073.144-.024.049-.024.097-.024.12v.217a.645.645 0 00.437.458c.049.024.073.024.097.024.122.024.17 0 .243 0 .098 0 .17-.024.244-.048.145-.048.243-.072.364-.096l.656-.217c1.459-.53 2.674-1.228 3.452-1.854.802-.65 1.142-1.204 1.02-1.325-.12-.12-.631.193-1.482.627-.85.409-2.042.963-3.403 1.444-.194.072-.413.145-.607.217l-.292.096a.246.246 0 00-.073.024v.411c0 .024 0 .048-.024.072 0 .024-.025.048-.025.048 0 .024-.024 0 .025.024.073.024.17.12.291.265.025.024.049.072.073.096.025-.024.049-.024.073-.048.025-.024.049-.024.073-.024.024 0 .049-.024.049-.024.073 0 .073 0 .097.024.073.048.121.337-.049.602-.17.313-.437.65-.705.915-.291.289-.607.53-.923.674-.316.169-.632.217-.827.145-.218-.097-.316-.193-.34-.506-.024-.289.073-.698.219-1.06.243-.625.583-1.203.9-1.733.315-.53.656-.987.923-1.373.535-.77.9-1.276.778-1.396-.098-.12-.68.168-1.434.843a9.68 9.68 0 00-1.191 1.324c-.365.53-.754 1.156-1.07 1.926z"/><path d="M79.528 74.451c-.219.41-.438.819-.584 1.3a3.554 3.554 0 00-.17.795v.24c0 .073.025.194.049.29.073.217.194.385.34.554.146.096.292.192.462.24.097.024.17.024.267.024.098 0 .17 0 .243-.024.268-.048.462-.12.681-.192.389-.169.705-.385 1.02-.602a16.051 16.051 0 001.702-1.42c1.434-1.35 2.14-2.842 1.847-3.01-.267-.17-1.336.89-2.673 2.142-.486.482-1.021.915-1.556 1.3a4.713 4.713 0 01-.802.482 6.528 6.528 0 01-.34.12h-.024v-.12c0-.12.048-.313.097-.481.121-.362.291-.723.51-1.084.9-1.565 1.653-2.913 1.386-3.13-.268-.169-1.459.867-2.455 2.576z"/><path d="M88.472 76.209c-.9.41-1.871.698-2.746.626a1.722 1.722 0 01-1.07-.433.75.75 0 01-.17-.217c-.024-.048-.049-.072-.073-.12-.024-.025-.024-.073-.048-.097-.049-.12-.073-.289-.049-.481.049-.386.243-.82.486-1.204a6.43 6.43 0 01.9-1.108 6.32 6.32 0 011.118-.867c.388-.24.85-.385 1.118-.361.024 0 .048 0 .072.024.025 0 .049.024.049.024v.024c0 .024.024 0 .024.048 0 .049.025.073 0 .145 0 .048 0 .12-.024.192-.049.265-.194.554-.364.795-.34.506-.803.891-1.191 1.204-.827.578-1.434.867-1.386 1.035.024.145.754.145 1.799-.337.51-.264 1.118-.626 1.628-1.252.243-.313.486-.698.632-1.18.024-.12.073-.24.073-.385.024-.12 0-.289-.024-.457 0-.073-.049-.169-.073-.241a.499.499 0 00-.146-.24 1.409 1.409 0 00-.462-.386 1.198 1.198 0 00-.267-.096c-.073-.025-.17-.025-.268-.049-.777-.048-1.336.241-1.847.506-.51.289-.948.65-1.36 1.035-.414.41-.779.82-1.07 1.325a4.16 4.16 0 00-.657 1.685c-.048.337-.024.698.122 1.06.024.096.073.168.122.264l.145.217c.097.145.219.265.316.386.486.481 1.167.722 1.775.77a5.366 5.366 0 001.774-.169c.559-.144 1.07-.337 1.58-.553 1.677-.77 2.916-1.83 3.743-2.649.802-.843 1.19-1.469 1.07-1.565-.122-.12-.706.289-1.63.939-.85.578-2.114 1.445-3.62 2.143zm3.184-29.545H11.934v1.614h79.722v-1.614zm-78.75-14.808l32.156-17.12v7.705H72.31v2.023H43.094v-6.236l-1.629.866v5.37h-2.94v3.25h39.01l-3.67 2.505 1.798 1.228 3.695-2.529 1.142.77-6.83 4.648h7.267v9.872H14.39v1.614H89.2v-1.614h-6.635v-9.872h7.243l-3.5-2.384-3.305-2.263 1.093-.747 3.695 2.529 1.798-1.228-3.694-2.528 2.382-1.638-2.844-1.95-2.868-1.95v-1.614l2.6 1.758 1.8-1.228-4.133-2.817 2.164-1.47-1.41-.962-1.021-.698v-.964l-.413-3.25h-.827l-.413 3.25v.963l-2.455 1.662 2.164 1.469-2.26 1.54-2.747-1.877 2.382-1.638-2.844-1.95-2.868-1.95v-1.614l2.6 1.758 1.8-1.228L72.551 8.5l2.163-1.469-1.41-.963-1.02-.698v-.964l-.413-3.25h-.827l-.413 3.25v.964l-2.454 1.66L70.34 8.5l-4.132 2.817 1.799 1.228 2.6-1.758V12.4l-5.735 3.901 2.357 1.614-1.823 1.252H48.271V9.27l-8.945 4.768-1.215-.843-2.868-1.95V9.63l2.6 1.758 1.8-1.228-4.133-2.817 2.164-1.469-1.41-.963-1.02-.698V3.25L34.878 0h-.827l-.413 3.25v.964l-2.455 1.661 2.163 1.469-4.132 2.817 1.799 1.228 2.6-1.758v1.614l-5.735 3.9 2.357 1.614-3.694 2.528 1.312.89-16.528 8.814 1.58 2.865zm63.68-10.787l1.8 1.228 1.458-.987 1.07-.747v1.613l-2.456 1.686-2.43-1.637-3.306-2.264 1.094-.746 2.77 1.854z"/><path d="M20.757 30.098v11.678h-3.889v1.614h62.514v-1.614h-5.396l4.983-1.613a4.203 4.203 0 00-3.209-.24c-.218.072-.413.168-.632.264l2.382-2.36c-1.069 0-2.114.41-2.94 1.18l1.093-2.552a4.285 4.285 0 00-2.236 2.095v-2.432a4.189 4.189 0 00-1.215 2.865v-9.246H68.93v12.04h-1.848v-12.04h-19.37v12.04h-4.618v-12.04H36.75V21.6l-1.628.866v7.272h-4.74V24.97l-1.629.866v3.901h-4.715v-1.372l-3.281 1.733zm3.281 9.27h4.715v2.408h-4.715v-2.408zm11.06 2.408h-4.716v-2.408h4.715v2.408zm26.735-1.613v1.613h-2.868v-1.613h2.868zm-4.496 1.613h-2.163v-1.613h2.163v1.613zm6.15 0v-1.613h1.944v1.613h-1.945zm1.944-3.25H55.174V31.35H65.43v7.176zm-23.99-7.152v10.427h-4.715V31.373h4.715zm-6.344 0v6.381h-4.715v-6.38h4.715zm-6.344 0v6.381h-4.715v-6.38h4.715z"/></g><defs><clipPath id="clip0_2_932"><path fill="#fff" d="M0 0h105v98H0z"/></clipPath></defs></svg>