<svg width="1843" height="277" fill="none" xmlns="http://www.w3.org/2000/svg"><g clip-path="url(#clip0_51_1208)"><path d="M138 344.8l-2.767 1.159 2.767 6.609 2.767-6.609L138 344.8zM220.4 148v-3h-1.996l-.771 1.841L220.4 148zm54.4 0l2.723 1.26 1.971-4.26H274.8v3zM138 443.6l-2.723 1.26 2.723 5.883 2.723-5.883L138 443.6zM1.2 148v-3h-4.694l1.971 4.26L1.2 148zm54.4 0l2.767-1.159-.77-1.841H55.6v3zm85.167 197.959l82.4-196.8-5.534-2.318-82.4 196.8 5.534 2.318zM220.4 151h54.4v-6h-54.4v6zm51.677-4.26l-136.8 295.6 5.446 2.52 136.8-295.6-5.446-2.52zm-131.354 295.6l-136.8-295.6-5.446 2.52 136.8 295.6 5.446-2.52zM1.2 151h54.4v-6H1.2v6zm51.633-1.841l82.4 196.8 5.534-2.318-82.4-196.8-5.534 2.318zM336.572 428h-3v3h3v-3zm0-41.6v-3h-3v3h3zm141.2 0h3v-3h-3v3zm0 41.6v3h3v-3h-3zm-141.2-238.4h-3v3h3v-3zm0-41.6v-3h-3v3h3zm141.2 0h3v-3h-3v3zm0 41.6v3h3v-3h-3zm-141.2 108.8h-3v3h3v-3zm0-40.8v-3h-3v3h3zm133.2 0h3v-3h-3v3zm0 40.8v3h3v-3h-3zM307.372 148v-3h-3v3h3zm46.4 0h3v-3h-3v3zm0 280v3h3v-3h-3zm-46.4 0h-3v3h3v-3zm32.2 0v-41.6h-6V428h6zm-3-38.6h141.2v-6h-141.2v6zm138.2-3V428h6v-41.6h-6zm3 38.6h-141.2v6h141.2v-6zm-138.2-235.4V148h-6v41.6h6zm-3-38.6h141.2v-6h-141.2v6zm138.2-3v41.6h6V148h-6zm3 38.6h-141.2v6h141.2v-6zm-138.2 111.8v-40.8h-6v40.8h6zm-3-37.8h133.2v-6h-133.2v6zm130.2-3v40.8h6v-40.8h-6zm3 37.8h-133.2v6h133.2v-6zM307.372 151h46.4v-6h-46.4v6zm43.4-3v280h6V148h-6zm3 277h-46.4v6h46.4v-6zm-43.4 3V148h-6v280h6zm273.516-88l-2.585 1.523.01.017.01.017 2.565-1.557zm35.2 34.8l-1.494 2.602.028.016.029.016 1.437-2.634zm83.6 6.8l.927 2.853-.927-2.853zm28.799-14l1.7 2.472.008-.005.008-.006-1.716-2.461zm22.8-20.4h3v-8.11l-5.277 6.158 2.277 1.952zm0 56l1.9 2.322 1.1-.9V403.2h-3zm-37.999 22l1.047 2.811-1.047-2.811zm-108.801-2.8l-1.099 2.791.007.003.007.003 1.085-2.797zm-46-30l-2.121 2.121 2.121-2.121zm-30.799-46l-2.783 1.121.01.026.011.025 2.762-1.172zm0-116.4l-2.769-1.157-.004.011-.004.01 2.777 1.136zm30.799-46.4l2.122 2.121-2.122-2.121zm46-30l-1.085-2.797-.007.003-.007.003 1.099 2.791zm108.801-2.8l1.047-2.811-1.047 2.811zm37.999 22h3v-1.422l-1.1-.9-1.9 2.322zm0 56l-2.277 1.952 5.277 6.158v-8.11h-3zm-22.8-20l-1.75 2.436.042.031.044.029 1.664-2.496zm-28.799-14.4l.927-2.853-.927 2.853zm-83.6 7.2l1.456 2.622.008-.004.009-.005-1.473-2.613zm-35.2 34.4l-2.565-1.557-.004.007-.004.007 2.573 1.543zm-16.2 52c0 20.193 4.507 38.067 13.615 53.523l5.169-3.046c-8.492-14.411-12.784-31.204-12.784-50.477h-6zm13.635 53.557c9.316 15.343 21.408 27.313 36.271 35.845l2.987-5.204c-13.937-8.001-25.311-19.231-34.129-33.755l-5.129 3.114zm36.328 35.877c15.117 8.245 31.479 12.366 49.037 12.366v-6c-16.576 0-31.948-3.879-46.164-11.634l-2.873 5.268zm49.037 12.366c13.59 0 25.91-1.767 36.927-5.347l-1.855-5.706c-10.317 3.353-21.996 5.053-35.072 5.053v6zm36.927-5.347c10.918-3.548 20.782-8.338 29.572-14.381l-3.399-4.944c-8.277 5.69-17.613 10.234-28.028 13.619l1.855 5.706zm29.588-14.392c8.989-6.265 16.783-13.233 23.362-20.909l-4.555-3.904c-6.221 7.257-13.627 13.89-22.238 19.891l3.431 4.922zm18.084-22.861v56h6v-56h-6zm1.101 53.678c-11.49 9.401-23.871 16.564-37.148 21.511l2.095 5.622c13.923-5.187 26.875-12.69 38.852-22.489l-3.799-4.644zm-37.148 21.511c-13.157 4.901-29.84 7.411-50.152 7.411v6c20.754 0 38.204-2.557 52.247-7.789l-2.095-5.622zm-50.152 7.411c-20.189 0-39.019-3.407-56.515-10.197l-2.171 5.594c18.237 7.077 37.808 10.603 58.686 10.603v-6zm-56.501-10.191c-17.226-6.786-32.209-16.562-44.978-29.33l-4.243 4.242c13.365 13.365 29.048 23.59 47.022 30.67l2.199-5.582zm-44.978-29.33c-12.785-12.785-22.838-27.793-30.16-45.051l-5.523 2.344c7.612 17.942 18.092 33.601 31.44 46.949l4.243-4.242zm-30.139-45c-7.043-17.479-10.582-36.56-10.582-57.279h-6c0 21.415 3.66 41.266 11.017 59.521l5.565-2.242zM522.888 288c0-20.719 3.539-39.662 10.576-56.864l-5.553-2.272c-7.363 17.998-11.023 37.722-11.023 59.136h6zm10.568-56.843c7.323-17.524 17.376-32.658 30.153-45.436l-4.243-4.242c-13.356 13.356-23.837 29.155-31.447 47.364l5.537 2.314zm30.153-45.436c12.769-12.768 27.752-22.544 44.978-29.33l-2.199-5.582c-17.974 7.08-33.657 17.305-47.022 30.67l4.243 4.242zm44.964-29.324c17.496-6.79 36.326-10.197 56.515-10.197v-6c-20.878 0-40.449 3.526-58.686 10.603l2.171 5.594zm56.515-10.197c20.312 0 36.995 2.51 50.152 7.411l2.095-5.622c-14.043-5.232-31.493-7.789-52.247-7.789v6zm50.152 7.411c13.277 4.947 25.658 12.11 37.148 21.511l3.799-4.644c-11.977-9.799-24.929-17.302-38.852-22.489l-2.095 5.622zm36.047 19.189v56h6v-56h-6zm5.278 54.048c-6.591-7.691-14.402-14.537-23.413-20.544l-3.329 4.992c8.589 5.726 15.978 12.213 22.187 19.456l4.555-3.904zm-23.327-20.484c-8.801-6.326-18.682-11.261-29.623-14.817l-1.855 5.706c10.392 3.378 19.711 8.042 27.977 13.983l3.501-4.872zm-29.623-14.817c-11.017-3.58-23.337-5.347-36.927-5.347v6c13.076 0 24.755 1.7 35.072 5.053l1.855-5.706zm-36.927-5.347c-17.576 0-33.951 4.263-49.074 12.787l2.947 5.226c14.21-8.009 29.569-12.013 46.127-12.013v-6zm-49.057 12.778c-14.884 8.268-26.988 20.114-36.308 35.465l5.129 3.114c8.813-14.516 20.176-25.603 34.092-33.335l-2.913-5.244zm-36.316 35.479c-9.124 15.206-13.627 33.092-13.627 53.543h6c0-19.549 4.296-36.33 12.772-50.457l-5.145-3.086zM772.341 191.6h-3v3h3v-3zm0-43.6v-3h-3v3h3zm195.2 0h3v-3h-3v3zm0 43.6v3h3v-3h-3zm-74 0v-3h-3v3h3zm0 236.4v3h3v-3h-3zm-47.6 0h-3v3h3v-3zm0-236.4h3v-3h-3v3zm-70.6 0V148h-6v43.6h6zm-3-40.6h195.2v-6h-195.2v6zm192.2-3v43.6h6V148h-6zm3 40.6h-74v6h74v-6zm-77 3V428h6V191.6h-6zm3 233.4h-47.6v6h47.6v-6zm-44.6 3V191.6h-6V428h6zm-3-239.4h-73.6v6h73.6v-6zm182.039 151l-2.65 1.397.01.028.02.028 2.62-1.453zm34 35.2l1.53-2.581-1.53 2.581zm98.4 0l-1.53-2.581-.01.006-.01.007 1.55 2.568zm33.6-35.2l-2.63-1.433-.01.008v.008l2.64 1.417zm.4-102.8l-2.65 1.397v.01l.01.01 2.64-1.417zm-33.6-35.6l-1.55 2.568.01.007.01.006 1.53-2.581zm-98.8 0l1.53 2.581-1.53-2.581zm-34 35.6l-2.63-1.433-.01.008v.008l2.64 1.417zm-51.199-6.8l-2.776-1.136 2.776 1.136zm30.399-45.6l2.1 2.143-2.1-2.143zm46.4-30.4l-1.12-2.783-.01.003v.003l1.13 2.777zm115.6 0l1.14-2.777-1.14 2.777zm46 30.4l-2.12 2.121.02.022.02.021 2.08-2.164zm.4 208l2.12 2.121-2.12-2.121zm-46.4 30.8l1.14 2.777.01-.005.01-.004-1.16-2.768zm-116 0l-1.16 2.768.02.007.02.008 1.12-2.783zm-46.4-30.8l-2.14 2.099.01.011.01.011 2.12-2.121zM976.781 346l-2.782 1.121 2.782-1.121zm36.199-58c0 19.629 4.09 37.318 12.35 52.997l5.31-2.794c-7.75-14.721-11.66-31.432-11.66-50.203h-6zm12.38 53.053c8.52 15.39 20.22 27.517 35.09 36.328l3.06-5.162c-13.93-8.256-24.89-19.596-32.9-34.072l-5.25 2.906zm35.09 36.328c14.91 8.834 31.85 13.219 50.73 13.219v-6c-17.92 0-33.78-4.149-47.67-12.381l-3.06 5.162zm50.73 13.219c19.14 0 36.09-4.38 50.75-13.232l-3.1-5.136c-13.61 8.215-29.46 12.368-47.65 12.368v6zm50.73-13.219c14.88-8.816 26.46-20.955 34.72-36.364l-5.29-2.834c-7.75 14.457-18.57 25.785-32.49 34.036l3.06 5.162zm34.71-36.348c8.53-15.686 12.76-33.388 12.76-53.033h-6c0 18.755-4.03 35.453-12.03 50.167l5.27 2.866zM1209.38 288c0-19.628-4.09-37.192-12.35-52.617l-5.29 2.834c7.73 14.442 11.64 31.011 11.64 49.783h6zm-12.34-52.597c-8.26-15.678-19.84-27.96-34.73-36.784l-3.06 5.162c13.91 8.243 24.73 19.694 32.48 34.416l5.31-2.794zm-34.71-36.771c-14.66-8.855-31.75-13.232-51.15-13.232v6c18.47 0 34.45 4.157 48.05 12.368l3.1-5.136zm-51.15-13.232c-18.88 0-35.82 4.385-50.73 13.219l3.06 5.162c13.89-8.232 29.75-12.381 47.67-12.381v-6zm-50.73 13.219c-14.88 8.819-26.59 21.089-35.1 36.748l5.27 2.866c8.01-14.741 18.97-26.204 32.89-34.452l-3.06-5.162zm-35.11 36.764c-8.27 15.425-12.36 32.989-12.36 52.617h6c0-18.772 3.91-35.341 11.65-49.783l-5.29-2.834zM968.981 288c0-20.719 3.54-39.662 10.577-56.864l-5.553-2.272c-7.363 17.998-11.024 37.722-11.024 59.136h6zm10.577-56.864c7.051-17.237 16.96-32.09 29.722-44.593l-4.2-4.286c-13.368 13.097-23.727 28.644-31.075 46.607l5.553 2.272zm29.722-44.593c13.05-12.79 28.19-22.711 45.44-29.766l-2.27-5.554c-17.96 7.345-33.75 17.691-47.37 31.034l4.2 4.286zm45.42-29.76c17.49-7.048 36.31-10.583 56.48-10.583v-6c-20.89 0-40.47 3.665-58.72 11.017l2.24 5.566zm56.48-10.583c20.72 0 39.66 3.539 56.87 10.577l2.27-5.554c-18-7.362-37.72-11.023-59.14-11.023v6zm56.87 10.577c17.24 7.053 32.23 16.968 45.01 29.744l4.24-4.242c-13.35-13.357-29.03-23.709-46.98-31.056l-2.27 5.554zm45.05 29.787c13.03 12.502 23.06 27.348 30.1 44.572l5.56-2.272c-7.36-17.976-17.86-33.53-31.5-46.628l-4.16 4.328zm30.1 44.572c7.04 17.202 10.58 36.145 10.58 56.864h6c0-21.414-3.66-41.138-11.02-59.136l-5.56 2.272zM1253.78 288c0 20.447-3.54 39.396-10.58 56.879l5.56 2.242c7.36-18.25 11.02-37.968 11.02-59.121h-6zm-10.58 56.879c-7.06 17.508-16.97 32.631-29.74 45.4l4.24 4.242c13.37-13.364 23.72-29.175 31.06-47.4l-5.56-2.242zm-29.74 45.4c-12.78 12.777-27.91 22.83-45.44 30.153l2.32 5.536c18.21-7.61 34.01-18.091 47.36-31.447l-4.24-4.242zm-45.41 30.144c-17.21 7.038-36.15 10.577-56.87 10.577v6c21.42 0 41.14-3.661 59.14-11.023l-2.27-5.554zM1111.18 431c-20.45 0-39.39-3.537-56.88-10.583l-2.24 5.566c18.25 7.354 37.97 11.017 59.12 11.017v-6zm-56.84-10.568c-17.53-7.323-32.66-17.376-45.44-30.153l-4.24 4.242c13.36 13.356 29.15 23.837 47.36 31.447l2.32-5.536zm-45.42-30.131c-12.506-12.771-22.295-27.901-29.356-45.422l-5.565 2.242c7.339 18.212 17.55 34.016 30.641 47.378l4.28-4.198zm-29.356-45.422c-7.045-17.483-10.583-36.432-10.583-56.879h-6c0 21.153 3.663 40.871 11.018 59.121l5.565-2.242zM1360.28 294.4v-3h-5.61l3.12 4.666 2.49-1.666zm51.2 0l2.45-1.736-.9-1.264h-1.55v3zm94.8 133.6v3h5.81l-3.36-4.736-2.45 1.736zm-56.8 0l-2.49 1.666.89 1.334h1.6v-3zm-146.8-280v-3h-3v3h3zm47.2 0h3v-3h-3v3zm0 280v3h3v-3h-3zm-47.2 0h-3v3h3v-3zm28-239.2h-3v3h3v-3zm0-40.8v-3h-3v3h3zm111.2 10.8l-1.3 2.702.01.005.01.004 1.28-2.711zm35.2 30.4l-2.53 1.604.01.012v.012l2.52-1.628zm0 91.6l-2.53-1.604 2.53 1.604zm-35.2 30.4l-1.28-2.711-.01.004-.01.005 1.3 2.702zm-111.2 10.8h-3v3h3v-3zm0-38.8v-3h-3v3h3zm84.4-5.6l-1.23-2.734-.02.008-.01.007 1.26 2.719zm19.2-16l2.52 1.642.01-.022.01-.022-2.54-1.598zm0-51.2l-2.51 1.642 2.51-1.642zm-19.2-16l-1.26 2.719.01.007.02.008 1.23-2.734zm-54.8 103h51.2v-6h-51.2v6zm48.76-1.264l94.8 133.6 4.89-3.472-94.8-133.6-4.89 3.472zM1506.28 425h-56.8v6h56.8v-6zm-54.3 1.334l-89.2-133.6-4.99 3.332 89.2 133.6 4.99-3.332zM1302.68 151h47.2v-6h-47.2v6zm44.2-3v280h6V148h-6zm3 277h-47.2v6h47.2v-6zm-44.2 3V148h-6v280h6zm28-239.2V148h-6v40.8h6zm-3-37.8h58.4v-6h-58.4v6zm58.4 0c19.92 0 37.05 3.537 51.5 10.502l2.61-5.404c-15.42-7.435-33.49-11.098-54.11-11.098v6zm51.52 10.511c14.73 6.979 26.01 16.748 33.95 29.293l5.07-3.208c-8.6-13.589-20.78-24.086-36.45-31.507l-2.57 5.422zm33.96 29.317c7.91 12.243 11.92 26.858 11.92 43.972h6c0-18.086-4.25-33.871-12.88-47.228l-5.04 3.256zm11.92 43.972c0 17.113-4.01 31.873-11.93 44.396l5.07 3.208c8.61-13.61 12.86-29.517 12.86-47.604h-6zm-11.93 44.396c-7.94 12.545-19.22 22.314-33.95 29.293l2.57 5.422c15.67-7.421 27.85-17.918 36.45-31.507l-5.07-3.208zm-33.97 29.302C1426.13 315.463 1409 319 1389.08 319v6c20.62 0 38.69-3.663 54.11-11.098l-2.61-5.404zM1389.08 319h-58.4v6h58.4v-6zm-55.4 3v-38.8h-6V322h6zm-3-35.8h56.4v-6h-56.4v6zm56.4 0c11.02 0 20.8-1.928 29.27-5.881l-2.53-5.438c-7.53 3.514-16.42 5.319-26.74 5.319v6zm29.24-5.866c8.74-3.945 15.6-9.636 20.48-17.092l-5.03-3.284c-4.19 6.41-10.12 11.387-17.92 14.908l2.47 5.468zm20.5-17.136c4.88-7.751 7.26-16.858 7.26-27.198h-6c0 9.393-2.15 17.353-6.33 24.002l5.07 3.196zm7.26-27.198c0-10.585-2.37-19.721-7.28-27.242l-5.03 3.284c4.15 6.346 6.31 14.277 6.31 23.958h6zm-7.28-27.242c-4.88-7.456-11.74-13.147-20.48-17.092l-2.47 5.468c7.8 3.521 13.73 8.498 17.92 14.908l5.03-3.284zm-20.45-17.077c-8.47-3.953-18.25-5.881-29.27-5.881v6c10.32 0 19.21 1.805 26.74 5.319l2.53-5.438zm-29.27-5.881h-56.4v6h56.4v-6zm124.3 166.6h-3v3h3v-3zm0-38.8v-3h-3v3h3zm82 0h3v-3h-3v3zm0 38.8v3h3v-3h-3zm-79 0v-38.8h-6v38.8h6zm-3-35.8h82v-6h-82v6zm79-3v38.8h6v-38.8h-6zm3 35.8h-82v6h82v-6zm33.13-201.4v-3h-3v3h3zm48.4 0h3v-3h-3v3zm0 280v3h3v-3h-3zm-48.4 0h-3v3h3v-3zm152.4-280v-3h-1.34l-.89 1 2.23 2zm56.8 0l2.23 2.006 4.51-5.006h-6.74v3zm-118 131.2l-2.23-2.006-1.74 1.931 1.67 1.996 2.3-1.921zm124 148.8v3h6.41l-4.1-4.921-2.31 1.921zm-58 0l-2.3 1.922.9 1.078h1.4v-3zm-123.2-147.6l-2.23-2-1.73 1.932 1.66 1.99 2.3-1.922zm-34-129.4h48.4v-6h-48.4v6zm45.4-3v280h6V148h-6zm3 277h-48.4v6h48.4v-6zm-45.4 3V148h-6v280h6zm149.4-277h56.8v-6h-56.8v6zm54.57-5.006l-118 131.2 4.46 4.012 118-131.2-4.46-4.012zm-118.07 135.127l124 148.8 4.61-3.842-124-148.8-4.61 3.842zM1841.71 425h-58v6h58v-6zm-55.69 1.078l-123.2-147.6-4.61 3.844 123.2 147.6 4.61-3.844zM1662.75 282.4l118.4-132.4-4.47-4-118.4 132.4 4.47 4z" fill="#F7F3F0"/></g><defs><clipPath id="clip0_51_1208"><path fill="#fff" d="M0 0h1843v277H0z"/></clipPath></defs></svg>