<svg width="210" height="70" fill="none" xmlns="http://www.w3.org/2000/svg"><path d="M73.308 24.925l.127.05.05-.128.136-.338.054-.136-.139-.047c-2.316-.772-4.6-1.159-6.852-1.159-2.232 0-3.932.524-5.074 1.596-1.138 1.045-1.704 2.415-1.704 4.098 0 2.123.88 3.77 2.636 4.925a18.265 18.265 0 002.56 1.434h.002c.926.407 1.841.803 2.745 1.187h.001c.921.382 1.762.797 2.524 1.245 1.68.995 2.506 2.364 2.506 4.116 0 1.605-.633 2.813-1.902 3.644-1.26.818-2.791 1.231-4.6 1.231a12.42 12.42 0 01-3.616-.536c-1.163-.38-2.106-.859-2.836-1.433l-.12-.095-.082.13-.17.271-.069.111.107.076c1.992 1.396 4.392 2.091 7.193 2.091 1.5 0 2.814-.17 3.937-.514h.001c1.157-.37 2.14-1.065 2.946-2.079.812-1.02 1.215-2.248 1.215-3.676 0-1.437-.239-2.624-.727-3.553-.483-.944-1.119-1.685-1.908-2.22a16.133 16.133 0 00-2.563-1.4 35.334 35.334 0 00-2.786-1.088 25.972 25.972 0 01-2.49-1.077c-1.68-.884-2.5-2.118-2.5-3.704 0-1.315.49-2.335 1.47-3.075.984-.743 2.362-1.123 4.15-1.123 1.81 0 3.735.39 5.778 1.176zm14.107 21.656h0l.003.002c.53.434 1.277.641 2.221.641h2.205v-.547h-1.176l-.36-.066h0l-.014-.001c-.215-.018-.453-.164-.713-.487-.225-.33-.346-.805-.346-1.442V34.078c0-1.13-.288-2.067-.877-2.797h0l-.002-.002c-.385-.457-.989-.796-1.793-1.026-.787-.254-1.807-.378-3.055-.378-1.277 0-2.448.442-3.509 1.318-.848.683-1.486 1.414-1.908 2.195V30.01h-2.649v17.214h2.649V35.06c0-.846.541-1.828 1.686-2.95h0c1.13-1.13 2.395-1.688 3.799-1.688.684 0 1.249.11 1.699.324.854.46 1.313 1.53 1.313 3.298v10.637h0v.008l.034.575c.025.46.305.9.793 1.317zm5.153-14.328h-.001c-1.568 1.591-2.343 3.82-2.343 6.67 0 2.845.751 4.978 2.28 6.368 1.52 1.382 3.487 2.069 5.886 2.069 2.427 0 4.428-.791 5.992-2.378 1.591-1.591 2.378-3.82 2.378-6.67 0-2.845-.752-4.978-2.281-6.369-1.521-1.382-3.498-2.068-5.92-2.068-2.404 0-4.405.791-5.991 2.378zm1.902.417h0c1.107-1.506 2.49-2.248 4.157-2.248 1.676 0 3.013.637 4.025 1.913 1.01 1.274 1.528 3.258 1.528 5.977 0 2.693-.561 4.783-1.667 6.287-1.106 1.482-2.489 2.213-4.157 2.213-1.675 0-3.012-.636-4.024-1.912-1.01-1.274-1.529-3.247-1.529-5.944 0-2.716.562-4.805 1.667-6.286zm35.37-2.416l-.101.1.105.099c.325.305.498.76.498 1.39 0 .635-.132 1.175-.388 1.624h-.001l-.005.011-4.772 10.334-5.068-13.711-.033-.09h-2.665l.068.185 1.234 3.368-4.715 10.248L108.93 30.1l-.034-.09h-2.666l.069.186 6.301 16.937.033.09h.524l.037-.08 5.823-12.806 4.762 12.796.033.09h.524l.037-.08 6.165-13.55.001-.004a4.835 4.835 0 00.418-1.917 2.24 2.24 0 00-.07-.534c-.028-.208-.13-.428-.291-.66a2.317 2.317 0 00-.196-.284.648.648 0 00-.197-.17l-.089-.045-.07.07-.204.204zm24.402 8.552a19.152 19.152 0 00-1.521-.056c-.615 0-1.284.034-2.01.102h-.002l3.533-.046zm0 0v-5.421a.21.21 0 01-.017-.037.326.326 0 01-.017-.108c0-.068.015-.15.038-.244.035-.161.002-.376-.126-.656l-.006-.01h.001a3.793 3.793 0 00-.458-.883c-.181-.262-.514-.497-1.021-.696l-.004-.002h0c-.496-.215-1.153-.327-1.978-.327-.819 0-1.788.155-2.91.47h-.002 0c-1.103.293-1.902.583-2.406.867l-.12.068-.068-.12-.135-.237-.075-.13.137-.064c2.027-.933 4.09-1.401 6.189-1.401 1.17 0 2.149.105 2.933.318.783.213 1.381.537 1.777.981.605.675.916 1.395.916 2.159V44.68c0 .637.121 1.113.345 1.442.26.324.499.469.714.487h.013v.001l.36.066h1.176v.547h-1.188c-1.542 0-2.642-.292-3.248-.92-.522-.5-.82-.964-.82-1.386v-.21c-.524.811-1.175 1.44-1.953 1.88-.911.516-1.988.772-3.227.772-1.442 0-2.592-.327-3.431-.996-.841-.67-1.354-1.67-1.55-2.983l10.161-4.575zm-18.038-15.188c.636-.974 1.667-1.73 3.098-1.796l-.299 23.094v.002c0 .209.065.434.184.672.556 1.112 1.883 1.634 3.884 1.634h1.188v-.548h-1.176l-.36-.065h0l-.013-.001c-.215-.018-.454-.163-.714-.487-.225-.33-.345-.805-.345-1.442V21.578l-.136-.003-2.071-.034-.138-.002v.004c-2.319.042-4.033.587-5.11 1.665-1.101 1.077-1.633 2.873-1.633 5.348v1.454h-.712v.824h.712v16.39h2.647v-16.39h2.676v-.824h-2.676v-1.454c0-2.32.339-3.956.993-4.937h.001zm10.523 19.73h0v-.002a5.843 5.843 0 01-.034-.596c0-.97.253-1.712.743-2.244.238-.258.623-.486 1.171-.674.547-.188 1.245-.333 2.097-.434a16.44 16.44 0 011.813-.1c.585 0 1.16.019 1.725.058v3.964c-.065.713-.552 1.482-1.51 2.306-.925.793-1.966 1.186-3.128 1.186-.87 0-1.531-.286-2.003-.848-.477-.568-.774-1.433-.874-2.616zm15.651-21.668v-.139h-2.647v25.683h2.647v-8.25l.763-.876 6.167 9.066.041.06h2.705l-.147-.216-7.222-10.615 5.45-6.153.204-.23h-.708l-.042.047-7.211 8.129V21.68zm22.702 24.2l-.052-.122-.124.047c-1.743.67-3.736 1.007-5.981 1.007-1.558 0-2.817-.633-3.785-1.91-.944-1.273-1.429-3.292-1.429-6.081 0-.607.029-1.193.088-1.76h12.107v-.138 0-.002 0-.002 0-.002 0-.002 0-.002 0-.002 0-.002 0-.002 0-.002 0-.002 0-.002 0-.002 0-.001 0-.002 0-.002 0-.002 0-.002 0-.002 0-.002 0-.002 0-.002 0-.002 0-.002 0-.002 0-.002 0-.002 0-.002 0-.002 0-.002 0-.002 0-.002 0-.002 0-.002 0-.002 0-.001 0-.002 0-.002 0-.002 0-.002 0-.002 0-.002 0-.002 0-.002 0-.002 0-.002 0-.002 0-.002 0-.002 0-.002 0-.002 0-.002 0-.002 0-.002 0-.002 0-.002 0-.002 0-.001 0-.002 0-.002 0-.002 0-.002 0-.002 0-.002 0-.002 0-.002 0-.002 0-.002 0-.002 0-.002 0-.002 0-.002 0-.002 0-.002 0-.002 0-.002 0-.002 0-.002 0-.002 0-.002 0-.001 0-.002 0-.002 0-.002 0-.002 0-.002 0-.002 0-.002 0-.002 0-.002 0-.002 0-.002 0-.002 0-.002 0-.002 0-.002 0-.002 0-.002 0-.002 0-.002 0-.002 0-.002 0-.001 0-.002 0-.002 0-.002 0-.002 0-.002 0-.002 0-.002 0-.002 0-.002 0-.002 0-.002 0-.002 0-.002 0-.002 0-.002 0-.002 0-.002 0-.002 0-.002 0-.002 0-.002 0-.002 0-.001 0-.002 0-.002 0-.002 0-.002 0-.002 0-.002 0-.002 0-.002 0-.002 0-.002 0-.002 0-.002 0-.002 0-.002 0-.002 0-.002 0-.002 0-.002 0-.002 0-.002 0-.002 0-.001 0-.002 0-.002 0-.002 0-.002 0-.002 0-.002 0-.002 0-.002 0-.002 0-.002 0-.002 0-.002 0-.002 0-.002 0-.002 0-.002 0-.002 0-.002 0-.002 0-.002 0-.002 0-.001 0-.002 0-.002 0-.002 0-.002 0c0-2.196-.641-3.876-1.944-5.016-1.292-1.131-2.884-1.694-4.766-1.694-2.338 0-4.272.792-5.791 2.38-1.522 1.591-2.274 3.82-2.274 6.667 0 2.844.717 4.976 2.177 6.367 1.453 1.383 3.329 2.07 5.617 2.07 2.295 0 4.357-.352 6.182-1.059l.133-.051-.056-.132-.102-.237zm-2.98-13.953c.769.983 1.184 2.504 1.222 4.587h-9.456c.28-1.893.896-3.371 1.841-4.444.995-1.106 2.111-1.648 3.352-1.648 1.243 0 2.254.5 3.041 1.505z" fill="#AA9088" stroke="#AA9088" stroke-width=".276"/><path d="M188.892 21.324v.895h-1.017v2.723h-.966v-2.723h-1.018v-.895h3.001zm3.966-.054v3.688h-.966v-1.79l-.708.841h-.289l-.707-.84v1.79h-.966V21.27h.341l1.477 1.573 1.477-1.573h.341z" fill="#AA9088"/><path fill-rule="evenodd" clip-rule="evenodd" d="M33.232 41.193l-.015 11.632 2.459.003.014-11.686 4.486 10.79 2.27-.943-4.454-10.716 8.196 8.216 1.74-1.736-8.23-8.252 10.764 4.467.943-2.27-10.766-4.469h11.656V33.77H40.666l10.749-4.439-.939-2.272-10.702 4.42 8.23-8.145-1.73-1.748-8.332 8.246 4.49-10.829-2.272-.941-4.454 10.743.015-11.63-2.459-.003-.015 11.687-4.486-10.792-2.27.944 4.454 10.715-8.195-8.216-1.74 1.737 8.23 8.252-10.765-4.468-.942 2.271 10.766 4.468H16.642v2.46h11.63l-10.749 4.439.939 2.272 10.701-4.42-8.229 8.145 1.73 1.748 8.331-8.246-4.49 10.828 2.272.942 4.455-10.745z" fill="#AA9088"/></svg>