<svg width="178" height="68" fill="none" xmlns="http://www.w3.org/2000/svg"><path d="M19.673 38.87l9.842-4.38 5.665 3.285 1.145 10.778-6.981-.057 1.03-7.493-1.202-.692-5.894 4.611-3.605-6.052zm16.137-1.557l8.698 6.398 3.433-6.167-6.981-2.824v-1.383l6.98-2.882-3.432-6.11-8.698 6.398v6.57zm-.63-7.089l1.145-10.778-6.981.116 1.03 7.492-1.202.692-5.95-4.61-3.549 5.993 9.842 4.38 5.665-3.285zm36.05 2.484v10.098h3.757V29.937h-5.47v2.771h1.714zm-.117-4.578c.344.36.869.54 1.573.54.705 0 1.221-.18 1.55-.54.344-.377.517-.846.517-1.41 0-.58-.172-1.049-.517-1.409-.329-.375-.845-.563-1.55-.563-.704 0-1.229.188-1.573.563-.329.36-.493.83-.493 1.41 0 .563.164 1.032.493 1.408zM58.151 42.524c1.064.485 2.372.728 3.921.728 1.456 0 2.709-.227 3.757-.681 1.05-.454 1.856-1.088 2.42-1.902.579-.83.868-1.793.868-2.889 0-1.064-.274-1.964-.822-2.7-.532-.752-1.275-1.339-2.23-1.761-.955-.439-2.06-.713-3.312-.822l-1.315-.118c-.782-.062-1.346-.273-1.69-.634a1.776 1.776 0 01-.517-1.268c0-.375.094-.72.282-1.033a1.94 1.94 0 01.845-.775c.392-.188.87-.282 1.433-.282.594 0 1.088.11 1.479.33.086.046.168.095.245.148l.018.013.085.06c.238.183.427.398.568.647.203.344.305.728.305 1.15h3.757c0-1.127-.258-2.105-.775-2.935-.516-.845-1.26-1.495-2.23-1.949-.956-.47-2.106-.704-3.452-.704-1.284 0-2.396.219-3.335.657-.94.423-1.675 1.034-2.207 1.832-.517.798-.775 1.745-.775 2.841 0 1.519.509 2.74 1.526 3.664 1.018.923 2.38 1.456 4.086 1.596l1.292.118c1.048.094 1.808.305 2.277.634.47.313.705.743.705 1.291a1.947 1.947 0 01-.376 1.174c-.25.33-.618.587-1.103.775-.486.188-1.088.282-1.809.282-.798 0-1.448-.11-1.949-.329-.5-.235-.876-.54-1.127-.915a2.262 2.262 0 01-.352-1.222H54.91c0 1.112.274 2.098.822 2.96.548.845 1.355 1.518 2.419 2.019zm25.219.446c-1.299 0-2.348-.157-3.146-.47-.799-.328-1.386-.868-1.761-1.62-.36-.767-.54-1.8-.54-3.1v-5.095h-1.95v-2.748h1.95v-3.475h3.498v3.475h3.758v2.748H81.42v5.236c0 .61.157 1.08.47 1.41.329.312.79.469 1.386.469h1.902v3.17H83.37z" fill="#AA9088"/><path fill-rule="evenodd" clip-rule="evenodd" d="M89.703 42.688c.845.376 1.815.564 2.911.564 1.08 0 2.035-.188 2.865-.564a5.6 5.6 0 002.067-1.573 5.423 5.423 0 001.103-2.301h-3.452c-.156.39-.454.72-.892.986s-1.002.4-1.69.4c-.427 0-.809-.051-1.145-.152a2.553 2.553 0 01-.688-.319 2.714 2.714 0 01-1.033-1.315 4.498 4.498 0 01-.156-.503 5.299 5.299 0 01-.108-.553h9.399V36.09c0-1.175-.25-2.255-.752-3.24a6.02 6.02 0 00-2.183-2.42c-.94-.626-2.098-.939-3.476-.939-1.049 0-1.988.188-2.818.564a5.775 5.775 0 00-2.043 1.479 6.847 6.847 0 00-1.268 2.137 7.224 7.224 0 00-.422 2.465v.47c0 .83.14 1.644.422 2.442.298.783.72 1.495 1.269 2.137a6.217 6.217 0 002.09 1.503zm-.154-7.652a3.996 3.996 0 01.147-.529c.024-.069.05-.136.077-.202.235-.58.58-1.018 1.033-1.315a2.52 2.52 0 01.551-.271 3.353 3.353 0 011.116-.175c.642 0 1.174.149 1.597.446.438.282.767.697.986 1.244a3.993 3.993 0 01.211.712c.019.09.035.18.049.275h-5.803a5.23 5.23 0 01.036-.185z" fill="#AA9088"/><path d="M100.434 42.806V29.937h2.983v3.241a7.11 7.11 0 01.281-.986c.329-.877.822-1.535 1.48-1.973.657-.454 1.463-.68 2.419-.68h.164c.97 0 1.777.226 2.419.68.657.438 1.15 1.096 1.479 1.972l.026.067.022.06.046-.127c.344-.876.845-1.534 1.503-1.972.657-.454 1.464-.68 2.419-.68h.164c.97 0 1.784.226 2.442.68.673.438 1.182 1.096 1.526 1.972.345.877.517 1.973.517 3.288v7.327h-3.757v-7.538c0-.705-.188-1.276-.564-1.714-.36-.439-.876-.658-1.549-.658-.674 0-1.206.227-1.597.681-.392.438-.588 1.025-.588 1.761v7.468h-3.78v-7.538c0-.705-.188-1.276-.564-1.714-.36-.439-.869-.658-1.526-.658-.689 0-1.229.227-1.62.681-.392.438-.588 1.025-.588 1.761v7.468h-3.757z" fill="#AA9088"/><path fill-rule="evenodd" clip-rule="evenodd" d="M130.36 40.326v2.48h2.983v-7.89c0-1.19-.235-2.16-.705-2.912-.47-.767-1.158-1.339-2.066-1.715-.893-.375-1.996-.563-3.311-.563a44 44 0 00-1.456.023 48.76 48.76 0 00-1.503.07l-.371.026a59.678 59.678 0 00-.897.069v3.17a131.361 131.361 0 012.115-.118 66.929 66.929 0 012.605-.07c.689 0 1.19.164 1.503.493.313.329.469.822.469 1.48v.047h-2.324c-1.143 0-2.153.148-3.03.446-.876.281-1.557.728-2.043 1.338-.485.595-.727 1.362-.727 2.301 0 .861.195 1.605.586 2.231.392.61.932 1.08 1.621 1.41.704.328 1.518.492 2.442.492.892 0 1.644-.164 2.254-.493a3.5 3.5 0 001.456-1.409c.061-.102.117-.21.17-.32.074-.157.141-.322.2-.495l.029-.09zm-.634-2.287v-1.034h-2.348c-.658 0-1.166.165-1.526.494-.345.313-.517.743-.517 1.291 0 .258.043.492.129.704.086.211.215.4.388.564.36.313.868.47 1.526.47a3.471 3.471 0 00.641-.061 2.5 2.5 0 00.486-.15 1.9 1.9 0 00.845-.776c.22-.36.345-.86.376-1.502z" fill="#AA9088"/><path d="M135.591 42.806V29.937h2.982v4.248c.143-1.213.503-2.19 1.081-2.933.782-.986 1.909-1.48 3.381-1.48h.493v3.241h-.939c-1.033 0-1.832.282-2.395.846-.564.548-.846 1.346-.846 2.395v6.552h-3.757zm12.702-6.012h1.244l4.063 6.012h4.227l-5.152-7.383 4.236-5.486h-3.945l-4.673 6.119V25.663h-3.757v17.143h3.757v-6.012z" fill="#AA9088"/></svg>