<svg width="171" height="58" fill="none" xmlns="http://www.w3.org/2000/svg"><path d="M52.494 39.596l1.624-.406V21.87l-1.624-.406v-.406h7.308c2.742 0 4.754.442 6.035 1.326 1.3.866 1.95 2.003 1.95 3.41 0 .974-.28 1.76-.84 2.355-.56.595-1.272 1.037-2.138 1.326a9.364 9.364 0 01-2.977.514v.136c1.317.054 2.463.252 3.437.595.992.325 1.813.83 2.463 1.516.668.685 1.001 1.56 1.001 2.625 0 1.606-.658 2.869-1.975 3.789-1.318.902-3.456 1.353-6.415 1.353h-7.849v-.406zm7.308-9.878c.595 0 1.146-.163 1.65-.488a3.63 3.63 0 001.246-1.407 4.27 4.27 0 00.487-2.03c0-.794-.162-1.498-.487-2.111-.307-.613-.722-1.092-1.245-1.434a2.88 2.88 0 00-1.651-.515h-1.218v7.985h1.218zm.541 9.608c1.119 0 2.03-.397 2.734-1.191.703-.794 1.055-1.886 1.055-3.275 0-1.39-.352-2.481-1.055-3.275-.704-.794-1.615-1.19-2.734-1.19h-1.76v8.93h1.76zm8.923.27l1.624-.406V21.87l-1.624-.406v-.406h3.519c1.624 0 2.436.812 2.436 2.436V39.19l1.623.406v.406h-7.578v-.406zm15.017.812c-2.237 0-3.996-.631-5.278-1.894-1.263-1.281-1.894-3.04-1.894-5.278 0-2.237.631-3.988 1.894-5.25 1.282-1.282 3.04-1.922 5.278-1.922 2.237 0 3.988.64 5.25 1.921 1.282 1.263 1.922 3.014 1.922 5.251 0 2.237-.64 3.997-1.921 5.278-1.263 1.263-3.014 1.894-5.25 1.894zm0-.541c.722 0 1.326-.505 1.814-1.516.505-1.01.757-2.715.757-5.115 0-2.4-.252-4.105-.757-5.115-.488-1.01-1.092-1.516-1.814-1.516s-1.335.505-1.84 1.516c-.487 1.01-.731 2.715-.731 5.115 0 2.4.243 4.105.73 5.115.506 1.01 1.12 1.516 1.841 1.516zm14.354.541c-1.118 0-2.12-.243-3.004-.73a4.543 4.543 0 01-1.056-.758 3.501 3.501 0 01-.947.92 3.839 3.839 0 01-.541.298h-.677v-4.602h1.083a7.64 7.64 0 001.028 2.112c.957 1.389 2.148 2.084 3.573 2.084.758 0 1.326-.18 1.705-.542.397-.379.595-.92.595-1.624 0-.595-.27-1.091-.811-1.488-.524-.415-1.354-.92-2.49-1.516a31.247 31.247 0 01-2.382-1.299 6.249 6.249 0 01-1.543-1.461c-.415-.596-.623-1.29-.623-2.084 0-1.083.46-1.958 1.38-2.626.94-.685 2.374-1.028 4.304-1.028a4.92 4.92 0 012.653.758c.397.234.739.478 1.028.73.235-.325.55-.631.947-.92.307-.18.488-.28.542-.298h.676v4.601h-1.082a9.719 9.719 0 00-1.002-2.084c-.902-1.407-1.975-2.11-3.22-2.11-.488 0-.903.18-1.245.54-.343.361-.515.813-.515 1.354 0 .685.289 1.263.866 1.732.578.451 1.453.974 2.626 1.57.956.487 1.714.92 2.273 1.299.578.36 1.065.812 1.462 1.353.415.541.622 1.173.622 1.895 0 2.616-2.075 3.924-6.225 3.924zm13.263 0c-1.119 0-2.12-.243-3.004-.73a4.555 4.555 0 01-1.056-.758 3.49 3.49 0 01-.947.92 3.84 3.84 0 01-.541.298h-.677v-4.602h1.083a7.625 7.625 0 001.028 2.112c.957 1.389 2.147 2.084 3.573 2.084.758 0 1.326-.18 1.705-.542.397-.379.595-.92.595-1.624 0-.595-.27-1.091-.812-1.488-.523-.415-1.353-.92-2.49-1.516a31.19 31.19 0 01-2.381-1.299 6.238 6.238 0 01-1.543-1.461c-.415-.596-.622-1.29-.622-2.084 0-1.083.46-1.958 1.38-2.626.938-.685 2.373-1.028 4.303-1.028.956 0 1.841.252 2.653.758.397.234.739.478 1.028.73.235-.325.55-.631.947-.92.307-.18.487-.28.542-.298h.676v4.601h-1.082a9.719 9.719 0 00-1.002-2.084c-.902-1.407-1.976-2.11-3.221-2.11-.487 0-.902.18-1.245.54-.342.361-.514.813-.514 1.354 0 .685.289 1.263.866 1.732.578.451 1.453.974 2.626 1.57.956.487 1.714.92 2.273 1.299.578.36 1.065.812 1.462 1.353.415.541.622 1.173.622 1.895 0 2.616-2.075 3.924-6.225 3.924zm14.075 0c-2.237 0-3.997-.631-5.278-1.894-1.263-1.281-1.894-3.04-1.894-5.278 0-2.237.631-3.988 1.894-5.25 1.281-1.282 3.041-1.922 5.278-1.922 2.237 0 3.988.64 5.251 1.921 1.281 1.263 1.921 3.014 1.921 5.251 0 2.237-.64 3.997-1.921 5.278-1.263 1.263-3.014 1.894-5.251 1.894zm0-.541c.722 0 1.326-.505 1.813-1.516.506-1.01.758-2.715.758-5.115 0-2.4-.252-4.105-.758-5.115-.487-1.01-1.091-1.516-1.813-1.516s-1.335.505-1.84 1.516c-.488 1.01-.731 2.715-.731 5.115 0 2.4.243 4.105.731 5.115.505 1.01 1.118 1.516 1.84 1.516zm7.994-.271l1.624-.406V27.282l-1.624-.406v-.406h2.436c1.064 0 1.903.343 2.517 1.028.234.27.433.605.595 1.002.271-.506.56-.912.866-1.218.812-.812 1.741-1.218 2.788-1.218 1.047 0 1.967.234 2.761.703a4.696 4.696 0 011.84 1.868c.271-.523.559-.947.866-1.272.83-.866 1.759-1.3 2.788-1.3.956 0 1.813.2 2.571.596.776.397 1.371.938 1.786 1.624.433.686.65 1.434.65 2.246v8.661l1.624.406v.406h-3.519c-1.624 0-2.435-.812-2.435-2.436V30.53c0-1.172-.181-2.047-.542-2.625-.361-.595-.767-.893-1.218-.893-.523 0-1.055.36-1.597 1.083a7.725 7.725 0 00-.568 1.082V39.19l1.624.406v.406h-7.578v-.406l1.624-.406v-8.66c0-1.173-.181-2.049-.542-2.626-.361-.595-.767-.893-1.218-.893-.523 0-1.055.36-1.596 1.083a7.73 7.73 0 00-.569 1.082V39.19l1.624.406v.406h-7.578v-.406z" fill="#AA9088"/><path fill-rule="evenodd" clip-rule="evenodd" d="M30.464 45.17a2 2 0 01-.539.032c-5.67-.43-11.035-3.561-14.093-8.857-3.057-5.296-3.086-11.509-.624-16.634a2 2 0 011.956-1.129c2.112.16 4.183.696 6.108 1.579a18.917 18.917 0 016.22-7.021 2.014 2.014 0 012.26 0 18.92 18.92 0 016.161 6.906 17.91 17.91 0 015.852-1.464 2 2 0 011.956 1.13c2.462 5.124 2.433 11.337-.625 16.633-3.057 5.296-8.423 8.427-14.092 8.857a2 2 0 01-.54-.032zm4.154-3.21a15.277 15.277 0 008.338-6.85c2.574-4.46 2.658-9.673.674-14.036a15.45 15.45 0 00-4.72 1.233 18.794 18.794 0 011.127 6.435 18.77 18.77 0 01-5.419 13.218zm1.107-20.765a16.436 16.436 0 00-5.103-5.833 16.433 16.433 0 00-5.18 5.983 17.698 17.698 0 015.022 4.843 17.699 17.699 0 015.261-4.993zm-3.86 7.39a15.272 15.272 0 014.843-5.087 16.36 16.36 0 01.858 5.244c0 4.234-1.607 8.093-4.25 11a17.736 17.736 0 00-1.451-11.157zm-2.8 0a15.275 15.275 0 00-4.585-4.914 16.348 16.348 0 00-.801 5.071 16.29 16.29 0 003.851 10.545 17.73 17.73 0 011.534-10.702zm1.4 12.365a15.33 15.33 0 000-9.22 15.318 15.318 0 000 9.22zm-12.492-5.84a15.282 15.282 0 008.803 7 18.772 18.772 0 01-5.569-13.368c0-2.214.383-4.339 1.084-6.312a15.435 15.435 0 00-4.992-1.356c-1.984 4.363-1.9 9.577.674 14.035z" fill="#AA9088"/></svg>