<svg width="198" height="68" fill="none" xmlns="http://www.w3.org/2000/svg"><path d="M38.261 21.622H26.997v-3.52H38.26a7.04 7.04 0 017.04 7.04v11.265h-3.52V25.142a3.52 3.52 0 00-3.52-3.52zM25.589 41.335h11.264v3.52H25.59a7.04 7.04 0 01-7.04-7.04V26.55h3.52v11.265a3.52 3.52 0 003.52 3.52z" fill="#AA9088"/><path fill-rule="evenodd" clip-rule="evenodd" d="M38.965 31.478a7.04 7.04 0 11-14.08 0 7.04 7.04 0 0114.08 0zm-3.52 0a3.52 3.52 0 11-7.04 0 3.52 3.52 0 017.04 0z" fill="#AA9088"/><path d="M60.323 42.613c-1.333 0-2.533-.229-3.6-.686-1.066-.476-1.905-1.143-2.514-2-.61-.857-.914-1.857-.914-3h3.485c.076.857.41 1.562 1 2.114.61.553 1.457.829 2.543.829 1.124 0 2-.267 2.629-.8.628-.553.943-1.257.943-2.114 0-.667-.2-1.21-.6-1.629a3.763 3.763 0 00-1.458-.971c-.571-.229-1.371-.477-2.4-.743-1.295-.343-2.352-.686-3.171-1.029-.8-.362-1.486-.914-2.057-1.657-.572-.743-.857-1.733-.857-2.971 0-1.143.286-2.143.857-3 .571-.857 1.371-1.515 2.4-1.972 1.028-.457 2.219-.685 3.571-.685 1.924 0 3.495.485 4.714 1.457 1.239.952 1.924 2.266 2.058 3.942h-3.6c-.057-.723-.4-1.342-1.029-1.857-.629-.514-1.457-.771-2.486-.771-.933 0-1.695.238-2.285.714-.59.477-.886 1.162-.886 2.057 0 .61.181 1.115.543 1.515.38.38.857.685 1.428.914.572.229 1.353.476 2.343.743 1.315.362 2.381.724 3.2 1.085a5.177 5.177 0 012.114 1.686c.591.743.886 1.743.886 3a5.35 5.35 0 01-.828 2.857c-.534.895-1.324 1.62-2.372 2.172-1.028.533-2.247.8-3.657.8zm17.215-16.2c1.238 0 2.343.257 3.314.771.99.514 1.762 1.276 2.314 2.286.553 1.01.829 2.229.829 3.657v9.286h-3.229v-8.8c0-1.41-.352-2.486-1.057-3.229-.705-.762-1.666-1.143-2.886-1.143-1.219 0-2.19.381-2.914 1.143-.705.743-1.057 1.82-1.057 3.229v8.8h-3.257V26.67h3.257v1.8a5.415 5.415 0 012.029-1.514 6.631 6.631 0 012.657-.543zm8.097 8.057c0-1.581.324-2.981.972-4.2.666-1.22 1.561-2.162 2.685-2.829a7.193 7.193 0 013.772-1.028c1.238 0 2.314.247 3.228.743.934.476 1.676 1.076 2.229 1.8V26.67h3.285v15.743h-3.285V40.07c-.553.743-1.305 1.362-2.257 1.857-.953.495-2.038.743-3.257.743a6.994 6.994 0 01-3.715-1.029c-1.124-.704-2.019-1.676-2.685-2.914-.648-1.257-.972-2.676-.972-4.257zm12.886.057c0-1.086-.229-2.029-.686-2.829-.438-.8-1.019-1.409-1.743-1.828a4.597 4.597 0 00-2.343-.629c-.838 0-1.619.21-2.342.629-.724.4-1.315 1-1.772 1.8-.438.78-.657 1.714-.657 2.8 0 1.086.22 2.038.657 2.857.457.82 1.048 1.448 1.772 1.886a4.694 4.694 0 002.342.628c.839 0 1.62-.21 2.343-.628.724-.42 1.305-1.029 1.743-1.829.457-.819.686-1.771.686-2.857zm9.392-5.543c.553-.724 1.305-1.333 2.257-1.828.953-.496 2.029-.743 3.229-.743 1.371 0 2.619.343 3.743 1.028 1.142.667 2.038 1.61 2.685 2.829.648 1.219.972 2.619.972 4.2 0 1.58-.324 3-.972 4.257-.647 1.238-1.543 2.21-2.685 2.914-1.124.686-2.372 1.029-3.743 1.029-1.2 0-2.267-.238-3.2-.714-.934-.496-1.695-1.105-2.286-1.829v9.771h-3.257V26.67h3.257v2.314zm9.571 5.486c0-1.086-.228-2.02-.685-2.8-.438-.8-1.029-1.4-1.772-1.8a4.593 4.593 0 00-2.342-.629c-.82 0-1.6.21-2.343.629-.724.419-1.315 1.028-1.772 1.828-.438.8-.657 1.743-.657 2.829s.219 2.038.657 2.857c.457.8 1.048 1.41 1.772 1.829a4.698 4.698 0 002.343.628c.838 0 1.619-.21 2.342-.628.743-.438 1.334-1.067 1.772-1.886.457-.819.685-1.771.685-2.857zm11.65 8.143c-1.333 0-2.533-.229-3.6-.686-1.067-.476-1.905-1.143-2.514-2-.61-.857-.915-1.857-.915-3h3.486c.076.857.41 1.562 1 2.114.61.553 1.457.829 2.543.829 1.124 0 2-.267 2.628-.8.629-.553.943-1.257.943-2.114 0-.667-.2-1.21-.6-1.629a3.767 3.767 0 00-1.457-.971c-.571-.229-1.371-.477-2.4-.743-1.295-.343-2.352-.686-3.171-1.029-.8-.362-1.486-.914-2.057-1.657-.572-.743-.857-1.733-.857-2.971 0-1.143.285-2.143.857-3 .571-.857 1.371-1.515 2.4-1.972 1.028-.457 2.219-.685 3.571-.685 1.924 0 3.495.485 4.714 1.457 1.238.952 1.924 2.266 2.057 3.942h-3.6c-.057-.723-.4-1.342-1.028-1.857-.629-.514-1.457-.771-2.486-.771-.933 0-1.695.238-2.285.714-.591.477-.886 1.162-.886 2.057 0 .61.181 1.115.543 1.515.381.38.857.685 1.428.914.572.229 1.353.476 2.343.743 1.314.362 2.381.724 3.2 1.085a5.174 5.174 0 012.114 1.686c.591.743.886 1.743.886 3 0 1.01-.276 1.962-.829 2.857-.533.895-1.323 1.62-2.371 2.172-1.029.533-2.248.8-3.657.8zm17.415-16.2c1.2 0 2.266.257 3.199.771.953.514 1.696 1.276 2.229 2.286.552 1.01.829 2.229.829 3.657v9.286h-3.229v-8.8c0-1.41-.352-2.486-1.057-3.229-.705-.762-1.667-1.143-2.886-1.143s-2.19.381-2.914 1.143c-.705.743-1.057 1.82-1.057 3.229v8.8h-3.257V21.27h3.257v7.229a5.475 5.475 0 012.086-1.543c.857-.362 1.79-.543 2.8-.543zM162.36 42.67c-1.485 0-2.828-.334-4.028-1a7.416 7.416 0 01-2.829-2.857c-.686-1.238-1.028-2.667-1.028-4.286 0-1.6.352-3.019 1.057-4.257a7.296 7.296 0 012.885-2.857c1.219-.667 2.581-1 4.086-1 1.505 0 2.867.333 4.086 1a7.296 7.296 0 012.885 2.857c.705 1.238 1.058 2.657 1.058 4.257 0 1.6-.362 3.02-1.086 4.257a7.59 7.59 0 01-2.972 2.886c-1.238.666-2.609 1-4.114 1zm0-2.829c.838 0 1.619-.2 2.343-.6.743-.4 1.343-1 1.8-1.8.457-.8.686-1.771.686-2.914 0-1.143-.219-2.105-.657-2.886-.438-.8-1.019-1.4-1.743-1.8-.724-.4-1.505-.6-2.343-.6-.838 0-1.619.2-2.343.6-.705.4-1.267 1-1.686 1.8-.419.781-.628 1.743-.628 2.886 0 1.695.428 3.01 1.286 3.943.876.914 1.971 1.371 3.285 1.371zm13.763-10.514v8.714c0 .59.133 1.02.4 1.286.286.248.762.371 1.428.371h2v2.715h-2.571c-1.467 0-2.591-.343-3.371-1.029-.781-.686-1.172-1.8-1.172-3.343v-8.714h-1.857V26.67h1.857v-3.914h3.286v3.914h3.828v2.657h-3.828z" fill="#AA9088"/></svg>