<svg width="186" height="76" fill="none" xmlns="http://www.w3.org/2000/svg"><path d="M84.234 26.757c.49.516 1.24.773 2.246.773 1.007 0 1.743-.257 2.21-.773.466-.54.7-1.203.7-1.989 0-.834-.234-1.51-.7-2.025-.466-.515-1.203-.773-2.21-.773-1.006 0-1.755.258-2.246.773-.467.516-.7 1.19-.7 2.026 0 .785.233 1.448.7 1.988zm-23.378 3.167l6.26 19.997h8.213l5.413-19.997h-4.934l-4.074 15.799h-.87l-4.742-15.799h-5.266zm40.178 20.623c-2.75 0-4.91-.577-6.482-1.73-1.546-1.18-2.356-2.8-2.43-4.862h4.603c.074.688.455 1.314 1.142 1.878.687.565 1.768.847 3.241.847 1.227 0 2.197-.22 2.909-.663.736-.442 1.105-1.043 1.105-1.804 0-.663-.283-1.19-.847-1.584-.54-.392-1.473-.65-2.799-.773l-1.768-.184c-2.234-.246-3.953-.884-5.156-1.915-1.203-1.031-1.804-2.406-1.804-4.125 0-1.374.344-2.528 1.031-3.461.688-.933 1.633-1.633 2.836-2.1 1.227-.49 2.627-.736 4.198-.736 2.455 0 4.444.54 5.966 1.62 1.522 1.08 2.32 2.664 2.394 4.751h-4.604c-.049-.687-.392-1.277-1.031-1.768-.638-.49-1.559-.736-2.762-.736-1.08 0-1.915.209-2.504.626-.59.417-.884.957-.884 1.62 0 .639.233 1.13.7 1.473.49.344 1.277.577 2.357.7l1.767.184c2.357.246 4.199.896 5.524 1.952 1.351 1.056 2.026 2.48 2.026 4.272 0 1.326-.368 2.48-1.105 3.461-.712.958-1.718 1.707-3.02 2.247-1.301.54-2.835.81-4.603.81zm11.705-23.79c.491.516 1.239.773 2.246.773s1.743-.257 2.21-.773c.466-.54.699-1.203.699-1.989 0-.834-.233-1.51-.699-2.025-.467-.515-1.203-.773-2.21-.773s-1.755.258-2.246.773c-.467.516-.7 1.19-.7 2.026 0 .785.233 1.448.7 1.988z" fill="#AA9088"/><path fill-rule="evenodd" clip-rule="evenodd" d="M131.896 50.62c-1.768 0-3.327-.282-4.677-.846-1.351-.565-2.492-1.326-3.425-2.284a10.365 10.365 0 01-2.136-3.314 10.681 10.681 0 01-.7-3.83v-.773c0-1.375.246-2.676.737-3.904a10.337 10.337 0 012.172-3.314c.958-.982 2.112-1.743 3.462-2.283 1.35-.565 2.872-.847 4.567-.847 1.694 0 3.216.282 4.566.847 1.35.54 2.492 1.3 3.425 2.283a9.601 9.601 0 012.173 3.314c.491 1.228.736 2.529.736 3.904v.773a10.22 10.22 0 01-.736 3.83 9.884 9.884 0 01-2.099 3.314c-.933.958-2.075 1.72-3.425 2.284-1.351.564-2.897.847-4.64.847zm0-4.382c1.252 0 2.307-.27 3.167-.81a5.408 5.408 0 001.951-2.246c.442-.958.663-2.038.663-3.24 0-1.228-.233-2.309-.699-3.242a5.053 5.053 0 00-1.989-2.246c-.859-.565-1.89-.847-3.093-.847s-2.247.282-3.131.847c-.859.54-1.522 1.289-1.988 2.246-.467.933-.7 2.014-.7 3.241 0 1.203.221 2.283.663 3.24a5.671 5.671 0 001.988 2.247c.86.54 1.915.81 3.168.81z" fill="#AA9088"/><path d="M149.93 33.423a9.82 9.82 0 00-.442 1.429v-4.928h-4.051v19.997h5.119V38.173c0-1.3.38-2.332 1.142-3.093.785-.786 1.804-1.178 3.056-1.178 1.228 0 2.185.38 2.873 1.141.712.761 1.068 1.755 1.068 2.983v11.895h5.118V38.468c0-3.044-.613-5.328-1.841-6.85-1.227-1.546-3.032-2.32-5.413-2.32h-.221c-1.596 0-2.934.344-4.014 1.031-1.056.688-1.854 1.719-2.394 3.094zm-65.328.331v16.167h5.12V29.924h-7.919v3.83h2.8zm28.505 0v16.167h5.119V29.924h-7.918v3.83h2.799z" fill="#AA9088"/><mask id="a" fill="#fff"><path fill-rule="evenodd" clip-rule="evenodd" d="M38.717 54.03c8.854 0 16.03-7.176 16.03-16.03 0-8.853-7.176-16.03-16.03-16.03-8.853 0-16.03 7.177-16.03 16.03 0 8.854 7.177 16.03 16.03 16.03zm11.797-17.693c-1.494 1.748-3.6 2.836-5.933 2.836-4.534 0-8.21-4.114-8.21-9.188 0-1.277.232-2.492.653-3.597-5.682.863-10.037 5.769-10.037 11.692 0 1.729.371 3.37 1.037 4.85.676-.629 1.626-1.02 2.678-1.02 2.051 0 3.714 1.488 3.714 3.324 0 1.232-.75 2.308-1.864 2.882a11.773 11.773 0 006.263 1.792c6.532 0 11.827-5.296 11.827-11.828 0-.592-.044-1.174-.128-1.743z"/></mask><path fill-rule="evenodd" clip-rule="evenodd" d="M38.717 54.03c8.854 0 16.03-7.176 16.03-16.03 0-8.853-7.176-16.03-16.03-16.03-8.853 0-16.03 7.177-16.03 16.03 0 8.854 7.177 16.03 16.03 16.03zm11.797-17.693c-1.494 1.748-3.6 2.836-5.933 2.836-4.534 0-8.21-4.114-8.21-9.188 0-1.277.232-2.492.653-3.597-5.682.863-10.037 5.769-10.037 11.692 0 1.729.371 3.37 1.037 4.85.676-.629 1.626-1.02 2.678-1.02 2.051 0 3.714 1.488 3.714 3.324 0 1.232-.75 2.308-1.864 2.882a11.773 11.773 0 006.263 1.792c6.532 0 11.827-5.296 11.827-11.828 0-.592-.044-1.174-.128-1.743z" fill="#AA9088"/><path d="M50.514 36.337l1.16-.172-.376-2.55-1.675 1.96.891.762zm-13.49-9.95l1.096.418.715-1.879-1.987.302.176 1.16zm-9 16.543l-1.07.482.672 1.49 1.197-1.113-.799-.859zm4.528 5.186l-.537-1.043-1.832.944 1.747 1.093.622-.994zM53.575 38c0 8.206-6.652 14.858-14.858 14.858v2.346C48.218 55.204 55.92 47.5 55.92 38h-2.345zM38.717 23.143c8.206 0 14.858 6.652 14.858 14.857h2.345c0-9.501-7.702-17.203-17.203-17.203v2.346zM23.86 38c0-8.205 6.651-14.857 14.857-14.857v-2.346c-9.501 0-17.203 7.702-17.203 17.203h2.346zm14.857 14.858c-8.206 0-14.857-6.652-14.857-14.858h-2.346c0 9.502 7.702 17.204 17.203 17.204v-2.346zm5.864-12.512c2.714 0 5.133-1.269 6.825-3.247l-1.783-1.525C48.325 37.092 46.533 38 44.582 38v2.346zm-9.383-10.361c0 5.595 4.08 10.361 9.383 10.361V38c-3.766 0-7.037-3.46-7.037-8.015h-2.346zm.73-4.015a11.28 11.28 0 00-.73 4.015h2.346a8.93 8.93 0 01.576-3.18l-2.192-.835zM28.16 38.08c0-5.334 3.922-9.755 9.04-10.533l-.352-2.319c-6.247.949-11.034 6.34-11.034 12.852h2.346zm.934 4.369c-.6-1.332-.934-2.81-.934-4.369h-2.346c0 1.898.408 3.703 1.14 5.332l2.14-.963zm1.608-1.712c-1.343 0-2.58.5-3.477 1.334l1.598 1.718c.454-.423 1.117-.706 1.879-.706v-2.346zm4.887 4.497c0-2.603-2.314-4.497-4.887-4.497v2.346c1.53 0 2.541 1.082 2.541 2.15h2.346zm-2.5 3.924c1.444-.743 2.5-2.189 2.5-3.924h-2.346c0 .729-.444 1.435-1.228 1.84l1.075 2.084zm5.726-.423a10.6 10.6 0 01-5.64-1.614l-1.244 1.99a12.946 12.946 0 006.884 1.97v-2.346zM49.469 38.08c0 5.885-4.77 10.655-10.654 10.655v2.346c7.18 0 13-5.82 13-13h-2.346zm-.115-1.572c.076.513.115 1.038.115 1.572h2.346c0-.65-.048-1.29-.14-1.915l-2.32.343z" fill="#AA9088" mask="url(#a)"/></svg>