<svg width="176" height="42" fill="none" xmlns="http://www.w3.org/2000/svg"><path d="M21.604.015L.619 25.197h18.886l-2.098 16.788 20.985-25.182H19.505L21.604.015zM68.4 18.01v7.769H57.195v10.64h-8.803V4.875h22.362v7.769H57.195v5.367H68.4zM83.033 4.875V36.42h-8.098V4.875h8.098zm13.361 6.827c1.255 0 2.48.283 3.672.847 1.224.534 2.228 1.225 3.013 2.072v-2.213h8.098v24.01h-8.098v-4.001c-.596 1.318-1.507 2.432-2.731 3.343-1.224.91-2.699 1.365-4.425 1.365a9.877 9.877 0 01-5.038-1.365c-1.569-.91-2.856-2.307-3.86-4.19-.973-1.915-1.46-4.316-1.46-7.204 0-2.699.487-4.99 1.46-6.873 1.004-1.883 2.322-3.311 3.955-4.284a10.287 10.287 0 015.414-1.507zm1.695 7.91c-1.162 0-2.135.47-2.92 1.412-.753.941-1.13 2.055-1.13 3.342s.393 2.37 1.178 3.249c.784.879 1.82 1.318 3.107 1.318.69 0 1.397-.173 2.119-.518.721-.377 1.333-.926 1.836-1.648.533-.753.8-1.71.8-2.872V21.59a9.778 9.778 0 00-2.354-1.413 6.425 6.425 0 00-2.636-.565zm25.648-7.91c1.57 0 3.013.235 4.332.706 1.349.44 2.432 1.052 3.248 1.836V20.6a20.802 20.802 0 00-2.778-1.412 7.979 7.979 0 00-3.342-.707c-.754 0-1.428.157-2.025.471-.565.283-.847.738-.847 1.365 0 .44.173.77.518.99.345.219 1.02.454 2.024.705l1.46.377c4.174 1.067 6.261 3.311 6.261 6.732 0 1.57-.471 2.966-1.412 4.19-.91 1.193-2.119 2.135-3.625 2.825-1.475.66-3.076.989-4.802.989-1.789 0-3.453-.251-4.991-.754-1.538-.533-2.856-1.177-3.954-1.93v-6.308c1.129.69 2.401 1.27 3.813 1.742 1.444.47 2.731.706 3.861.706.91 0 1.569-.11 1.977-.33.439-.22.659-.612.659-1.177 0-.44-.251-.769-.753-.989-.503-.25-1.224-.533-2.166-.847l-2.401-.753c-1.758-.534-3.044-1.365-3.861-2.495-.816-1.162-1.224-2.574-1.224-4.237 0-1.664.44-3.092 1.319-4.285.878-1.192 2.071-2.118 3.578-2.777 1.538-.66 3.248-.989 5.131-.989zm25.555 0c2.448 0 4.441.832 5.979 2.495 1.569 1.664 2.354 4.128 2.354 7.392v14.83h-8.098l-.047-13.56c0-1.192-.329-2.024-.988-2.494a3.564 3.564 0 00-2.213-.754c-.879 0-1.617.236-2.213.706a6.844 6.844 0 00-1.553 1.601v14.5h-8.098V4.876h8.098v10.64a11.663 11.663 0 012.73-2.683c1.099-.753 2.448-1.13 4.049-1.13zm21.889 7.295v1.001h-1.205v3.048h-1.145v-3.048h-1.206v-1.001h3.556zm4.7-.061v4.128h-1.144v-2.003l-.839.94h-.343l-.838-.94v2.003h-1.145v-4.128h.404l1.751 1.76 1.75-1.76h.404z" fill="#AA9188"/></svg>