<svg width="100" height="100" fill="none" xmlns="http://www.w3.org/2000/svg"><path d="M67.188 32.813h25v26.562h-25V32.812zm-37.5-25h15.625v20.312H29.687V7.812zm21.875 59.374h40.624V75H51.563v-7.813z" fill="#DDB06F"/><path d="M78.772 1.563H10.937v18.75H9.376c-4.308 0-7.813 3.504-7.813 7.812V56.25c0 4.308 3.505 7.813 7.813 7.813h1.563v34.374h87.5V21.228L78.772 1.562zm-55.335 62.5v31.25h-3.125v-31.25h3.125zm3.125 0H56.25c4.308 0 7.813-3.505 7.813-7.813V40.625c0-4.308-3.505-7.813-7.813-7.813H26.562V4.689h50v18.75h18.75v56.33c-4.717.379-8.118 2.407-11.404 4.391-3.992 2.41-8.12 4.903-15.158 4.903-7.797 0-13.583-1.976-18.686-3.72-3.973-1.358-7.406-2.53-11.002-2.53-5.259 0-9.79 2.543-12.5 4.5v-23.25zm-6.25-31.25V4.686h3.125v28.125h-3.125zm59.376-12.5V6.896l13.415 13.415H79.688zm-62.5-15.625v28.125h-3.125V4.686h3.124zm-7.813 18.75h1.563v9.375H9.374a4.693 4.693 0 01-4.688-4.688 4.693 4.693 0 014.688-4.688zM4.687 56.25V34.372a7.77 7.77 0 004.688 1.566H56.25a4.693 4.693 0 014.688 4.687V56.25a4.693 4.693 0 01-4.688 4.688H9.375a4.693 4.693 0 01-4.688-4.688zm9.375 7.813h3.126v31.25h-3.125v-31.25zm12.5 31.25V91.31c1.496-1.32 6.566-5.374 12.5-5.374 3.077 0 6.282 1.094 9.991 2.363 5.07 1.731 11.38 3.888 19.697 3.888 7.908 0 12.617-2.844 16.773-5.354 3.161-1.909 5.946-3.58 9.79-3.943v12.421h-68.75z" fill="#473E37"/><path d="M17.188 39.063h-6.25v18.75h3.124v-6.25h3.126a6.256 6.256 0 006.25-6.25 6.256 6.256 0 00-6.25-6.25zm0 9.374h-3.125v-6.25h3.124a3.128 3.128 0 013.125 3.126 3.128 3.128 0 01-3.125 3.124zm15.625-9.374h-6.25v18.75h6.25c5.17 0 9.374-4.205 9.374-9.376 0-5.17-4.204-9.374-9.374-9.374zm0 15.624h-3.126v-12.5h3.125a6.256 6.256 0 016.25 6.25 6.256 6.256 0 01-6.25 6.25zm12.5 3.126h3.124v-6.25h6.25v-3.126h-6.25v-6.25h6.25v-3.124h-9.374v18.75zm3.124 9.374h-18.75v12.5h18.75v-12.5zm-3.124 9.376h-12.5v-6.25h12.5v6.25zm6.25-9.376h3.124v3.126h-3.124v-3.126zm6.25 0h34.374v3.126H57.813v-3.126zm-6.25 6.25h40.624v3.126H51.563v-3.126zm12.5 6.25h3.124v3.126h-3.124v-3.126zm-6.25 0h3.124v3.126h-3.124v-3.126zm-6.25 0h3.124v3.126h-3.124v-3.126zM73.436 7.814h-25v21.875h25V7.813zm-3.124 18.75h-18.75V10.938h18.75v15.624zM29.687 7.813h3.125v3.125h-3.124V7.812zm6.25 0h9.376v3.125h-9.376V7.812zm-6.25 6.25h15.625v3.124H29.688v-3.125zm0 6.25h15.625v3.125H29.688v-3.125zm0 6.25h15.625v3.125H29.688v-3.125zm37.5 6.25h3.126v3.124h-3.126v-3.124zm6.25 0h18.75v3.124h-18.75v-3.124zm-6.25 6.25h25v3.124h-25v-3.124zm0 6.25h25v3.124h-25v-3.124zm0 6.25h25v3.124h-25v-3.124zm0 6.25h25v3.124h-25v-3.124zm21.876-31.25h3.124v3.125h-3.124v-3.125zm-12.5 0h3.124v3.125h-3.124v-3.125zm6.25 0h3.124v3.125h-3.124v-3.125z" fill="#473E37"/></svg>