<svg width="506" height="506" fill="none" xmlns="http://www.w3.org/2000/svg"><mask id="a" style="mask-type:alpha" maskUnits="userSpaceOnUse" x="0" y="0" width="506" height="506"><circle cx="253" cy="253" r="248" fill="#C4C4C4" stroke="#DDB06F" stroke-width="10"/></mask><g mask="url(#a)" stroke="#DDB06F" stroke-width="10" stroke-miterlimit="10"><path d="M-67.713 122.313s104.812-19.416 131.854-87.37c25.863-65.14 132.399-82.65 132.399-82.65"/><path d="M-67.713 154.973S60.875 132.564 93.997 50.548c31.58-78.296 162.164-98.255 162.164-98.255"/><path d="M-67.713 187.725s152.272-25.494 191.475-121.39C161.149-25.388 315.781-47.707 315.781-47.707"/><path d="M-67.713 220.386s176.048-28.487 221.33-138.446C196.722-22.94 375.401-47.707 375.401-47.707"/><path d="M-67.713 253.048S132.11 221.566 183.473 97.635C232.294-20.49 434.931-47.707 434.931-47.707"/><path d="M-67.713 285.799s223.508-34.475 280.951-172.469C267.958-18.13 494.551-47.707 494.551-47.707"/><path d="M-67.713 318.46s247.284-37.56 310.806-189.434C303.53-15.681 554.172-47.707 554.172-47.707"/><path d="M-67.713 351.121s271.06-40.554 340.571-206.49C339.103-13.231 613.792-47.707 613.792-47.707"/><path d="M-67.713 383.874s294.744-43.549 370.426-223.457C374.676-10.873 673.322-47.707 673.322-47.707"/><path d="M-67.713 416.532s318.52-46.539 400.192-240.42C410.248-8.423 732.942-47.707 732.942-47.707"/><path d="M-67.713 449.284s342.295-49.625 430.047-257.476C445.821-5.974 792.562-47.707 792.562-47.707"/><path d="M-67.713 481.948s365.98-52.621 459.812-274.444C481.393-3.614 852.181-47.706 852.181-47.706"/><path d="M-67.713 514.605s389.755-55.611 489.667-291.497C516.966-1.165 911.801-47.707 911.801-47.707"/><path d="M-67.713 547.357s413.531-58.695 519.523-308.463c100.728-237.61 519.523-286.6 519.523-286.6"/><path d="M-67.713 580.021s437.216-61.692 549.288-325.522C588.111 3.643 1030.95-47.707 1030.95-47.707"/><path d="M-67.713 612.685s460.992-64.689 579.143-342.491c112.253-264.1 579.14-317.9 579.14-317.9"/><path d="M-67.713 645.437s484.767-67.685 608.908-359.547C659.256 8.543 1150.19-47.707 1150.19-47.707"/><path d="M-67.713 678.094s508.452-70.763 638.763-376.509C694.829 10.901 1209.73-47.707 1209.73-47.707"/></g></svg>