<svg width="114" height="114" fill="none" xmlns="http://www.w3.org/2000/svg"><path d="M103.017 62.294l6.547 3.65-.291 2.504-10.554-6.653 11.798-4.056-.289 2.488-7.211 2.067zm-5.096 6.923l1.734.606-1.77 5.06-1.734-.607 1.77-5.06zm8.299 2.902l1.734.606-1.769 5.06-1.734-.606 1.769-5.06zm-3.827-1.338l1.706.596-1.669 4.773-1.706-.596 1.669-4.773zm6.023.626l-.692 1.978-10.034-3.509.692-1.978 10.034 3.509zM99.087 80.2c-.595-.366-1.198-.553-1.811-.562-.61.005-1.17.153-1.682.444a3.547 3.547 0 00-1.233 1.22c-.266.431-.446.85-.541 1.254-.095.406-.13.8-.105 1.184.02.393.08.757.183 1.094l-2.082-1.282a5.236 5.236 0 01.063-1.638c.102-.532.357-1.13.766-1.793a6.362 6.362 0 011.523-1.72 5.32 5.32 0 011.917-.941 5.335 5.335 0 012.108-.093c.72.123 1.43.4 2.128.83.698.43 1.26.936 1.686 1.519.429.597.722 1.241.879 1.932.151.7.159 1.412.022 2.136a6.374 6.374 0 01-.85 2.133c-.409.664-.828 1.161-1.257 1.491a5.243 5.243 0 01-1.434.794l-2.082-1.282c.347-.06.7-.17 1.059-.33a4.03 4.03 0 001.01-.626c.319-.267.611-.616.877-1.047.318-.517.492-1.07.521-1.658a3.284 3.284 0 00-.347-1.694c-.275-.538-.715-.993-1.318-1.365zm-1.942 9.102l1.43 1.34-5.398 5.762-1.43-1.339 1.962-2.094-6.328-5.928 1.484-1.585 6.328 5.928 1.952-2.084zm-10.315 5.52c-.383-.56-.84-.977-1.37-1.252a3.221 3.221 0 00-1.669-.368c-.58.03-1.142.23-1.686.601-.543.371-.934.822-1.172 1.353a3.112 3.112 0 00-.25 1.68c.063.594.286 1.171.67 1.731.382.56.835.98 1.357 1.26a3.11 3.11 0 001.656.377c.58-.029 1.147-.232 1.698-.61.544-.37.934-.822 1.172-1.352a3.22 3.22 0 00.263-1.688c-.063-.595-.286-1.172-.669-1.732zm1.893-1.294c.457.669.757 1.359.9 2.07.149.72.154 1.428.016 2.123a5.193 5.193 0 01-.823 1.943 6 6 0 01-1.612 1.598 5.917 5.917 0 01-2.074.921 5.18 5.18 0 01-2.11.062 5.015 5.015 0 01-1.971-.785c-.611-.392-1.145-.922-1.602-1.59a5.806 5.806 0 01-.909-2.083 5.269 5.269 0 01-.037-2.127 5.25 5.25 0 01.798-1.98c.405-.609.947-1.144 1.624-1.607a6.076 6.076 0 012.099-.938 5.465 5.465 0 012.135-.025c.704.132 1.36.401 1.968.807a5.995 5.995 0 011.598 1.611zm-13.697 7.674l-2.14.821-5.006-3.38 2.395-.92 4.751 3.479zm4.29 4.437l-2.028.778-3.809-9.924 2.028-.778 3.808 9.924zm-1.898-1.256l.664 1.729-2.098.805c-.785.301-1.502.425-2.151.371-.65-.055-1.212-.262-1.686-.622-.475-.36-.834-.857-1.077-1.49-.239-.624-.305-1.233-.197-1.827.112-.585.391-1.115.838-1.59.446-.475 1.062-.863 1.846-1.164l2.098-.806.62 1.617-1.97.756c-.36.138-.645.312-.856.524a1.516 1.516 0 00-.414.744c-.055.281-.022.578.098.89.12.311.292.549.517.712.229.172.497.264.805.276.303.025.633-.031.993-.169l1.97-.756zm-8.581-3.385l.385 1.672-3.092.713-.386-1.672 3.093-.713zm-3.845 8.958l-2.226.172-.819-10.598 2.226-.172.819 10.598zm-5.996.463l-2.573.199 4.006-5.305-5.053-5.275 2.635-.204 5.003 5.218-4.018 5.367zM26.889 92.403l-6.699 3.362-1.907-1.648 11.436-4.988-3.28 12.038-1.895-1.638 2.345-7.126zm-2.85-8.085l-1.474 1.097-3.2-4.3 1.473-1.097 3.2 4.3zm-7.053 5.25l-1.474 1.096-3.2-4.3 1.474-1.097 3.2 4.3zm3.252-2.422l-1.45 1.08-3.018-4.057 1.45-1.079 3.018 4.056zm-3.892 4.639l-1.251-1.681 8.527-6.347 1.25 1.681-8.526 6.347zm-2.037-12.587c.636-.288 1.128-.684 1.478-1.188a3.406 3.406 0 00.571-1.643 3.548 3.548 0 00-.323-1.705 4.27 4.27 0 00-.739-1.149 4.024 4.024 0 00-.923-.748 4.545 4.545 0 00-1.01-.459l2.227-1.01a5.23 5.23 0 011.323.966c.384.382.737.927 1.06 1.637.334.737.526 1.478.576 2.223a5.322 5.322 0 01-.29 2.117 5.334 5.334 0 01-1.1 1.8c-.505.53-1.13.963-1.877 1.302-.747.34-1.48.523-2.202.55a5.294 5.294 0 01-2.094-.35 5.32 5.32 0 01-1.784-1.175 6.363 6.363 0 01-1.295-1.896c-.322-.71-.5-1.335-.534-1.876a5.224 5.224 0 01.142-1.632l2.226-1.01c-.143.32-.25.674-.318 1.061a4.02 4.02 0 00-.045 1.188c.044.413.17.85.38 1.312a3.446 3.446 0 001.083 1.359c.463.357.996.576 1.6.657.6.073 1.222-.038 1.867-.33zm-6.432-6.58l-1.909.44-1.774-7.694 1.909-.44.644 2.797 8.45-1.948.487 2.116-8.449 1.948.642 2.781zm1.176-11.595c.678-.005 1.28-.151 1.804-.439.524-.288.936-.68 1.236-1.179.3-.498.447-1.076.442-1.734-.005-.658-.161-1.234-.469-1.728a3.111 3.111 0 00-1.254-1.144c-.529-.28-1.132-.417-1.81-.411-.678.005-1.28.146-1.804.424a3.112 3.112 0 00-1.236 1.163c-.3.498-.447 1.082-.442 1.75.005.658.161 1.234.469 1.727.307.494.725.88 1.254 1.16.528.28 1.132.416 1.81.411zm.018 2.293c-.81.006-1.55-.13-2.22-.408a5.297 5.297 0 01-1.771-1.17 5.192 5.192 0 01-1.153-1.769A5.994 5.994 0 013.5 57.74a5.918 5.918 0 01.393-2.235 5.193 5.193 0 011.125-1.785 5.008 5.008 0 011.752-1.198c.666-.289 1.404-.436 2.214-.442.8-.007 1.545.13 2.235.407.68.269 1.276.654 1.786 1.156a5.26 5.26 0 011.198 1.767c.279.677.421 1.425.427 2.245a6.079 6.079 0 01-.392 2.265 5.466 5.466 0 01-1.17 1.786 5.27 5.27 0 01-1.768 1.183 5.995 5.995 0 01-2.23.427zm1.303-15.907l.524-2.233 5.61-2.24-.586 2.499-5.548 1.974zm-6.08 1.053l.495-2.114 10.349 2.428-.496 2.114-10.349-2.428zm2.105-.863l-1.804-.423.513-2.188c.192-.818.493-1.48.903-1.987.41-.507.898-.855 1.462-1.045.565-.19 1.177-.208 1.837-.053.65.153 1.192.44 1.622.864.422.421.703.95.845 1.586.142.637.117 1.364-.075 2.182l-.513 2.188-1.686-.395.482-2.055c.088-.375.104-.709.048-1.003a1.52 1.52 0 00-.383-.76 1.6 1.6 0 00-.79-.42c-.326-.076-.619-.067-.88.028a1.394 1.394 0 00-.682.51c-.19.236-.33.542-.417.916L6.399 47.6zm7.575-5.113l-1.6-.621 1.149-2.959 1.6.621-1.149 2.959zm-5.235-8.284l1.107-1.938 9.23 5.27-1.107 1.939-9.23-5.271zm2.981-5.222L13 26.738l2.142 6.294 7.202-1.22-1.31 2.294-7.127 1.211-2.187-6.337zM40.8 13.723l.34-7.487 2.369-.86-1.234 12.416-8.902-8.742 2.355-.853 5.072 5.526zm8.372 1.454l-.233-1.823 5.316-.68.233 1.823-5.316.68zm-1.115-8.721l-.233-1.823 5.317-.68.233 1.823-5.317.68zm.514 4.021l-.23-1.792 5.016-.641.23 1.792-5.016.641zM46.438 4.81l2.078-.265 1.349 10.543-2.08.266L46.439 4.81zm12.255 4.37c-.062.695.04 1.319.306 1.87.277.544.66.98 1.15 1.307.49.318 1.037.504 1.642.558.504.045.959.02 1.363-.077a4.022 4.022 0 001.106-.435c.343-.193.641-.41.897-.652l-.217 2.435a5.22 5.22 0 01-1.493.675c-.521.147-1.17.186-1.946.117a6.367 6.367 0 01-2.219-.594 5.32 5.32 0 01-1.699-1.294 5.337 5.337 0 01-1.025-1.845c-.212-.7-.282-1.458-.21-2.274.073-.817.275-1.546.607-2.187.342-.65.787-1.2 1.336-1.65a5.32 5.32 0 011.9-.974c.72-.2 1.482-.265 2.289-.193.776.069 1.408.222 1.895.458.497.237.948.547 1.35.928l-.216 2.435a4.541 4.541 0 00-.767-.8 4.019 4.019 0 00-1.012-.623 4.266 4.266 0 00-1.328-.317 3.446 3.446 0 00-1.717.275 3.287 3.287 0 00-1.36 1.068c-.359.486-.57 1.082-.632 1.788zm9.144-2.327l.562-1.877 7.564 2.267-.562 1.876-2.75-.823-2.488 8.305-2.08-.623 2.489-8.306-2.735-.82zm9.467 6.735c-.332.591-.503 1.186-.514 1.784a3.22 3.22 0 00.41 1.658c.284.508.713.922 1.287 1.244.574.322 1.151.473 1.732.45a3.112 3.112 0 001.616-.52c.505-.32.923-.777 1.255-1.368.332-.592.508-1.184.527-1.776a3.112 3.112 0 00-.397-1.651c-.284-.508-.717-.925-1.3-1.252-.573-.322-1.15-.472-1.732-.45a3.22 3.22 0 00-1.629.513c-.505.32-.923.776-1.255 1.368zm-2-1.122c.397-.707.882-1.282 1.456-1.725a5.295 5.295 0 011.895-.957 5.192 5.192 0 012.107-.123c.734.098 1.45.343 2.147.735.706.396 1.288.88 1.746 1.45.463.561.793 1.182.992 1.863a5.01 5.01 0 01.17 2.115c-.08.722-.317 1.435-.714 2.142a5.804 5.804 0 01-1.463 1.738c-.57.458-1.2.783-1.89.977-.68.199-1.39.253-2.128.163-.726-.093-1.446-.34-2.16-.742a6.076 6.076 0 01-1.773-1.465 5.465 5.465 0 01-.97-1.903 5.27 5.27 0 01-.15-2.121c.099-.734.344-1.45.735-2.147zM88.36 21.39l1.684 1.555-.813 5.986-1.886-1.74 1.014-5.801zm2.077-5.81l1.596 1.472-7.21 7.81-1.595-1.472 7.21-7.81zm-.285 2.256l1.256-1.36L93.06 18c.618.57 1.046 1.158 1.285 1.764.24.607.303 1.202.19 1.787-.113.585-.4 1.127-.86 1.625-.452.49-.97.82-1.55.986-.574.16-1.173.144-1.797-.046-.623-.19-1.244-.57-1.861-1.14l-1.652-1.524 1.175-1.273 1.55 1.432c.283.261.566.44.85.536.297.095.58.11.85.041a1.6 1.6 0 00.754-.482c.227-.245.363-.505.41-.779a1.393 1.393 0 00-.11-.844c-.11-.282-.308-.554-.59-.815l-1.552-1.432zm.728 9.121l1.327-1.089 2.013 2.454-1.326 1.088-2.013-2.453zm9.74-.561l1.15 1.913-9.112 5.474-1.15-1.914 9.112-5.473zm3.097 5.154l1.329 2.213-6.537-1.21-2.457 6.879-1.36-2.265 2.428-6.809 6.597 1.192z" fill="#DDB06F"/></svg>