<svg width="80" height="80" fill="none" xmlns="http://www.w3.org/2000/svg"><g clip-path="url(#clip0_60_3245)"><path d="M52.903 47.742H42.581V41.29h10.322v6.452zm12.904 0H55.483V41.29h10.322v6.452zM5.16 52.903h10.323v5.162H5.16v-5.162zm59.355 0H74.84v11.613H64.516V52.903z" fill="#DDB06F"/><path d="M70.968 46.452V30.968h-5.162V18.064h8.932L43.04.775A6.37 6.37 0 0040 0a6.37 6.37 0 00-3.041.775L5.262 18.065h8.931v10.322h-4.8L5.952 38.71h4.37v7.742H0V66.34L13.66 80H80V46.452h-9.032zm-30.968 0V38.71h28.387v7.742H40zm-2.58-7.742v7.742H18.063V38.71H37.42zm30.967-2.581H40v-2.58h28.387v2.58zm-18.064-5.161H45.16v-7.742h5.162v7.742zm12.903-5.162h-5.161v-2.58h5.16v2.58zm0-5.16h-7.742v7.741h7.742v2.58H52.903V20.646H42.581v10.323H40V18.064h23.226v2.581zM38.195 3.04A3.78 3.78 0 0140 2.581a3.78 3.78 0 011.805.46l22.812 12.443H15.383L38.195 3.04zm-21.42 15.023h20.644v10.323h-5.16v-7.742H21.935v7.742h-5.162V18.064zm12.902 10.323h-5.16v-5.161h5.16v5.161zm-18.424 2.58h26.166v5.162H9.532l1.72-5.161zm1.65 7.743h2.58v7.742h-2.58V38.71zm0 36.885l-8.498-8.498h8.498v8.498zm64.516 1.824H15.484V64.516H2.58V49.032h74.838V77.42z" fill="#46413D"/><path d="M5.161 51.613h10.323v2.58H5.16v-2.58zm0 5.161h10.323v2.58H5.16v-2.58zm56.775-5.161H18.064v23.226h43.871V51.613zm-2.581 10.322h-5.161v-5.16h-5.162v-2.582h10.323v7.742zm-38.71-.002l20.647-.037-.005-2.58-5.158.008v-5.13h10.323v10.322H38.71v7.742h-5.162v-7.742H20.645v-2.583zm7.742-2.595v-5.145h5.161v5.136l-5.16.01zm12.903 7.759h5.162v5.161H41.29v-5.161zm7.742-7.742h2.58v2.58h-2.58v-2.58zm-23.225-5.162v5.15l-5.162.01v-5.16h5.162zm-5.162 12.904h10.323v5.161H20.645v-5.161zm28.387 5.161v-7.742h10.323v7.742H49.032zm15.484-20.645H74.84v2.58H64.516v-2.58zm0 5.161H74.84v2.58H64.516v-2.58zM74.84 67.097H64.516v7.742H74.84v-7.742zm-2.58 5.161h-5.162v-2.58h5.161v2.58zm-7.743-10.323h2.58v2.581h-2.58v-2.58zm5.161 0h5.162v2.581h-5.162v-2.58z" fill="#46413D"/></g><defs><clipPath id="clip0_60_3245"><path fill="#fff" d="M0 0h80v80H0z"/></clipPath></defs></svg>