<svg width="80" height="80" fill="none" xmlns="http://www.w3.org/2000/svg"><path d="M35 35h2.5v2.5H35V35zm-5 6.25h2.5v2.5H30v-2.5z" fill="#473E37"/><path d="M43.75 38.75c0-2.708-1.449-5.313-4.11-7.441a8.687 8.687 0 001.61-5.059 8.755 8.755 0 00-4.139-7.431c.259-.832.39-1.698.389-2.569a8.69 8.69 0 00-6.54-8.46 8.69 8.69 0 00-8.46-6.54 8.69 8.69 0 00-8.46 6.54 8.69 8.69 0 00-6.54 8.46c0 .871.13 1.737.389 2.569A8.754 8.754 0 003.75 26.25c0 1.836.564 3.589 1.61 5.059-2.661 2.128-4.11 4.733-4.11 7.441 0 5.821 6.773 10.819 16.25 12.145v8.362a8.636 8.636 0 00-.677 1.408A7.45 7.45 0 0013.75 60a7.513 7.513 0 00-7.414 6.359A6.26 6.26 0 001.25 72.5a6.257 6.257 0 006.25 6.25H40v-2.5H7.5a3.755 3.755 0 01-3.75-3.75 3.755 3.755 0 013.75-3.75h1.25V67.5c0-2.757 2.242-5 5-5s5 2.243 5 5h2.5c0-2.101-.871-4-2.267-5.364.723-2.702 3.186-4.636 6.017-4.636a6.257 6.257 0 016.25 6.25c-4.136 0-7.5 3.364-7.5 7.5h2.5c0-2.757 2.242-5 5-5 1.093 0 2.13.345 3.001 1.001l1.502-2a7.462 7.462 0 00-2.023-1.074c.008-.142.02-.285.02-.427 0-3.955-2.64-7.303-6.25-8.381v-4.474c9.477-1.326 16.25-6.324 16.25-12.145zM20 56.615V26.9l-6.719-5.376-1.561 1.952L17.5 28.1v20.276c-7.929-1.2-13.75-5.209-13.75-9.626 0-2.206 1.463-4.401 4.12-6.184l1.256-.842-1.065-1.074a6.225 6.225 0 01-1.811-4.4 6.255 6.255 0 013.71-5.706l1.16-.517-.535-1.15A6.187 6.187 0 0110 16.25a6.209 6.209 0 015.289-6.168l.905-.14.14-.905A6.206 6.206 0 0122.5 3.75a6.21 6.21 0 016.168 5.287l.14.905.904.14A6.208 6.208 0 0135 16.25c0 .908-.2 1.804-.585 2.626l-.535 1.151 1.16.517a6.256 6.256 0 013.71 5.706 6.225 6.225 0 01-1.811 4.4l-1.065 1.074 1.256.842c2.657 1.783 4.12 3.978 4.12 6.184 0 4.417-5.821 8.426-13.75 9.626V24.19l4.726-5.908-1.952-1.562L25 23.31V55c-1.845 0-3.566.609-5 1.615z" fill="#473E37"/><path d="M24.024 14.219l-4.128 5.16-2.762-2.763-1.768 1.768 4.738 4.737 5.872-7.34-1.952-1.562zM23.75 60h2.5v2.5h-2.5V60zM12.5 65H15v2.5h-2.5V65zm-6.25 6.25h2.5v2.5h-2.5v-2.5zm10-2.5h2.5v2.5h-2.5v-2.5zM12.5 37.5H15V40h-2.5v-2.5zm-2.5-10h2.5V30H10v-2.5zm48.75 25h2.5v6.25h-2.5V52.5zM60 40.312L54.25 36l1.5-2L60 37.188 64.25 34l1.5 2L60 40.313z" fill="#473E37"/><path d="M56.25 45V33.074a12.5 12.5 0 00-5 3.006V45a2.5 2.5 0 005 0zm12.5 0v-8.92a12.5 12.5 0 00-5-3.006V45a2.5 2.5 0 005 0z" fill="#DDB06F"/><path d="M72.5 39.305V33.75c0-2.739-1.782-5.046-4.24-5.889.323-.92.488-1.887.49-2.861h2.5v-2.5h-2.869c-1.079-3.61-4.426-6.25-8.381-6.25s-7.303 2.64-8.381 6.25H48.75V25h2.5c0 1.003.178 1.962.49 2.861-2.458.843-4.24 3.15-4.24 5.889v5.555A13.649 13.649 0 0046.25 45v6.25a6.257 6.257 0 006.25 6.25h1.25v-1.25H55v-9.096a2.483 2.483 0 01-1.25.346 2.49 2.49 0 01-1.25-.346V55a3.755 3.755 0 01-3.75-3.75V45c0-6.204 5.047-11.25 11.25-11.25S71.25 38.796 71.25 45v6.25A3.755 3.755 0 0167.5 55v-7.846a2.483 2.483 0 01-1.25.346c-.457 0-.881-.133-1.25-.346V61.25h2.5V57.5a6.257 6.257 0 006.25-6.25V45c0-2.032-.455-3.958-1.25-5.695zM60 18.75a6.254 6.254 0 015.72 3.75H54.28A6.254 6.254 0 0160 18.75zM50 35.593V33.75a3.75 3.75 0 012.907-3.646 8.838 8.838 0 002.13 2.087A13.777 13.777 0 0050 35.592zm10-4.343A6.257 6.257 0 0153.75 25h12.5A6.257 6.257 0 0160 31.25zm10 4.343a13.774 13.774 0 00-5.036-3.4 8.862 8.862 0 002.129-2.088A3.746 3.746 0 0170 33.75v1.843z" fill="#473E37"/><path d="M73.664 66.359A7.513 7.513 0 0066.25 60c-1.05 0-2.05.219-2.958.61C61.075 57.174 56.987 55 52.5 55c-5.944 0-11.005 3.809-12.214 8.91a7.508 7.508 0 00-9.036 7.34c0 4.136 3.364 7.5 7.5 7.5H72.5a6.257 6.257 0 006.25-6.25 6.26 6.26 0 00-5.086-6.141z" fill="#DDB06F"/><path d="M47.5 66.25H45c0-3.446 3.364-6.25 7.5-6.25v2.5c-2.758 0-5 1.683-5 3.75zm23.75 5h2.5v2.5h-2.5v-2.5zM50 68.75h2.5v2.5H50v-2.5zm7.5 2.5H60v2.5h-2.5v-2.5zM36.25 70h2.5v2.5h-2.5V70zM65 65h2.5v2.5H65V65z" fill="#473E37"/></svg>