<svg width="80" height="80" fill="none" xmlns="http://www.w3.org/2000/svg"><g clip-path="url(#clip0_60_3355)"><path d="M34.93 24.516h3.78V14.194h-3.78a1.27 1.27 0 01-1.193-.798 1.263 1.263 0 01.281-1.405l2.671-2.672-7.298-7.3-2.672 2.673c-.563.565-1.217.357-1.407.28a1.267 1.267 0 01-.796-1.193V0H14.194v3.78c0 .8-.61 1.114-.797 1.192-.188.077-.844.285-1.406-.28L9.319 2.019l-7.3 7.3 2.671 2.673a1.268 1.268 0 01.282 1.405 1.267 1.267 0 01-1.193.796H0v10.323h3.78c.8 0 1.114.61 1.193.798a1.264 1.264 0 01-.281 1.405L2.02 29.39l7.298 7.3 2.672-2.673c.564-.565 1.22-.356 1.406-.28.186.078.796.392.796 1.192v3.78h10.323v-3.78c0-.8.61-1.114.796-1.192a1.262 1.262 0 011.407.28l2.672 2.672 7.298-7.299-2.67-2.674a1.268 1.268 0 01-.282-1.405 1.27 1.27 0 011.193-.796zm-15.575 5.161a10.322 10.322 0 110-20.644 10.322 10.322 0 010 20.644z" fill="#DDB06F"/><path d="M19.355 25.806a6.459 6.459 0 006.451-6.451 6.459 6.459 0 00-6.451-6.452 6.459 6.459 0 00-6.452 6.452 6.459 6.459 0 006.452 6.451zm0-10.322a3.876 3.876 0 013.87 3.87 3.876 3.876 0 01-3.87 3.872 3.876 3.876 0 01-3.871-3.871 3.876 3.876 0 013.87-3.871zm29.677 15.484a2.583 2.583 0 002.58-2.58v-3.872h10.323v1.29a2.583 2.583 0 002.581 2.581h7.742a2.583 2.583 0 002.58-2.58v-5.162a2.583 2.583 0 00-2.58-2.58h-7.742a2.583 2.583 0 00-2.58 2.58v1.29H51.612a2.583 2.583 0 00-2.58 2.581v3.871H35.685l1.004 1.004-1.576 1.577h13.918zm15.484-10.323h7.742v5.162h-7.742v-5.162z" fill="#473E37"/><path d="M19.355 30.968c6.404 0 11.613-5.21 11.613-11.613S25.758 7.742 19.355 7.742c-6.404 0-11.613 5.21-11.613 11.613 0 6.402 5.209 11.613 11.613 11.613zm0-20.645c4.98 0 9.032 4.051 9.032 9.032 0 4.98-4.053 9.032-9.032 9.032-4.98 0-9.032-4.052-9.032-9.032s4.053-9.032 9.032-9.032zm58.064 23.225H59.355a2.583 2.583 0 00-2.58 2.581v2.58H30.967v-3.596L29.39 36.69l-1.004-1.003v23.668h-3.87V38.71h-2.581v20.645h-5.162V38.71h-2.58v20.645h-3.871V35.687L9.319 36.69l-1.577-1.576v26.04c0 .765.224 1.507.65 2.147l10.963 16.445L30.317 63.3a3.85 3.85 0 00.562-1.366H43.87v10.323a2.583 2.583 0 002.58 2.58h10.323v2.581A2.583 2.583 0 0059.354 80H77.42A2.583 2.583 0 0080 77.42v-7.743a2.583 2.583 0 00-2.58-2.58H59.354a2.583 2.583 0 00-2.58 2.58v2.581H46.451V61.936a2.583 2.583 0 00-2.581-2.581H30.968v-7.742h18.064v3.87a2.583 2.583 0 002.58 2.582h10.323v1.29a2.583 2.583 0 002.581 2.58h7.742a2.583 2.583 0 002.58-2.58v-5.161a2.583 2.583 0 00-2.58-2.581h-7.742a2.583 2.583 0 00-2.58 2.58v1.29H51.612v-3.87a2.583 2.583 0 00-2.58-2.58H30.967V41.29h25.806v2.581a2.583 2.583 0 002.58 2.58H77.42A2.583 2.583 0 0080 43.872V36.13a2.583 2.583 0 00-2.58-2.58zm-18.064 36.13h18.064l.002 7.741H59.355v-7.742zm5.161-15.484h7.742l.001 5.16h-7.743v-5.16zm-53.934 7.741h17.544l-3.44 5.162H14.022l-3.441-5.161zm5.162 7.742h7.221l-3.61 5.416-3.61-5.416zm43.61-25.806v-7.742H77.42l.002 7.742H59.355zM77.42 0H59.355a2.583 2.583 0 00-2.58 2.58v2.581H46.451a2.583 2.583 0 00-2.581 2.58v10.323h-5.16v2.581h5.161a2.583 2.583 0 002.58-2.58V7.741h10.323v2.58a2.583 2.583 0 002.58 2.581H77.42A2.583 2.583 0 0080 10.323V2.58A2.583 2.583 0 0077.42 0zm0 10.323H59.355V2.58h18.064v7.742z" fill="#473E37"/></g><defs><clipPath id="clip0_60_3355"><path fill="#fff" d="M0 0h80v80H0z"/></clipPath></defs></svg>