<svg width="80" height="80" fill="none" xmlns="http://www.w3.org/2000/svg"><path d="M20 16.084l-.186.12.186.046v-.166zM68.63 52.5H67.5v-25c0-.589.12-1.146.308-1.67-.606-1.189-1.256-2.35-1.997-3.438l2.279-3.8-6.683-6.682-3.8 2.277A31.308 31.308 0 0045.8 9.293L44.725 5h-9.45L34.2 9.294a31.064 31.064 0 00-7.186 2.3c.312 1.075.486 2.213.486 3.406l-3.57 8.74C27.97 19.844 33.941 17.5 40 17.5c12.426 0 22.5 10.074 22.5 22.5S52.426 62.5 40 62.5c-8.72 0-16.265-4.97-20-12.222v3.472a5 5 0 01-5 5c-.477 0-.931-.089-1.369-.214l-1.721 2.871 6.683 6.683 3.8-2.278A31.307 31.307 0 0034.2 70.707L35.275 75h9.451l1.074-4.294a31.308 31.308 0 0011.808-4.895l3.8 2.278 6.682-6.683-2.279-3.8A31.442 31.442 0 0068.63 52.5z" fill="#DDB06F"/><path d="M13.75 47.5h2.5V50h-2.5v-2.5zm0 5h2.5V55h-2.5v-2.5zm0-10h2.5V45h-2.5v-2.5zM45 28.75c0-2.324-1.599-4.264-3.75-4.823V21.25h-2.5v2.677c-2.151.56-3.75 2.5-3.75 4.823 0 2.324 1.599 4.264 3.75 4.822V58.75h2.5V33.572c2.151-.558 3.75-2.498 3.75-4.822zm-5 2.5a2.502 2.502 0 01-2.5-2.5c0-1.379 1.121-2.5 2.5-2.5s2.5 1.121 2.5 2.5-1.121 2.5-2.5 2.5z" fill="#46413D"/><path d="M32.5 33.928V25H30v8.928c-2.151.558-3.75 2.498-3.75 4.822s1.599 4.264 3.75 4.822V56.25h2.5V43.572c2.151-.558 3.75-2.498 3.75-4.822s-1.599-4.264-3.75-4.822zm-1.25 7.322a2.502 2.502 0 01-2.5-2.5c0-1.379 1.121-2.5 2.5-2.5s2.5 1.121 2.5 2.5-1.121 2.5-2.5 2.5zm18.75.178V25h-2.5v16.428c-2.151.558-3.75 2.498-3.75 4.822s1.599 4.264 3.75 4.822v5.178H50v-5.178c2.151-.558 3.75-2.498 3.75-4.822s-1.599-4.264-3.75-4.822zm-1.25 7.322a2.502 2.502 0 01-2.5-2.5c0-1.379 1.121-2.5 2.5-2.5s2.5 1.121 2.5 2.5-1.121 2.5-2.5 2.5z" fill="#46413D"/><path d="M40 16.25c-4.188 0-8.364 1.098-11.959 3.024.447-1.36.709-2.793.709-4.274 0-5.42-3.16-10.17-8.25-12.395l-1.75-.765v12.809l-7.5-1.875V1.84l-1.75.765C4.41 4.83 1.25 9.58 1.25 15c0 5.184 2.918 9.902 7.5 12.244V53.75A6.257 6.257 0 0015 60c3.207 0 5.828-2.439 6.18-5.554A23.622 23.622 0 0040 63.75c13.096 0 23.75-10.654 23.75-23.75S53.096 16.25 40 16.25zm-21.25 37.5A3.755 3.755 0 0115 57.5a3.755 3.755 0 01-3.75-3.75V25.635l-.75-.328A11.255 11.255 0 013.75 15c0-3.755 1.874-7.119 5-9.16v8.886l12.5 3.125V5.84c3.126 2.041 5 5.405 5 9.16a11.255 11.255 0 01-6.75 10.308l-.75.327V53.75zM40 61.25c-7.888 0-15.041-4.324-18.75-11.296v-22.71c1.31-.68 2.5-1.565 3.529-2.623l.018.019c3.824-3.688 9.508-5.89 15.203-5.89 11.718 0 21.25 9.532 21.25 21.25S51.718 61.25 40 61.25zm38.75-7.5V27.5a6.257 6.257 0 00-6.25-6.25 6.257 6.257 0 00-6.25 6.25v26.25h2.5v13.233l-1.326 1.326 1.492 10.441h7.168l1.491-10.442-1.325-1.326V53.75h2.5zm-10-2.5v-2.5h7.5v2.5h-7.5zm7.5-20v15h-2.5v-15h2.5zm-5 15h-2.5v-15h2.5v15zm1.25-22.5a3.755 3.755 0 013.75 3.75v1.25h-7.5V27.5a3.755 3.755 0 013.75-3.75zm2.424 45.442l-1.008 7.058h-2.832l-1.009-7.058 1.175-1.174V53.75h2.5v14.267l1.174 1.175z" fill="#46413D"/></svg>