<svg width="80" height="80" fill="none" xmlns="http://www.w3.org/2000/svg"><g clip-path="url(#clip0_60_3375)"><path d="M69.677 47.742h9.033v7.742h-9.033v-7.742zM52.903 63.226h16.774v7.742H52.903v-7.742zm-6.451-45.161h-.185.003c-1.194-8.337-8.08-14.838-16.593-15.44v-.044a1.29 1.29 0 00-1.29-1.29h-2.58a1.29 1.29 0 00-1.29 1.29v.045c-8.514.601-15.4 7.102-16.592 15.438h.003-.186a1.29 1.29 0 00-1.29 1.29v2.581c0 .713.578 1.29 1.29 1.29h38.71a1.29 1.29 0 001.29-1.29v-2.58a1.29 1.29 0 00-1.29-1.29z" fill="#DDB06F"/><path d="M34.194 32.258a3.23 3.23 0 003.225-3.226 3.23 3.23 0 00-3.225-3.226 3.23 3.23 0 00-3.226 3.226 3.23 3.23 0 003.226 3.226zm0-3.871a.646.646 0 010 1.29.646.646 0 010-1.29zm-10.968.645A3.23 3.23 0 0020 25.806a3.23 3.23 0 00-3.226 3.226A3.23 3.23 0 0020 32.258a3.23 3.23 0 003.226-3.226zm-3.871 0a.646.646 0 011.29 0 .646.646 0 01-1.29 0zm1.29 8.387a6.459 6.459 0 006.452 6.452 6.459 6.459 0 006.451-6.452h-2.58a3.876 3.876 0 01-3.871 3.871 3.876 3.876 0 01-3.871-3.87h-2.58z" fill="#473E37"/><path d="M43.279 46.452l-6.584-.776a15.532 15.532 0 004.998-7.006c3.366-.213 6.049-2.993 6.049-6.412v-8.1a2.572 2.572 0 001.29-2.223v-2.58a2.579 2.579 0 00-1.662-2.404C45.78 8.76 38.98 2.439 30.693 1.446A2.574 2.574 0 0028.387 0h-2.58A2.574 2.574 0 0023.5 1.446C15.213 2.44 8.414 8.76 6.823 16.951a2.579 2.579 0 00-1.662 2.404v2.58c0 .952.523 1.775 1.29 2.222v8.101c0 3.42 2.683 6.199 6.05 6.412a15.53 15.53 0 004.997 7.006l-7.245.854A11.616 11.616 0 000 58.063V76.13A3.876 3.876 0 003.871 80H80V46.452H43.279zm34.14 7.742h-6.451v-5.162h6.451v5.162zM54.194 69.677v-5.16h14.193v5.16H54.193zM43.87 59.355v18.064H26.379a5.109 5.109 0 00.718-2.58c0-2.174-1.355-4.029-3.26-4.789l1.387-2.774c.429.1.87.164 1.328.164a5.877 5.877 0 005.484-3.713l2.7-6.749 1.99-.995a5.3 5.3 0 002.708-3.245 5.292 5.292 0 00-.542-4.19l-.01-.016 4.757.56a9.034 9.034 0 017.974 8.97v6.454h-5.161v-5.161H43.87zm-26.356-9.48l1.035-1.725 2.11-.25a6.446 6.446 0 004.962 6.108l-1.39 1.334a2.66 2.66 0 01-2.329-.027l-3.281-1.64a2.676 2.676 0 01-1.383-1.658 2.668 2.668 0 01.276-2.142zm18.129-1.724l1.035 1.725c.39.652.489 1.412.276 2.14a2.66 2.66 0 01-.88 1.33c.03-.19.054-.378.054-.572a3.703 3.703 0 00-1.552-3.035 3.699 3.699 0 00-1.207-.552 6.49 6.49 0 00.168-1.285l2.106.249zM23.226 61.533v-.23a3.343 3.343 0 011.022-2.398l7.215-6.927c.125-.12.276-.21.441-.264l.117-.04a1.155 1.155 0 011.045.16c.307.221.482.563.482.94 0 .149-.027.294-.082.431l-3.826 9.563a3.31 3.31 0 01-3.088 2.09 3.328 3.328 0 01-3.326-3.325zm7.297-12.007a3.76 3.76 0 00-.847.591l-1.325 1.273c-.403.138-.82.223-1.254.223a3.874 3.874 0 01-3.785-3.069c1.213.308 2.478.488 3.785.488 1.304 0 2.566-.18 3.776-.485a3.9 3.9 0 01-.35.98zm26.251 4.667v2.581h2.58v5.161h-5.16v-3.872c0-3.623-1.674-6.89-4.322-9.03h18.515v5.16H56.774zm5.161 7.742v-5.16H77.42v5.16H61.936zM45.161 24.517v2.614a6.39 6.39 0 00-2.58-1.192v-1.422h2.58zm-2.787 11.44a15.42 15.42 0 00.207-2.408v-4.924c1.498.535 2.58 1.954 2.58 3.634 0 1.756-1.182 3.226-2.787 3.698zm2.337-19.182h-2.13v2.58h3.87v2.582H7.742v-2.581H40v-2.58h-5.995L37.197 6.4c3.702 2.302 6.475 5.999 7.514 10.373zm-33.098 7.742v1.42a6.407 6.407 0 00-2.58 1.193v-2.613h2.58zm19.355-12.903V4.07a16.59 16.59 0 013.902 1.119l-3.564 11.584h-8.417L19.325 5.191a16.56 16.56 0 013.9-1.12v7.542a2.583 2.583 0 002.581 2.58h2.581a2.583 2.583 0 002.58-2.58zM25.806 2.58h2.581v9.032h-2.58l-.002-9.032h.001zM16.997 6.4l3.191 10.373H9.483c1.038-4.373 3.811-8.07 7.514-10.373zM9.032 32.258c0-1.68 1.083-3.1 2.58-3.634v4.924c0 .821.083 1.621.207 2.408-1.605-.472-2.787-1.942-2.787-3.698zm5.162 1.29v-9.032H40v9.032c0 7.115-5.788 12.904-12.903 12.904s-12.904-5.789-12.904-12.904zm-3.64 15.545l4.757-.561-.01.015a5.298 5.298 0 00-.541 4.191 5.296 5.296 0 002.707 3.245l3.28 1.64c.303.151.618.25.936.34a5.947 5.947 0 00-1.038 3.341v.23c0 1.874.894 3.527 2.26 4.61l-1.767 3.533H10.323V59.355H7.742v3.87H2.58v-5.162a9.034 9.034 0 017.974-8.97zm10.091 28.326H3.871c-.711 0-1.29-.578-1.29-1.29V65.806h5.16v6.452h14.195a2.583 2.583 0 012.58 2.58 2.583 2.583 0 01-2.58 2.581h-1.29zm25.807 0V67.097h5.16v10.322h-5.16zm7.742-5.16h5.16v5.16h-5.16v-5.16zm7.741 5.16v-5.16H74.84v-2.582h-3.871v-5.16h6.451v12.902H61.936z" fill="#473E37"/></g><defs><clipPath id="clip0_60_3375"><path fill="#fff" d="M0 0h80v80H0z"/></clipPath></defs></svg>