<svg width="81" height="80" fill="none" xmlns="http://www.w3.org/2000/svg"><g clip-path="url(#clip0_60_3343)"><path d="M3.062 43.615h23.086l-1.71-5.13H4.771l-1.71 5.13zM32.56 66.7h46.172v6.413H32.561V66.7zm39.76-20.37v-3.999a3.853 3.853 0 00-3.848-3.847h-7.696a3.852 3.852 0 00-3.847 3.847v6.393c7.618-.176 9.123-1.88 15.39-2.395zm-17.957 2.394v-6.393a3.853 3.853 0 00-3.847-3.847H42.82a3.852 3.852 0 00-3.847 3.847v3.998c6.266.514 7.771 2.22 15.39 2.395z" fill="#DDB06F"/><path d="M33.843 25.659c7.072 0 12.826-5.754 12.826-12.826 0-7.072-5.754-12.825-12.826-12.825-7.072 0-12.825 5.753-12.825 12.825 0 7.072 5.753 12.826 12.825 12.826zM32.561 2.662v2.476h2.565V2.662c4.632.58 8.306 4.256 8.889 8.889h-2.476v2.565h2.476a10.27 10.27 0 01-8.89 8.89v-2.477h-2.564v2.477a10.27 10.27 0 01-8.89-8.89h2.477V11.55h-2.477a10.27 10.27 0 018.89-8.89z" fill="#473E37"/><path d="M35.126 13.364V7.703H32.56v4.599l-2.19 2.19 1.814 1.813 2.94-2.94zm44.89 46.924c0-1.67-1.077-3.08-2.565-3.611v-22.04a3.853 3.853 0 00-3.848-3.848h-7.074a14.182 14.182 0 00-10.882-5.13c-4.2 0-8.219 1.906-10.883 5.13H37.69a3.852 3.852 0 00-3.848 3.848v22.04c-1.489.53-2.565 1.942-2.565 3.611v14.108h2.565v1.283a3.852 3.852 0 003.848 3.848h5.13a3.852 3.852 0 003.848-3.848v-1.283h17.956v1.283a3.852 3.852 0 003.848 3.848h5.13a3.852 3.852 0 003.848-3.848v-1.283h2.565V60.288zm-43.608-3.847v-8.958c4.112.097 6.343.643 8.666 1.225 2.599.649 5.285 1.32 10.573 1.32 5.287 0 7.973-.671 10.572-1.321 2.325-.581 4.554-1.129 8.666-1.225v8.959H36.408zm1.283-23.087h8.337l.384-.513a11.6 11.6 0 019.235-4.617 11.6 11.6 0 019.234 4.617l.385.513h8.337c.706 0 1.282.577 1.282 1.283v10.281c-4.442.102-6.914.707-9.29 1.3-2.558.64-4.976 1.245-9.948 1.245-4.973 0-7.39-.604-9.95-1.244-2.373-.594-4.846-1.2-9.289-1.3V34.636c0-.706.576-1.283 1.283-1.283zm6.413 42.325c0 .707-.576 1.283-1.283 1.283h-5.13a1.284 1.284 0 01-1.283-1.283v-1.283h7.696v1.283zm30.781 0c0 .707-.576 1.283-1.282 1.283h-5.13a1.284 1.284 0 01-1.283-1.283v-1.283h7.695v1.283zm2.566-3.848H33.843V60.288c0-.706.576-1.282 1.283-1.282h41.042c.706 0 1.283.576 1.283 1.282v11.543z" fill="#473E37"/><path d="M36.408 66.7h38.477v2.566H36.408v-2.565zM29.21 48.746L23.224 30.79H5.984L0 48.745h10.757v23.086H9.475a3.852 3.852 0 00-3.848 3.848v3.847h17.956V75.68a3.853 3.853 0 00-3.848-3.848h-1.282V48.745h5.13v7.931c-1.49.532-2.565 1.942-2.565 3.612a3.852 3.852 0 003.847 3.848 3.852 3.852 0 003.848-3.848c0-1.67-1.076-3.08-2.565-3.611v-7.932h3.061zm-4.344 12.826a1.284 1.284 0 01-1.282-1.283c0-.706.575-1.282 1.282-1.282.707 0 1.283.576 1.283 1.282 0 .707-.576 1.283-1.283 1.283zM7.834 33.354h13.543L25.65 46.18H3.558l4.276-12.826zM21.018 75.68v1.282H8.192V75.68c0-.707.576-1.283 1.283-1.283h10.26c.707 0 1.283.576 1.283 1.283zm-5.13-3.848h-2.566V48.745h2.566v23.086z" fill="#473E37"/></g><defs><clipPath id="clip0_60_3343"><path fill="#fff" d="M0 0h80.015v80H0z"/></clipPath></defs></svg>