<svg width="80" height="80" fill="none" xmlns="http://www.w3.org/2000/svg"><path d="M73.75 42.5h2.5V65h-2.5V42.5zm2.5 36.25h-12.5V70h2.5v6.25h7.5V70h2.5v8.75zm-10-41.25h-2.5V23.75H60v-2.5h3.75c1.379 0 2.5 1.121 2.5 2.5V37.5zM45 21.25h10v2.5H45v-2.5zm-13.356 0H40v2.5h-8.356v-2.5zm0-10H40v2.5h-8.356v-2.5z" fill="#473E37"/><path d="M17.5 33.75c-8.96 0-16.25-7.29-16.25-16.25S8.54 1.25 17.5 1.25 33.75 8.54 33.75 17.5 26.46 33.75 17.5 33.75z" fill="#DDB06F"/><path d="M17.5 28.75c-4.136 0-7.5-3.364-7.5-7.5 0-.989.184-1.955.547-2.872L14.595 8.12A3.198 3.198 0 0117.5 6.25c1.249 0 2.389.735 2.905 1.871l4.072 10.314A7.5 7.5 0 0125 21.189c0 4.197-3.364 7.561-7.5 7.561zm-.619-19.616l-4.008 10.162a5.276 5.276 0 00-.373 1.954c0 2.758 2.242 5 5 5s5-2.242 5-5c0-.692-.117-1.31-.349-1.899L18.105 9.096c-.17-.37-.988-.435-1.224.038zM45 11.25h10v2.5H45v-2.5zM76.25 37.5h-2.5V20a6.257 6.257 0 00-6.25-6.25H60v-2.5h7.5c4.824 0 8.75 3.926 8.75 8.75v17.5z" fill="#473E37"/><path d="M43.75 25h-2.5A1.25 1.25 0 0140 23.75v-12.5A1.25 1.25 0 0141.25 10h2.5A1.25 1.25 0 0145 11.25v12.5A1.25 1.25 0 0143.75 25zm15 0h-2.5A1.25 1.25 0 0155 23.75v-12.5A1.25 1.25 0 0156.25 10h2.5A1.25 1.25 0 0160 11.25v12.5A1.25 1.25 0 0158.75 25zm17.5 45h-12.5a1.25 1.25 0 01-1.25-1.25v-2.5A1.25 1.25 0 0163.75 65h12.5a1.25 1.25 0 011.25 1.25v2.5A1.25 1.25 0 0176.25 70zm-57.5 0H6.25A1.25 1.25 0 015 68.75v-2.5A1.25 1.25 0 016.25 65h12.5A1.25 1.25 0 0120 66.25v2.5A1.25 1.25 0 0118.75 70zm57.5-27.5h-12.5a1.25 1.25 0 01-1.25-1.25v-2.5a1.25 1.25 0 011.25-1.25h12.5a1.25 1.25 0 011.25 1.25v2.5a1.25 1.25 0 01-1.25 1.25z" fill="#DDB06F"/><path d="M18.75 65h-2.5v-6.25c0-1.379 1.121-2.5 2.5-2.5h3.75v2.5h-3.75V65zm-10 0h-2.5V55c0-4.824 3.926-8.75 8.75-8.75h7.5v2.5H15A6.257 6.257 0 008.75 55v10zM45 46.25v-5h1.25A3.755 3.755 0 0050 37.5a3.755 3.755 0 00-3.75-3.75H45c0-2.758-2.242-5-5-5s-5 2.242-5 5h-1.25A3.755 3.755 0 0030 37.5a3.755 3.755 0 003.75 3.75H35v5h-7.5v2.5h25v-2.5H45zm-5-15c1.379 0 2.5 1.121 2.5 2.5h-5c0-1.379 1.121-2.5 2.5-2.5zm-7.5 6.25a1.25 1.25 0 011.25-1.25h12.5a1.25 1.25 0 010 2.5h-12.5a1.25 1.25 0 01-1.25-1.25zm5 3.75h5v5h-5v-5zm26.25 1.25v3.75H57.5v2.5h6.25v7.5H57.5v2.5h6.25V65h2.5V42.5h-2.5z" fill="#473E37"/><path d="M26.25 60h-2.5a1.25 1.25 0 01-1.25-1.25v-12.5A1.25 1.25 0 0123.75 45h2.5a1.25 1.25 0 011.25 1.25v12.5A1.25 1.25 0 0126.25 60zm30 0h-2.5a1.25 1.25 0 01-1.25-1.25v-12.5A1.25 1.25 0 0153.75 45h2.5a1.25 1.25 0 011.25 1.25v12.5A1.25 1.25 0 0156.25 60z" fill="#DDB06F"/><path d="M27.5 56.25h25v2.5h-25v-2.5zm43.75 5h-2.5v-2.5h2.5v2.5zm0-5h-2.5v-2.5h2.5v2.5zm0-5h-2.5v-2.5h2.5v2.5zm-27.5 2.5h-2.5v-2.5h2.5v2.5zm-5 0h-2.5v-2.5h2.5v2.5zm-5 0h-2.5v-2.5h2.5v2.5zm37.5-20h-2.5v-2.5h2.5v2.5zm0-5h-2.5v-2.5h2.5v2.5zm0-5h-2.5v-2.5h2.5v2.5zm-52.5 55H6.25V70h2.5v6.25h7.5V70h2.5v8.75z" fill="#473E37"/></svg>