<svg width="80" height="80" fill="none" xmlns="http://www.w3.org/2000/svg"><g clip-path="url(#clip0_2_69)"><path d="M20.645 46.452h-7.742V32.258h7.742v14.194z" fill="#DDB06F"/><path d="M10.421 33.548h12.706L25.08 8.993a8.355 8.355 0 00-2.185-6.314A8.356 8.356 0 0016.775 0a8.356 8.356 0 00-6.122 2.679 8.355 8.355 0 00-2.185 6.314l1.953 24.555zm2.384-2.58l-.206-2.58h8.35l-.206 2.58h-7.938zM12.549 4.43a5.692 5.692 0 014.225-1.85c1.623 0 3.124.657 4.226 1.85a5.69 5.69 0 011.508 4.358l-1.354 17.018h-8.76L11.04 8.788a5.692 5.692 0 011.51-4.358zM8.795 69.916l2.539-.462.47 2.581-2.54.462-.47-2.58zM5.508 51.85l2.54-.462 2.817 15.486-2.54.462L5.508 51.85z" fill="#46413D"/><path d="M80 33.548H49.032v10.323H32.328l-1.72-5.161h-9.963v2.58h8.102l1.762 5.286A8.913 8.913 0 0130.823 51L26.02 77.42H7.529L2.725 51a8.951 8.951 0 01.314-4.423l1.762-5.286h8.102v-2.58H2.941l-2.35 7.05a11.49 11.49 0 00-.405 5.7L5.375 80h22.799l.469-2.58H80V33.547zM51.613 36.13h25.806v7.742H51.613V36.13zM33.162 46.452h2.967v7.742h-3.263l.497-2.734a11.486 11.486 0 00-.2-5.009zm26.193 7.742v-7.742h7.742v7.742h-7.742zm-5.161 10.322v-7.742h7.741v7.742h-7.742zm-10.323 0v-7.742h7.742v7.742H43.87zm12.903-10.322h-7.742v-7.742h7.742v7.742zm-10.322 0H38.71v-7.742h7.742v7.742zm-5.162 2.58v7.742h-10.3l1.408-7.742h8.893zm2.581 10.323v7.742h-7.742v-7.742h7.742zm2.58 0h7.742v7.742h-7.741v-7.742zm10.323 0h7.742v7.742h-7.742v-7.742zm7.742-2.58v-7.743h7.742v7.742h-7.742zm10.323-7.743h2.58v7.742h-2.58v-7.742zm-5.162-2.58v-7.742h7.742v7.742h-7.742zM30.52 67.097h3.028v7.742h-4.436l1.408-7.742zm36.577 7.742v-7.742h10.322v7.742H67.097z" fill="#46413D"/></g><defs><clipPath id="clip0_2_69"><path fill="#fff" d="M0 0h80v80H0z"/></clipPath></defs></svg>