<svg width="80" height="80" fill="none" xmlns="http://www.w3.org/2000/svg"><path d="M5 17.98a15.668 15.668 0 009.508 14.419l.492.108V27.5a2.5 2.5 0 010-5v-5H5v.48zm63.75 13.27c-2.757 0-5-2.242-5-5s2.243-5 5-5 5 2.242 5 5-2.243 5-5 5zm-20 0c-2.758 0-5-2.242-5-5s2.242-5 5-5 5 2.242 5 5-2.242 5-5 5zm5-12.5c-2.758 0-5-2.242-5-5s2.242-5 5-5 5 2.242 5 5-2.242 5-5 5z" fill="#DDB06F"/><path d="M22.5 23.75a1.25 1.25 0 100-2.5 1.25 1.25 0 000 2.5z" fill="#473E37"/><path d="M68.75 53.889V52.5c0-4.888-3.138-9.045-7.5-10.594v-2.448l3.551-2.13a7.554 7.554 0 013.889-1.078c5.547 0 10.06-4.512 10.06-10.06 0-2.663-.78-5.24-2.257-7.454l-.243-.365V16.92a5.673 5.673 0 00-2.655-4.8 8.666 8.666 0 00-7.055-6.88l-.823-.136a9.645 9.645 0 00-7.723-3.853h-.755a9.615 9.615 0 00-6.616 2.619l-.842.211a8.405 8.405 0 00-5.715 4.861l-.036.009c-3.11.756-5.28 3.519-5.28 6.788 0 1.403.409 2.76 1.184 3.92l1.064 1.592-.945 1.418a7.777 7.777 0 00-1.303 4.375 8.007 8.007 0 004.449 7.205l1.062.53 1.294 1.294a9.082 9.082 0 006.464 2.678h2.827l3.904.976v1.598a11.158 11.158 0 00-1.25-.074h-3.75V45a11.243 11.243 0 005 9.347v7.048a2.305 2.305 0 00-.313.137l-2.674-7.713a3.803 3.803 0 00-1.942-2.203 3.632 3.632 0 00-2.65-.196c.03-.229.079-.456.079-.688v-.274a5.546 5.546 0 00-3.58-5.168l-5.085-1.907a9.197 9.197 0 00-5.663-2.123l-12.547-4.705a10.996 10.996 0 00-.57-.379c2.781-.358 4.945-2.716 4.945-5.595v-1.875a3.022 3.022 0 001.616-5.107l-1.25-1.25a1.257 1.257 0 01-.366-.884V18.75h5c1.379 0 2.5-1.121 2.5-2.5v-2.5c0-1.379-1.121-2.5-2.5-2.5h-2.775l-2.026-8.105a2.493 2.493 0 00-2.425-1.895H10.976c-1.15 0-2.147.779-2.425 1.895L6.525 11.25H3.75a2.503 2.503 0 00-2.5 2.5v2.5c0 1.379 1.121 2.5 2.5 2.5h10v2.714A3.757 3.757 0 0011.25 25c0 1.63 1.045 3.02 2.5 3.536v5.954a9.238 9.238 0 00-2.5 6.345c0 .14.025.275.031.415h-.031v22.936c0 7.341 5.973 13.314 13.314 13.314 4.62 0 8.84-2.339 11.288-6.257l1.334-2.134 1.564 3.647V75c0 .44.09.858.23 1.25h-5.23v2.5h45V77.5a6.259 6.259 0 00-5.709-6.226 8.733 8.733 0 00-4.291-2.318V63.75H70c4.824 0 8.75-3.926 8.75-8.75v-3.75H75a8.717 8.717 0 00-6.25 2.639zM55.303 36.287l-3.284-.037a6.6 6.6 0 01-4.698-1.946L45.74 32.72l-1.426-.711c-1.89-.944-3.064-2.849-3.064-5.046a5.22 5.22 0 01.883-2.91l1.87-2.804-1.99-2.983a4.604 4.604 0 01-.763-2.6 4.404 4.404 0 013.369-4.29l1.347-.326.219-.656a5.925 5.925 0 014.203-3.891l1.166-.291.368-.117.244-.245a7.128 7.128 0 015.074-2.1h.755a7.154 7.154 0 015.966 3.194l.3.45 1.87.311a6.155 6.155 0 014.586 3.546 5.542 5.542 0 00-4.143 1.659l-.84.84h-.216a5.48 5.48 0 00-3.9 1.616l1.767 1.768a2.999 2.999 0 012.133-.884h1.25l1.573-1.572a3.151 3.151 0 012.241-.928 3.173 3.173 0 013.169 3.169v2.21l.662.995a10.893 10.893 0 011.838 6.067 7.567 7.567 0 01-7.56 7.559c-1.822 0-3.612.495-5.176 1.432l-2.264 1.36v-1.025l3.384-3.383-1.768-1.768-1.616 1.617v-7.817l3.5-4.666-2-1.5-3.04 4.054-2.766-1.844-1.387 2.08 3.193 2.129v8.245l-1.806-1.204-1.387 2.08 3.193 2.13v1.48l-3.447-.862zM56.25 45v-1.25h1.25c4.64 0 8.439 3.635 8.722 8.205l-5.338-5.339-1.768 1.768 5.339 5.338C59.885 53.44 56.25 49.64 56.25 45zm1.076 27.111l-3.608-4.992 5.762-3.413 2.228 6.731a9.03 9.03 0 00-.992.828 9.325 9.325 0 00-3.39.846zM56.23 62.79l-1.28.736-2.665-3.73a4.958 4.958 0 001.466-3.522c0-.294-.032-.581-.081-.863l2.56 7.379zm-11.632-4.824l1.967-5.244 3.127 1.252a2.462 2.462 0 011.559 2.3 2.48 2.48 0 01-2.476 2.476 11.602 11.602 0 01-4.177-.784zm4.153-7.508v.275c0 .055-.015.108-.019.163l-2.814-1.125-.053-.431a9.183 9.183 0 00-.594-2.278l1.52.57a3.03 3.03 0 011.96 2.826zm-5.583-1.788l-9.91-3.965a6.757 6.757 0 013.443-.955c3.05 0 5.665 2.06 6.467 4.92zm-14.684-5.874c-.164-.8-.422-1.578-.77-2.317l4.79 1.796a9.213 9.213 0 00-1.97 1.343l-2.05-.822zM16.943 11.25l-1.346-2.151 1.468-2.935 1.919 3.071-1.007 2.015h-1.035zm-2.898-4.635l-1.79-2.865h3.222l-1.432 2.865zm4.46-2.865h3.223l-1.433 2.864-1.79-2.864zm4.688 7.5l-1.346-2.151 1.468-2.935 3.18 5.086h-3.303zm3.332-7.5l1.18 4.719-2.95-4.719h1.77zM10.499 5.658l2.236 3.576-1.008 2.016H9.1l1.399-5.592zM3.75 13.75h30l.002 2.5H3.75v-2.5zm11.25 10h1.25v-5h10v2.715c0 1.001.391 1.944 1.099 2.651l1.25 1.25a.519.519 0 01-.366.884H26.25v2.5h-.733a2.998 2.998 0 01-2.133-.884l-1.768 1.768a5.483 5.483 0 003.901 1.616h.658a3.174 3.174 0 01-4.308 2.26 3.152 3.152 0 01-1.028-.688l-1.206-1.206-1.768 1.768 1.144 1.144-2.759-.553V26.25H15a1.25 1.25 0 010-2.5zm.461 12.617l4.439.888a7.907 7.907 0 015.574 4.339l-3.76-1.504-.928 2.321 23.456 9.383-1.964 5.239-24.292-9.897a6.778 6.778 0 01-4.236-6.301c0-1.668.621-3.226 1.711-4.468zM21.53 56.25h-7.78v-9.071a9.31 9.31 0 003.294 2.272l7.156 2.915-2.67 3.884zm16.854 9.304a10.85 10.85 0 01-.884-4.304H35c0 1.744.341 3.439.996 5.047l-2.262 3.62A10.753 10.753 0 0124.564 75C18.6 75 13.75 70.149 13.75 64.186V58.75h6.061l-2.091 3.042 2.06 1.417 6.79-9.877 16.873 6.874c.433.178.873.33 1.32.463l1.32 10.581h-5.258l-2.441-5.696zM47.5 76.25h-5A1.25 1.25 0 0141.25 75v-1.25h5.731l1.618 1.616a.519.519 0 01-.366.884H47.5zm5.48 0h-1.782c.03-.169.052-.34.052-.517a3.037 3.037 0 00-.884-2.134l-1.678-1.68-1.343-10.744c.473.047.949.075 1.429.075.463 0 .905-.085 1.331-.204l2.666 3.734-.3.172a2.443 2.443 0 00-.771 3.528l3.522 4.966a9.36 9.36 0 00-2.242 2.804zm19.003-2.5h.517c1.63 0 3.02 1.045 3.536 2.5H55.96a6.797 6.797 0 015.29-2.5h.517l.657-.656a6.252 6.252 0 014.451-1.844c1.681 0 3.261.654 4.451 1.844l.657.656zm-5.733-4.97a8.735 8.735 0 00-2.299.476l-2.096-6.334a2.436 2.436 0 00-.605-.966v-6.362a11.17 11.17 0 003.75.656h1.25v12.53zm10-13.78c0 3.249-2.501 5.896-5.674 6.191l4.058-4.057-1.768-1.768-4.057 4.058C69.104 56.25 71.75 53.75 75 53.75h1.25V55z" fill="#473E37"/></svg>