<svg width="80" height="80" fill="none" xmlns="http://www.w3.org/2000/svg"><g clip-path="url(#clip0_2_87)"><path d="M50.323 51.613a3.846 3.846 0 01-2.738-1.134 3.845 3.845 0 01-1.133-2.737c0-1.034.402-2.006 1.134-2.737a3.845 3.845 0 012.737-1.134c1.034 0 2.006.403 2.737 1.134a3.845 3.845 0 011.134 2.737 3.845 3.845 0 01-1.134 2.737 3.845 3.845 0 01-2.737 1.134zm-20.646 0a3.846 3.846 0 01-2.737-1.134 3.844 3.844 0 01-1.134-2.737c0-1.034.403-2.006 1.134-2.737a3.845 3.845 0 012.737-1.134c1.035 0 2.006.403 2.738 1.134a3.845 3.845 0 011.133 2.737 3.845 3.845 0 01-1.133 2.737 3.844 3.844 0 01-2.738 1.134z" fill="#DDB06F"/><path d="M15.484 30.968c8.538 0 15.484-6.946 15.484-15.484S24.022 0 15.484 0 0 6.946 0 15.484s6.946 15.484 15.484 15.484zM2.645 14.194a12.845 12.845 0 012.853-6.871l1.774 1.774 1.825-1.825-1.774-1.774a12.845 12.845 0 016.87-2.853v2.516h2.581V2.645a12.845 12.845 0 016.871 2.853l-1.774 1.774 1.825 1.825 1.774-1.774a12.844 12.844 0 012.852 6.87h-2.515v2.581h2.515a12.844 12.844 0 01-2.852 6.87l-1.774-1.773-1.825 1.824 1.774 1.774a12.844 12.844 0 01-6.87 2.853v-2.515h-2.581v2.515a12.844 12.844 0 01-6.871-2.852l1.774-1.774-1.825-1.825-1.774 1.774a12.846 12.846 0 01-2.853-6.87h2.516v-2.581H2.645z" fill="#46413D"/><path d="M20.645 16.774v-2.58h-4.627L11.235 9.41 9.41 11.235l5.54 5.54h5.695zM40 28.387h10.323a3.875 3.875 0 003.87-3.87V6.451a3.875 3.875 0 00-3.87-3.871H40a3.875 3.875 0 00-3.871 3.87v18.065A3.875 3.875 0 0040 28.387zM38.71 6.452c0-.712.578-1.29 1.29-1.29h10.323c.711 0 1.29.578 1.29 1.29v18.064c0 .712-.579 1.29-1.29 1.29H40a1.29 1.29 0 01-1.29-1.29V6.452zm24.516 21.935h10.322a3.875 3.875 0 003.871-3.87V6.451a3.875 3.875 0 00-3.87-3.871H63.225a3.875 3.875 0 00-3.871 3.87v18.065a3.875 3.875 0 003.87 3.871zm-1.29-21.935c0-.712.578-1.29 1.29-1.29h10.322c.712 0 1.29.578 1.29 1.29v18.064a1.29 1.29 0 01-1.29 1.29H63.226a1.29 1.29 0 01-1.29-1.29V6.452zm15.483 45.16V37.42a3.876 3.876 0 00-3.87-3.87H6.451a3.875 3.875 0 00-3.871 3.87v14.194A2.584 2.584 0 000 54.193V80h80V54.194a2.584 2.584 0 00-2.58-2.581zM74.84 37.42v14.194a2.584 2.584 0 00-2.58 2.58v5.162H54.73l8.497-8.498a4.377 4.377 0 001.29-3.115 4.377 4.377 0 00-1.29-3.115l-8.498-8.498h18.82c.712 0 1.29.579 1.29 1.29zM7.742 61.936h28.387a2.584 2.584 0 012.58 2.58 2.584 2.584 0 01-2.58 2.58H7.742v-5.16zm20.645-3.116L18.6 49.032a1.812 1.812 0 01-.535-1.29c0-.487.19-.946.535-1.29l9.788-9.789a1.813 1.813 0 011.29-.534c.488 0 .946.19 1.29.534l7.208 7.208-.756.756a4.377 4.377 0 00-1.29 3.115c0 1.177.458 2.283 1.29 3.115l.756.756-7.207 7.207a1.812 1.812 0 01-1.29.535 1.81 1.81 0 01-1.29-.535zm23.226-22.157l9.788 9.789c.345.344.534.803.534 1.29s-.19.946-.534 1.29l-9.788 9.788a1.812 1.812 0 01-1.29.535 1.81 1.81 0 01-1.29-.535l-9.789-9.788a1.812 1.812 0 01-.534-1.29c0-.487.19-.946.534-1.29l9.788-9.789a1.812 1.812 0 011.29-.534c.488 0 .946.19 1.29.534zM40 42.046l-5.917-5.917h11.834L40 42.046zm-3.871 17.309h-2.046L40 53.438l5.917 5.917h-2.046A5.15 5.15 0 0040 61.108a5.15 5.15 0 00-3.871-1.753zm7.742 2.58h28.387v5.162H43.871a2.584 2.584 0 01-2.58-2.58 2.584 2.584 0 012.58-2.581zM5.161 77.42h-2.58V54.194h2.58v23.225zm0-40c0-.711.58-1.29 1.29-1.29h18.82l-8.497 8.498a4.377 4.377 0 00-1.29 3.115c0 1.177.458 2.283 1.29 3.115l8.498 8.498H7.742v-5.161a2.584 2.584 0 00-2.58-2.581V37.419zm2.58 40v-7.742H36.13A5.15 5.15 0 0040 67.924a5.15 5.15 0 003.871 1.753h28.387v7.742H7.742zm69.678 0h-2.58V54.194h2.58v23.225z" fill="#46413D"/><path d="M47.586 45.005a3.87 3.87 0 011.067-.757l-1.98-1.98-1.825 1.824 1.98 1.98c.19-.396.446-.757.758-1.067zm-.758 4.406l-1.98 1.98 1.825 1.825 1.98-1.98a3.873 3.873 0 01-1.068-.757 3.871 3.871 0 01-.757-1.068zm8.969 1.98l-1.98-1.98a3.876 3.876 0 01-1.825 1.825l1.98 1.98 1.825-1.825zm-1.98-5.318l1.98-1.98-1.825-1.825-1.98 1.98a3.89 3.89 0 011.825 1.825zM26.94 45.005a3.87 3.87 0 011.068-.757l-1.98-1.98-1.825 1.824 1.98 1.98c.19-.396.446-.757.757-1.067zm6.232 1.068l1.98-1.98-1.825-1.825-1.98 1.98a3.89 3.89 0 011.825 1.825zm-6.989 3.338l-1.98 1.98 1.825 1.825 1.98-1.98a3.873 3.873 0 01-1.068-.757 3.873 3.873 0 01-.757-1.068zm8.969 1.98l-1.98-1.98c-.19.396-.446.758-.758 1.068-.31.311-.671.567-1.067.757l1.98 1.98 1.825-1.825z" fill="#46413D"/></g><defs><clipPath id="clip0_2_87"><path fill="#fff" d="M0 0h80v80H0z"/></clipPath></defs></svg>