<svg width="80" height="80" fill="none" xmlns="http://www.w3.org/2000/svg"><path d="M22.76 50.323l1.301-7.742 2.602 2.58L29.265 40l2.602 5.161 2.602-2.58 1.3 7.742H22.762zm23.417 0l1.3-7.742 2.602 2.58L52.681 40l2.602 5.161 2.602-2.58 1.3 7.742H46.178z" fill="#DDB06F"/><path d="M72.195 54.194h-2.602c-2.152 0-3.903 1.736-3.903 3.87v1.29h-5.203v-1.29c0-2.134-1.751-3.87-3.903-3.87h-2.602c-2.152 0-3.903 1.736-3.903 3.87v1.29h-5.203v-1.29c0-2.134-1.75-3.87-3.903-3.87h-2.602c-2.152 0-3.902 1.736-3.902 3.87v1.29h-5.204v-1.29c0-2.134-1.75-3.87-3.903-3.87h-2.601c-2.152 0-3.903 1.736-3.903 3.87v1.29h-5.204v-1.29c0-2.134-1.75-3.87-3.902-3.87H7.15c-2.152 0-3.903 1.736-3.903 3.87V80h72.85V58.065c0-2.135-1.75-3.871-3.902-3.871zm-6.505 7.741v5.162h-5.203v-5.161h5.203zm-11.708-5.16h2.602c.717 0 1.3.578 1.3 1.29v19.354h-5.203V58.065c0-.712.584-1.29 1.301-1.29zM50.08 77.418h-5.203v-7.742h5.203v7.742zm0-15.483v5.16h-5.203v-5.16h5.203zm-11.708-5.162h2.602c.717 0 1.301.58 1.301 1.29V77.42h-5.203V58.065c0-.712.583-1.29 1.3-1.29zM34.47 77.42h-5.204v-7.742h5.204v7.742zm0-15.483v5.16h-5.204v-5.16h5.204zm-11.71-5.164h2.601c.718 0 1.301.58 1.301 1.29V77.42H21.46V58.065c0-.712.583-1.29 1.3-1.29zm-3.903 5.161v5.162h-5.204v-5.161h5.204zM11.053 77.42H5.849V58.065c0-.712.584-1.29 1.3-1.29h2.603c.717 0 1.3.578 1.3 1.29v19.354zm2.601-7.742h5.204v7.742h-5.204v-7.742zm46.833 7.742v-7.742h5.203v7.742h-5.203zm13.009 0h-5.204V58.065c0-.712.584-1.29 1.3-1.29h2.603c.717 0 1.3.578 1.3 1.29v19.354zM66.99 38.63v-7.791a6.44 6.44 0 003.99-2.564 6.56 6.56 0 001.214.113c3.586 0 6.504-2.894 6.504-6.451 0-.39-.035-.775-.105-1.155A6.369 6.369 0 0080 16.774a6.393 6.393 0 00-1.668-4.314 6.41 6.41 0 00.367-2.137c0-3.558-2.918-6.452-6.504-6.452-.179 0-.357.007-.535.022A6.548 6.548 0 0065.69 0a6.548 6.548 0 00-5.97 3.893 6.562 6.562 0 00-.534-.022c-3.587 0-6.505 2.894-6.505 6.452 0 .729.126 1.453.367 2.137a6.393 6.393 0 00-1.668 4.314 6.37 6.37 0 001.406 4.007c-.07.38-.105.767-.105 1.155 0 3.557 2.918 6.451 6.505 6.451.41 0 .816-.038 1.214-.113a6.44 6.44 0 003.99 2.564v6.908c-6.506-2.103-15.337-4.198-24.718-4.198-.481 0-.96.008-1.439.018-.359-1.657-1.418-3.166-3.073-4.34-1.94-1.373-4.494-2.13-7.196-2.13-1.87 0-3.655.373-5.203 1.035v-5.07a5.204 5.204 0 006.372-3.837c2.308-.528 4.035-2.583 4.035-5.03a5.16 5.16 0 00-.227-1.508 5.115 5.115 0 001.528-3.654c0-2.447-1.727-4.502-4.035-5.03A5.204 5.204 0 0025.362 0a5.2 5.2 0 00-3.684 1.515 5.224 5.224 0 00-6.05 2.399 5.24 5.24 0 00-.673-.043c-2.869 0-5.203 2.315-5.203 5.161 0 .512.077 1.02.227 1.508a5.116 5.116 0 00-1.528 3.654c0 2.845 2.334 5.16 5.203 5.16.055 0 .11 0 .164-.002a5.206 5.206 0 006.34 3.709v6.643a8.032 8.032 0 00-1.433 1.552 10.646 10.646 0 00-2.469-.288c-5.021 0-9.106 3.473-9.106 7.742 0 .622.088 1.231.256 1.825C2.878 42.421.146 43.958 0 44.041l1.29 2.24c.18-.1 18.174-10.152 38.382-10.152 20.209 0 38.203 10.051 38.382 10.153l1.29-2.241c-.19-.108-4.732-2.665-11.908-5.254l-.445-.158zm-4.813-12.423l-.517-1.055-1.109.411c-.437.162-.9.245-1.366.245-2.152 0-3.903-1.737-3.903-3.871 0-.385.057-.766.17-1.132l.228-.742-.553-.548a3.846 3.846 0 01.297-5.743l.834-.675-.51-.94a3.797 3.797 0 01-.466-1.834c0-2.134 1.75-3.87 3.902-3.87.36 0 .718.049 1.065.147l1.334.374.292-1.343c.385-1.767 1.99-3.05 3.814-3.05 1.825 0 3.429 1.283 3.814 3.05l.292 1.343L71.13 6.6a3.944 3.944 0 011.066-.147c2.151 0 3.902 1.736 3.902 3.87 0 .65-.156 1.267-.465 1.835l-.511.94.835.673a3.847 3.847 0 01.296 5.744l-.553.548.228.742c.113.367.17.748.17 1.132 0 2.134-1.75 3.87-3.903 3.87-.47 0-.93-.082-1.366-.244l-1.109-.411-.517 1.055a3.87 3.87 0 01-2.211 1.962v-5.435l7.086-3.514-1.163-2.308-5.923 2.937v-4.924l5.873-3.495-1.339-2.213-4.534 2.699V7.742H64.39v4.173l-4.534-2.699-1.339 2.213 5.873 3.495v4.924l-5.923-2.938-1.163 2.309 7.086 3.514v5.435a3.87 3.87 0 01-2.21-1.962zm-43.32-5.56c-1.435 0-2.602-1.159-2.602-2.582 0-.05.002-.1.005-.15l.11-1.94-1.845.651c-.28.099-.574.15-.871.15-1.435 0-2.602-1.158-2.602-2.581 0-.885.45-1.698 1.203-2.176l1.037-.658-.605-1.063a2.563 2.563 0 01-.335-1.265c0-1.423 1.168-2.58 2.602-2.58.33 0 .652.06.959.181l1.353.533.382-1.394a2.602 2.602 0 012.51-1.901c.447 0 .887.115 1.275.332l1.072.6.663-1.029a2.599 2.599 0 012.193-1.193c1.435 0 2.602 1.157 2.602 2.58v1.29h1.3c1.436 0 2.603 1.158 2.603 2.581a2.57 2.57 0 01-1.204 2.176l-1.036.658.605 1.063c.219.386.334.821.334 1.264 0 1.423-1.167 2.581-2.602 2.581h-1.3v1.29c0 1.423-1.168 2.581-2.603 2.581a2.61 2.61 0 01-1.3-.348v-9.974h-2.602v9.974a2.609 2.609 0 01-1.301.348zm9.106 9.031c3.63 0 6.775 1.74 7.595 4.002-3.916.244-7.685.814-11.168 1.547-.728-1.232-1.818-2.257-3.139-2.992 1.396-1.548 3.952-2.557 6.712-2.557zM9.842 39.56a4.05 4.05 0 01-.09-.85c0-2.845 2.918-5.16 6.504-5.16 2.22 0 4.224.882 5.408 2.296A95.5 95.5 0 009.842 39.56zm9.016 9.473h20.814v2.58H18.858v-2.58zm23.416 0h20.814v2.58H42.274v-2.58z" fill="#46413D"/></svg>