<svg width="100" height="100" fill="none" xmlns="http://www.w3.org/2000/svg"><g clip-path="url(#clip0_60_2482)"><path d="M55.34 63.41l8.059-8.064 2.279 2.28-8.058 8.065-2.28-2.281z" fill="#fff"/><path d="M97.858 87.546l-3.64-3.641h5.714V12.937H16.118V.034H8.06C3.615.034 0 3.652 0 8.098V75.84c0 4.447 3.615 8.065 8.06 8.065h65.482L87.52 97.892a7.26 7.26 0 005.17 2.142c4.03 0 7.311-3.28 7.311-7.315 0-1.953-.761-3.79-2.142-5.173zm-7.081-2.524l-5.78 5.784-27.083-27.104-2.36-8.094 8.143 2.315 27.08 27.1zM3.224 8.1a4.843 4.843 0 014.835-4.84h4.836v64.517H8.059a8.012 8.012 0 00-4.835 1.616V8.1zm4.835 72.58a4.844 4.844 0 01-4.835-4.838A4.844 4.844 0 018.059 71h8.06V16.164h80.59V80.68h-5.714L65.383 55.05l-14.557-4.14 4.222 14.487 15.27 15.281H8.06zm84.63 16.13a4.063 4.063 0 01-2.89-1.198l-2.523-2.524 5.78-5.784 2.523 2.525a4.065 4.065 0 011.197 2.891 4.095 4.095 0 01-4.088 4.09z" fill="#fff"/><path d="M66.084 22.614h8.918v3.226h-8.918v-3.226zM80.59 48.421H54.801V33.905h3.224v11.29h19.342V39.8h3.223v8.621zM24.177 74.227H27.4v3.226h-3.223v-3.226zm6.447 0h22.565v3.226H30.624v-3.226z" fill="#fff"/><path d="M19.342 73.282V19.39h53.857L19.342 73.282zM27.4 27.453V53.26l25.79-25.807H27.4z" fill="#DDB06F"/><path d="M25.79 57.706V25.84h31.843L25.79 57.706zm3.223-28.64V49.92l20.84-20.854h-20.84z" fill="#fff"/><path d="M82.202 41.97c-6.22 0-11.282-5.067-11.282-11.291s5.063-11.29 11.282-11.29c6.22 0 11.283 5.066 11.283 11.29 0 6.224-5.063 11.29-11.283 11.29zm0-16.13a4.844 4.844 0 00-4.835 4.839 4.844 4.844 0 004.835 4.839 4.844 4.844 0 004.836-4.839 4.844 4.844 0 00-4.836-4.839z" fill="#DDB06F"/><path d="M82.202 37.13a6.455 6.455 0 01-6.447-6.45c0-3.559 2.892-6.453 6.447-6.453 3.556 0 6.447 2.894 6.447 6.452s-2.891 6.452-6.447 6.452zm0-9.677a3.228 3.228 0 00-3.224 3.226 3.228 3.228 0 003.224 3.226 3.228 3.228 0 003.224-3.226 3.228 3.228 0 00-3.224-3.226z" fill="#fff"/></g><defs><clipPath id="clip0_60_2482"><path fill="#fff" d="M0 0h100v100H0z"/></clipPath></defs></svg>